{
.appVersion = "1230";
DisplayStrings = (
"/approxequal.tf",
"/approxequal",
"/zero.propold/one.propold/two.propold/three.propold/four.propold/five.propold/six.propold/seven.propold/eight.propold/nine.propold",
"/.notdef",
"/.notdef",
"/.notdef",
" ",
"ÐAÆEÞaæeþßðo",
"¶P§©®/trademark °¦/dagger/daggerdbl"
);
classes = (
{
automatic = 1;
code = "a b c d e f g h i j k l m n o p q r s t u v w x y z A B C D E F G H I J K L M N O P Q R S T U V W X Y Z agrave egrave ograve Agrave Egrave ugrave aacute eacute oacute uacute Aacute Eacute Igrave Iacute Ograve Oacute Ugrave Uacute acircumflex ecircumflex ocircumflex ucircumflex Acircumflex Ecircumflex Icircumflex Ocircumflex Ucircumflex adieresis edieresis odieresis udieresis Adieresis Edieresis Idieresis Odieresis Udieresis dotlessi igrave iacute icircumflex idieresis atilde ntilde otilde Atilde Ntilde Otilde";
name = AllLetters;
},
{
automatic = 1;

glyphs = (
{
glyphname = comma;
lastChange = "2019-05-24 19:57:20 +0000";
layers = (
{
layerId = "AD226DB4-BE97-401A-8A1F-FC26A063DFB1";
paths = (
{
closed = 1;
nodes = (
"191 -112 OFFCURVE",
"223 -37 OFFCURVE",
"226 16 CURVE SMOOTH",
"229 72 OFFCURVE",
"204 109 OFFCURVE",
"163 109 CURVE SMOOTH",
"128 109 OFFCURVE",
"106 82 OFFCURVE",
"102 53 CURVE SMOOTH",
"96 12 OFFCURVE",
"123 -13 OFFCURVE",
"168 -10 CURVE",
"151 -67 OFFCURVE",
"112 -107 OFFCURVE",
"51 -134 CURVE",
"99 -159 LINE"
);
}
);
width = 293;
},
{
layerId = "2146CDF3-509B-498B-BCC4-8BA41979C9D7";
paths = (
{
closed = 1;
nodes = (
"376 -253 OFFCURVE",
"499 -82 OFFCURVE",
"516 82 CURVE SMOOTH",
"532 236 OFFCURVE",
"459 366 OFFCURVE",
"316 366 CURVE SMOOTH",
"200 366 OFFCURVE",
"106 280 OFFCURVE",
"96 171 CURVE SMOOTH",
"88 76 OFFCURVE",
"152 14 OFFCURVE",
"228 -10 CURVE",
"197 -94 OFFCURVE",
"106 -159 OFFCURVE",
"12 -213 CURVE",
"217 -337 LINE"
);
}
);
width = 550;
}
);
unicode = 002C;
},
{
glyphname = period;
lastChange = "2019-05-24 19:57:20 +0000";
layers = (
{
layerId = "AD226DB4-BE97-401A-8A1F-FC26A063DFB1";
paths = (
{
closed = 1;
nodes = (
"157 -18 OFFCURVE",
"184 16 OFFCURVE",
"188 48 CURVE SMOOTH",
"193 85 OFFCURVE",
"169 110 OFFCURVE",
"136 110 CURVE SMOOTH",
"100 110 OFFCURVE",
"74 82 OFFCURVE",
"70 48 CURVE SMOOTH",
"66 15 OFFCURVE",
"85 -18 OFFCURVE",
"121 -18 CURVE SMOOTH"
);
}
);
width = 253;
},
{
layerId = "2146CDF3-509B-498B-BCC4-8BA41979C9D7";
paths = (
{
closed = 1;
nodes = (
"339 -18 OFFCURVE",
"439 63 OFFCURVE",
"450 194 CURVE SMOOTH",
"458 319 OFFCURVE",
"378 406 OFFCURVE",
"266 406 CURVE SMOOTH",
"150 406 OFFCURVE",
"59 312 OFFCURVE",
"46 194 CURVE SMOOTH",
"34 69 OFFCURVE",
"111 -18 OFFCURVE",
"227 -18 CURVE SMOOTH"
);
}
);
width = 463;
}
);
unicode = 002E;
},
{
glyphname = semicolon;
lastChange = "2019-05-24 19:57:20 +0000";
layers = (
{
layerId = "AD226DB4-BE97-401A-8A1F-FC26A063DFB1";
paths = (
{
closed = 1;
nodes = (
"233 -113 OFFCURVE",
"265 -32 OFFCURVE",
"269 16 CURVE SMOOTH",
"274 73 OFFCURVE",
"246 109 OFFCURVE",
"205 109 CURVE SMOOTH",
"171 109 OFFCURVE",
"147 83 OFFCURVE",
"144 53 CURVE SMOOTH",
"140 18 OFFCURVE",
"164 -14 OFFCURVE",
"210 -10 CURVE",
"192 -67 OFFCURVE",
"154 -107 OFFCURVE",
"93 -134 CURVE",
"140 -159 LINE"
);
},
{
closed = 1;
nodes = (
"298 710 OFFCURVE",
"324 743 OFFCURVE",
"328 772 CURVE SMOOTH",
"333 805 OFFCURVE",
"312 838 OFFCURVE",
"273 838 CURVE SMOOTH",
"231 838 OFFCURVE",
"211 798 OFFCURVE",
"210 772 CURVE SMOOTH",
"208 739 OFFCURVE",
"234 710 OFFCURVE",
"265 710 CURVE SMOOTH"
);
}
);
width = 383;
},
{
layerId = "2146CDF3-509B-498B-BCC4-8BA41979C9D7";
paths = (
{
closed = 1;
nodes = (
"438 -253 OFFCURVE",
"560 -83 OFFCURVE",
"576 82 CURVE SMOOTH",
"592 236 OFFCURVE",
"520 366 OFFCURVE",
"377 366 CURVE SMOOTH",
"261 366 OFFCURVE",
"167 280 OFFCURVE",
"157 171 CURVE SMOOTH",
"149 74 OFFCURVE",
"214 14 OFFCURVE",
"289 -10 CURVE",
"258 -94 OFFCURVE",
"167 -159 OFFCURVE",
"73 -213 CURVE",
"279 -337 LINE"
);
},
{
closed = 1;
nodes = (
"531 552 OFFCURVE",
"626 638 OFFCURVE",
"637 766 CURVE SMOOTH",
"647 884 OFFCURVE",
"567 977 OFFCURVE",
"455 977 CURVE SMOOTH",
"340 977 OFFCURVE",
"243 886 OFFCURVE",
"235 766 CURVE SMOOTH",
"221 639 OFFCURVE",
"294 552 OFFCURVE",
"412 552 CURVE SMOOTH"
);
}
);
width = 652;
}
);
unicode = 003B;
},
{
glyphname = colon;
lastChange = "2019-05-15 14:38:49 +0000";
layers = (
{
layerId = "AD226DB4-BE97-401A-8A1F-FC26A063DFB1";
paths = (
{
closed = 1;
nodes = (
"267 723 OFFCURVE",
"293 756 OFFCURVE",
"297 785 CURVE SMOOTH",
"302 819 OFFCURVE",
"281 851 OFFCURVE",
"243 851 CURVE SMOOTH",
"200 851 OFFCURVE",
"182 810 OFFCURVE",
"179 785 CURVE SMOOTH",
"175 752 OFFCURVE",
"203 723 OFFCURVE",
"234 723 CURVE SMOOTH"
);
},
{
closed = 1;
nodes = (
"211 79 OFFCURVE",
"237 111 OFFCURVE",
"241 141 CURVE SMOOTH",
"246 174 OFFCURVE",
"226 207 OFFCURVE",
"187 207 CURVE SMOOTH",
"145 207 OFFCURVE",
"126 167 OFFCURVE",
"123 141 CURVE SMOOTH",
"119 107 OFFCURVE",
"147 79 OFFCURVE",
"178 79 CURVE SMOOTH"
);
}
);
width = 340;
},
{
layerId = "2146CDF3-509B-498B-BCC4-8BA41979C9D7";
paths = (
{
closed = 1;
nodes = (
"454 526 OFFCURVE",
"550 611 OFFCURVE",
"560 739 CURVE SMOOTH",
"570 857 OFFCURVE",
"491 950 OFFCURVE",
"378 950 CURVE SMOOTH",
"264 950 OFFCURVE",
"166 860 OFFCURVE",
"159 739 CURVE SMOOTH",
"152 612 OFFCURVE",
"217 526 OFFCURVE",
"336 526 CURVE SMOOTH"
);
},
{
closed = 1;
nodes = (
"391 -20 OFFCURVE",
"487 65 OFFCURVE",
"498 193 CURVE SMOOTH",
"508 311 OFFCURVE",
"428 404 OFFCURVE",
"315 404 CURVE SMOOTH",
"201 404 OFFCURVE",
"103 313 OFFCURVE",
"96 193 CURVE SMOOTH",
"90 66 OFFCURVE",
"155 -20 OFFCURVE",
"273 -20 CURVE SMOOTH"
);
}
);
width = 570;
}
);
unicode = 003A;
},
{
glyphname = hyphen;
lastChange = "2019-05-24 19:57:20 +0000";
layers = (
{
layerId = "AD226DB4-BE97-401A-8A1F-FC26A063DFB1";
paths = (
{
closed = 1;
nodes = (
"573 529 LINE",
"581 589 LINE",
"108 589 LINE",
"101 529 LINE"
);
}
);
width = 580;
},
{
layerId = "2146CDF3-509B-498B-BCC4-8BA41979C9D7";
paths = (
{
closed = 1;
nodes = (
"672 483 LINE",
"699 773 LINE",
"174 773 LINE",
"147 483 LINE"
);
}
);
width = 725;
}
);
unicode = 002D;
},
{
glyphname = endash;
lastChange = "2019-05-24 19:57:14 +0000";
layers = (
{
layerId = "AD226DB4-BE97-401A-8A1F-FC26A063DFB1";
paths = (
{
closed = 1;
nodes = (
"704 529 LINE",
"712 589 LINE",
"153 589 LINE",
"150 529 LINE"
);
}
);
width = 756;
},
{
layerId = "2146CDF3-509B-498B-BCC4-8BA41979C9D7";
paths = (
{
closed = 1;
nodes = (
"1000 483 LINE",
"1027 773 LINE",
"173 773 LINE",
"144 483 LINE"
);
}
);
width = 1052;
}
);
unicode = 2013;
},
{
glyphname = emdash;
lastChange = "2019-05-24 19:57:20 +0000";
layers = (
{
layerId = "AD226DB4-BE97-401A-8A1F-FC26A063DFB1";
paths = (
{
closed = 1;
nodes = (
"1173 529 LINE",
"1177 589 LINE",
"153 589 LINE",
"150 529 LINE"
);
}
);
width = 1223;
},
{
layerId = "2146CDF3-509B-498B-BCC4-8BA41979C9D7";
paths = (
{
closed = 1;
nodes = (
"1423 483 LINE",
"1453 773 LINE",
"173 773 LINE",
"144 483 LINE"
);
}
);
width = 1473;
}
);
unicode = 2014;
},
{
glyphname = exclam;
lastChange = "2019-05-24 19:57:20 +0000";
layers = (
{
layerId = "AD226DB4-BE97-401A-8A1F-FC26A063DFB1";
paths = (
{
closed = 1;
nodes = (
"281 259 LINE",
"372 1174 LINE",
"316 1174 LINE",
"237 259 LINE"
);
},
{
closed = 1;
nodes = (
"266 -18 OFFCURVE",
"299 15 OFFCURVE",
"296 44 CURVE SMOOTH",
"307 82 OFFCURVE",
"276 110 OFFCURVE",
"242 110 CURVE SMOOTH",
"210 110 OFFCURVE",
"184 82 OFFCURVE",
"176 44 CURVE SMOOTH",
"176 15 OFFCURVE",
"199 -18 OFFCURVE",
"230 -18 CURVE SMOOTH"
);
}
);
width = 470;
},
{
layerId = "2146CDF3-509B-498B-BCC4-8BA41979C9D7";
paths = (
{
closed = 1;
nodes = (
"472 541 LINE",
"589 1417 LINE",
"256 1417 LINE",
"210 541 LINE"
);
},
{
closed = 1;
nodes = (
"405 -18 OFFCURVE",
"496 67 OFFCURVE",
"513 195 CURVE SMOOTH",
"517 312 OFFCURVE",
"446 406 OFFCURVE",
"327 406 CURVE SMOOTH",
"210 406 OFFCURVE",
"118 312 OFFCURVE",
"110 195 CURVE SMOOTH",
"97 67 OFFCURVE",
"172 -18 OFFCURVE",
"290 -18 CURVE SMOOTH"
);
}
);
width = 562;
}
);
unicode = 0021;
},
{
glyphname = a;
lastChange = "2019-05-24 19:57:20 +0000";
layers = (
{
anchors = (
{
name = above;
position = "{524, 1014}";
}
);
layerId = "AD226DB4-BE97-401A-8A1F-FC26A063DFB1";
paths = (
{
closed = 1;
nodes = (
"549 -15 OFFCURVE",
"686 48 OFFCURVE",
"749 190 CURVE",
"747 126 OFFCURVE",
"743 65 OFFCURVE",
"741 0 CURVE",
"795 0 LINE",
"853 614 LINE SMOOTH",
"877 867 OFFCURVE",
"760 960 OFFCURVE",
"584 960 CURVE SMOOTH",
"444 960 OFFCURVE",
"276 901 OFFCURVE",
"259 701 CURVE",
"336 701 LINE",
"346 849 OFFCURVE",
"463 901 OFFCURVE",
"583 901 CURVE SMOOTH",
"729 901 OFFCURVE",
"813 824 OFFCURVE",
"792 613 CURVE SMOOTH",
"777 463 LINE",
"700 508 OFFCURVE",
"601 530 OFFCURVE",
"519 530 CURVE SMOOTH",
"364 530 OFFCURVE",
"205 452 OFFCURVE",
"182 251 CURVE SMOOTH",
"169 124 OFFCURVE",
"249 -15 OFFCURVE",
"428 -15 CURVE SMOOTH"
);
},
{
closed = 1;
nodes = (
"281 44 OFFCURVE",
"239 137 OFFCURVE",
"250 251 CURVE SMOOTH",
"266 414 OFFCURVE",
"375 466 OFFCURVE",
"511 466 CURVE SMOOTH",
"592 466 OFFCURVE",
"680 448 OFFCURVE",
"772 418 CURVE",
"783 181 OFFCURVE",
"586 44 OFFCURVE",
"419 44 CURVE SMOOTH"
);
}
);
width = 960;
},
{
anchors = (
{
name = above;
position = "{524, 1014}";
}
);
layerId = "2146CDF3-509B-498B-BCC4-8BA41979C9D7";
paths = (
{
closed = 1;
nodes = (
"579 -35 OFFCURVE",
"632 14 OFFCURVE",
"703 99 CURVE",
"708 66 OFFCURVE",
"710 32 OFFCURVE",
"714 0 CURVE",
"973 0 LINE",
"1031 620 LINE SMOOTH",
"1055 880 OFFCURVE",
"927 1020 OFFCURVE",
"627 1020 CURVE SMOOTH",
"366 1020 OFFCURVE",
"182 914 OFFCURVE",
"160 674 CURVE",
"481 674 LINE",
"491 731 OFFCURVE",
"533 783 OFFCURVE",
"627 783 CURVE SMOOTH",
"726 783 OFFCURVE",
"742 726 OFFCURVE",
"732 633 CURVE SMOOTH",
"725 568 LINE",
"654 577 OFFCURVE",
"591 590 OFFCURVE",
"503 590 CURVE SMOOTH",
"247 590 OFFCURVE",
"103 480 OFFCURVE",
"91 303 CURVE SMOOTH",
"71 117 OFFCURVE",
"195 -35 OFFCURVE",
"440 -35 CURVE SMOOTH"
);
},
{
closed = 1;
nodes = (
"473 214 OFFCURVE",
"405 248 OFFCURVE",
"408 303 CURVE SMOOTH",
"411 354 OFFCURVE",
"474 381 OFFCURVE",
"549 381 CURVE SMOOTH",
"599 381 OFFCURVE",
"667 369 OFFCURVE",
"706 358 CURVE",
"677 286 OFFCURVE",
"641 214 OFFCURVE",
"541 214 CURVE SMOOTH"
);
}
);
width = 1105;
}
);
unicode = 0061;
},
{
glyphname = b;
lastChange = "2019-05-24 19:57:20 +0000";
layers = (
{
layerId = "AD226DB4-BE97-401A-8A1F-FC26A063DFB1";
paths = (
{
closed = 1;
nodes = (
"820 -15 OFFCURVE",
"954 313 OFFCURVE",
"954 549 CURVE SMOOTH",
"954 799 OFFCURVE",
"803 960 OFFCURVE",
"624 960 CURVE SMOOTH",
"505 960 OFFCURVE",
"396 888 OFFCURVE",
"331 771 CURVE",
"389 1351 LINE",
"325 1351 LINE",
"197 0 LINE",
"252 0 LINE",
"280 168 LINE",
"322 47 OFFCURVE",
"416 -15 OFFCURVE",
"538 -15 CURVE SMOOTH"
);
},
{
closed = 1;
nodes = (
"352 44 OFFCURVE",
"273 213 OFFCURVE",
"299 434 CURVE SMOOTH",
"305 499 LINE SMOOTH",
"330 754 OFFCURVE",
"463 899 OFFCURVE",
"620 899 CURVE SMOOTH",
"768 899 OFFCURVE",
"884 769 OFFCURVE",
"884 551 CURVE SMOOTH",
"884 351 OFFCURVE",
"787 44 OFFCURVE",
"537 44 CURVE SMOOTH"
);
}
);
width = 993;
},
{
layerId = "2146CDF3-509B-498B-BCC4-8BA41979C9D7";
paths = (
{
closed = 1;
nodes = (
"971 -35 OFFCURVE",
"1124 321 OFFCURVE",
"1124 572 CURVE SMOOTH",
"1124 847 OFFCURVE",
"987 1020 OFFCURVE",
"780 1020 CURVE SMOOTH",
"677 1020 OFFCURVE",
"597 978 OFFCURVE",
"534 896 CURVE",
"580 1384 LINE",
"279 1384 LINE",
"151 0 LINE",
"337 0 LINE",
"425 168 LINE",
"464 32 OFFCURVE",
"552 -35 OFFCURVE",
"652 -35 CURVE SMOOTH"
);
},
{
closed = 1;
nodes = (
"573 268 OFFCURVE",
"485 330 OFFCURVE",
"490 428 CURVE SMOOTH",
"505 611 LINE SMOOTH",
"510 680 OFFCURVE",
"608 721 OFFCURVE",
"677 721 CURVE SMOOTH",
"768 721 OFFCURVE",
"824 643 OFFCURVE",
"824 532 CURVE SMOOTH",
"824 397 OFFCURVE",
"755 268 OFFCURVE",
"635 268 CURVE SMOOTH"
);
}
);
width = 1171;
}
);
unicode = 0062;
},
{
glyphname = c;
lastChange = "2019-05-24 19:57:20 +0000";
layers = (
{
layerId = "AD226DB4-BE97-401A-8A1F-FC26A063DFB1";
paths = (
{
closed = 1;
nodes = (
"639 -15 OFFCURVE",
"801 104 OFFCURVE",
"815 296 CURVE",
"742 296 LINE",
"734 132 OFFCURVE",
"620 44 OFFCURVE",
"483 44 CURVE SMOOTH",
"284 44 OFFCURVE",
"189 230 OFFCURVE",
"211 473 CURVE SMOOTH",
"235 737 OFFCURVE",
"385 899 OFFCURVE",
"552 899 CURVE SMOOTH",
"665 899 OFFCURVE",
"757 825 OFFCURVE",
"785 688 CURVE",
"851 711 LINE",
"816 862 OFFCURVE",
"710 960 OFFCURVE",
"559 960 CURVE SMOOTH",
"354 960 OFFCURVE",
"168 778 OFFCURVE",
"139 473 CURVE SMOOTH",
"110 164 OFFCURVE",
"265 -15 OFFCURVE",
"471 -15 CURVE SMOOTH"
);
}
);
width = 896;
},
{
layerId = "2146CDF3-509B-498B-BCC4-8BA41979C9D7";
paths = (
{
closed = 1;
nodes = (
"784 -35 OFFCURVE",
"923 161 OFFCURVE",
"946 375 CURVE",
"651 375 LINE",
"640 315 OFFCURVE",
"618 268 OFFCURVE",
"532 268 CURVE SMOOTH",
"471 268 OFFCURVE",
"405 318 OFFCURVE",
"421 493 CURVE SMOOTH",
"438 671 OFFCURVE",
"517 721 OFFCURVE",
"581 721 CURVE SMOOTH",
"647 721 OFFCURVE",
"664 662 OFFCURVE",
"667 609 CURVE",
"969 606 LINE",
"986 791 OFFCURVE",
"878 1020 OFFCURVE",
"612 1020 CURVE SMOOTH",
"381 1020 OFFCURVE",
"155 838 OFFCURVE",
"125 493 CURVE SMOOTH",
"94 178 OFFCURVE",
"283 -35 OFFCURVE",
"510 -35 CURVE SMOOTH"
);
}
);
width = 988;
}
);
unicode = 0063;
},
{
glyphname = d;
lastChange = "2019-05-24 19:57:20 +0000";
layers = (
{
layerId = "AD226DB4-BE97-401A-8A1F-FC26A063DFB1";
paths = (
{
closed = 1;
nodes = (
"608 -15 OFFCURVE",
"715 49 OFFCURVE",
"781 167 CURVE",
"777 0 LINE",
"830 0 LINE",
"955 1351 LINE",
"892 1351 LINE",
"837 777 LINE",
"790 894 OFFCURVE",
"703 960 OFFCURVE",
"576 960 CURVE SMOOTH",
"281 960 OFFCURVE",
"165 603 OFFCURVE",
"165 387 CURVE SMOOTH",
"165 147 OFFCURVE",
"307 -15 OFFCURVE",
"492 -15 CURVE SMOOTH"
);
},
{
closed = 1;
nodes = (
"353 44 OFFCURVE",
"240 178 OFFCURVE",
"240 394 CURVE SMOOTH",
"240 580 OFFCURVE",
"324 899 OFFCURVE",
"570 899 CURVE SMOOTH",
"692 899 OFFCURVE",
"826 821 OFFCURVE",
"826 652 CURVE SMOOTH",
"826 637 OFFCURVE",
"825 642 OFFCURVE",
"824 629 CURVE SMOOTH",
"800 351 LINE SMOOTH",
"782 149 OFFCURVE",
"627 44 OFFCURVE",
"498 44 CURVE SMOOTH"
);
}
);
width = 1031;
},
{
layerId = "2146CDF3-509B-498B-BCC4-8BA41979C9D7";
paths = (
{
closed = 1;
nodes = (
"576 -35 OFFCURVE",
"669 22 OFFCURVE",
"735 147 CURVE",
"757 0 LINE",
"1000 0 LINE",
"1133 1384 LINE",
"832 1384 LINE",
"785 895 LINE",
"739 979 OFFCURVE",
"665 1020 OFFCURVE",
"562 1020 CURVE SMOOTH",
"320 1020 OFFCURVE",
"113 785 OFFCURVE",
"113 434 CURVE SMOOTH",
"113 151 OFFCURVE",
"268 -35 OFFCURVE",
"483 -35 CURVE SMOOTH"
);
},
{
closed = 1;
nodes = (
"465 268 OFFCURVE",
"410 349 OFFCURVE",
"410 469 CURVE SMOOTH",
"410 603 OFFCURVE",
"482 721 OFFCURVE",
"613 721 CURVE SMOOTH",
"698 721 OFFCURVE",
"748 647 OFFCURVE",
"747 532 CURVE SMOOTH",
"747 524 OFFCURVE",
"748 510 OFFCURVE",
"745 498 CURVE SMOOTH",
"740 469 LINE SMOOTH",
"729 352 OFFCURVE",
"637 268 OFFCURVE",
"562 268 CURVE SMOOTH"
);
}
);
width = 1149;
}
);
unicode = 0064;
},
{
glyphname = e;
lastChange = "2019-05-24 19:57:20 +0000";
layers = (
{
anchors = (
{
name = above;
position = "{464, 1014}";
}
);
layerId = "AD226DB4-BE97-401A-8A1F-FC26A063DFB1";
paths = (
{
closed = 1;
nodes = (
"622 -15 OFFCURVE",
"764 72 OFFCURVE",
"813 269 CURVE",
"741 269 LINE",
"710 124 OFFCURVE",
"609 45 OFFCURVE",
"470 45 CURVE SMOOTH",
"250 45 OFFCURVE",
"183 244 OFFCURVE",
"209 490 CURVE",
"160 462 LINE",
"821 462 LINE",
"833 518 OFFCURVE",
"839 583 OFFCURVE",
"839 630 CURVE SMOOTH",
"839 824 OFFCURVE",
"738 960 OFFCURVE",
"550 960 CURVE SMOOTH",
"329 960 OFFCURVE",
"168 773 OFFCURVE",
"138 465 CURVE SMOOTH",
"108 155 OFFCURVE",
"236 -15 OFFCURVE",
"461 -15 CURVE SMOOTH"
);
},
{
closed = 1;
nodes = (
"236 709 OFFCURVE",
"347 902 OFFCURVE",
"550 902 CURVE SMOOTH",
"749 902 OFFCURVE",
"794 717 OFFCURVE",
"766 509 CURVE",
"815 514 LINE",
"172 514 LINE",
"207 502 LINE"
);
}
);
width = 896;
},
{
anchors = (
{
name = above;
position = "{464, 1014}";
}
);
layerId = "2146CDF3-509B-498B-BCC4-8BA41979C9D7";
paths = (
{
closed = 1;
nodes = (
"730 -35 OFFCURVE",
"896 118 OFFCURVE",
"938 302 CURVE",
"642 302 LINE",
"622 251 OFFCURVE",
"579 229 OFFCURVE",
"535 229 CURVE SMOOTH",
"433 229 OFFCURVE",
"388 318 OFFCURVE",
"412 451 CURVE",
"363 409 LINE",
"946 409 LINE",
"951 433 OFFCURVE",
"957 450 OFFCURVE",
"964 478 CURVE SMOOTH",
"1000 745 OFFCURVE",
"902 1020 OFFCURVE",
"610 1020 CURVE SMOOTH",
"381 1020 OFFCURVE",
"155 825 OFFCURVE",
"125 498 CURVE SMOOTH",
"95 188 OFFCURVE",
"283 -35 OFFCURVE",
"511 -35 CURVE SMOOTH"
);
},
{
closed = 1;
nodes = (
"433 684 OFFCURVE",
"498 757 OFFCURVE",
"586 757 CURVE SMOOTH",
"696 757 OFFCURVE",
"708 653 OFFCURVE",
"694 564 CURVE",
"743 607 LINE",
"382 607 LINE",
"424 564 LINE"
);
}
);
width = 988;
}
);
unicode = 0065;
},
{
glyphname = f;
lastChange = "2019-05-24 19:57:14 +0000";
layers = (
{
layerId = "AD226DB4-BE97-401A-8A1F-FC26A063DFB1";
paths = (
{
closed = 1;
nodes = (
"341 885 LINE",
"260 0 LINE",
"320 0 LINE",
"407 885 LINE",
"602 885 LINE",
"605 939 LINE",
"410 939 LINE",
"428 1117 LINE SMOOTH",
"444 1276 OFFCURVE",
"521 1310 OFFCURVE",
"587 1310 CURVE SMOOTH",
"626 1310 OFFCURVE",
"669 1298 OFFCURVE",
"707 1278 CURVE",
"724 1339 LINE",
"682 1361 OFFCURVE",
"646 1367 OFFCURVE",
"610 1367 CURVE SMOOTH",
"482 1367 OFFCURVE",
"378 1291 OFFCURVE",
"362 1119 CURVE SMOOTH",
"346 939 LINE",
"193 939 LINE",
"190 885 LINE"
);
}
);
width = 575;
},
{
layerId = "2146CDF3-509B-498B-BCC4-8BA41979C9D7";
paths = (
{
closed = 1;
nodes = (
"242 773 LINE",
"169 0 LINE",
"471 0 LINE",
"538 773 LINE",
"681 773 LINE",
"704 991 LINE",
"561 991 LINE",
"567 1065 LINE SMOOTH",
"574 1115 OFFCURVE",
"610 1140 OFFCURVE",
"651 1140 CURVE SMOOTH",
"677 1140 OFFCURVE",
"702 1134 OFFCURVE",
"727 1127 CURVE",
"809 1378 LINE",
"742 1388 OFFCURVE",
"661 1400 OFFCURVE",
"592 1400 CURVE SMOOTH",
"443 1400 OFFCURVE",
"293 1304 OFFCURVE",
"271 1067 CURVE SMOOTH",
"261 991 LINE",
"147 991 LINE",
"124 773 LINE"
);
}
);
width = 706;
}
);
unicode = 0066;
},
{
glyphname = g;
lastChange = "2019-05-24 19:57:20 +0000";
layers = (
{
layerId = "AD226DB4-BE97-401A-8A1F-FC26A063DFB1";
paths = (
{
closed = 1;
nodes = (
"728 -481 OFFCURVE",
"939 -311 OFFCURVE",
"952 -138 CURVE SMOOTH",
"961 -25 OFFCURVE",
"881 61 OFFCURVE",
"747 61 CURVE SMOOTH",
"369 61 LINE SMOOTH",
"224 61 OFFCURVE",
"190 113 OFFCURVE",
"200 184 CURVE",
"204 265 OFFCURVE",
"267 314 OFFCURVE",
"328 322 CURVE",
"378 281 OFFCURVE",
"447 258 OFFCURVE",
"521 258 CURVE SMOOTH",
"711 258 OFFCURVE",
"862 408 OFFCURVE",
"881 615 CURVE SMOOTH",
"889 699 OFFCURVE",
"873 769 OFFCURVE",
"841 825 CURVE",
"860 953 OFFCURVE",
"924 1006 OFFCURVE",
"1028 1006 CURVE",
"1056 1086 LINE",
"912 1086 OFFCURVE",
"842 998 OFFCURVE",
"812 873 CURVE",
"762 930 OFFCURVE",
"685 960 OFFCURVE",
"596 960 CURVE SMOOTH",
"405 960 OFFCURVE",
"264 820 OFFCURVE",
"244 615 CURVE SMOOTH",
"234 511 OFFCURVE",
"258 422 OFFCURVE",
"305 360 CURVE",
"221 343 OFFCURVE",
"145 281 OFFCURVE",
"137 185 CURVE",
"127 117 OFFCURVE",
"161 55 OFFCURVE",
"231 23 CURVE",
"126 -16 OFFCURVE",
"62 -95 OFFCURVE",
"56 -199 CURVE SMOOTH",
"46 -363 OFFCURVE",
"184 -481 OFFCURVE",
"431 -481 CURVE SMOOTH"
);
},
{
closed = 1;
nodes = (
"206 -422 OFFCURVE",
"116 -318 OFFCURVE",
"122 -200 CURVE SMOOTH",
"128 -89 OFFCURVE",
"219 3 OFFCURVE",
"348 3 CURVE SMOOTH",
"362 3 LINE",
"743 3 LINE SMOOTH",
"847 3 OFFCURVE",
"890 -66 OFFCURVE",
"884 -142 CURVE SMOOTH",
"872 -292 OFFCURVE",
"672 -422 OFFCURVE",
"426 -422 CURVE SMOOTH"
);
},
{
closed = 1;
nodes = (
"382 316 OFFCURVE",
"290 445 OFFCURVE",
"307 615 CURVE SMOOTH",
"324 783 OFFCURVE",
"436 901 OFFCURVE",
"590 901 CURVE SMOOTH",
"744 901 OFFCURVE",
"837 782 OFFCURVE",
"821 615 CURVE SMOOTH",
"805 444 OFFCURVE",
"684 316 OFFCURVE",
"533 316 CURVE SMOOTH"
);
}
);
width = 981;
},
{
layerId = "2146CDF3-509B-498B-BCC4-8BA41979C9D7";
paths = (
{
closed = 1;
nodes = (
"785 -514 OFFCURVE",
"1008 -291 OFFCURVE",
"1031 -59 CURVE SMOOTH",
"1047 125 OFFCURVE",
"927 192 OFFCURVE",
"714 192 CURVE SMOOTH",
"468 192 LINE SMOOTH",
"394 192 OFFCURVE",
"360 218 OFFCURVE",
"364 263 CURVE",
"368 298 OFFCURVE",
"392 320 OFFCURVE",
"419 335 CURVE",
"463 327 OFFCURVE",
"505 324 OFFCURVE",
"553 324 CURVE SMOOTH",
"767 324 OFFCURVE",
"973 456 OFFCURVE",
"993 667 CURVE SMOOTH",
"1001 745 OFFCURVE",
"978 815 OFFCURVE",
"940 871 CURVE",
"945 920 OFFCURVE",
"1003 946 OFFCURVE",
"1100 946 CURVE",
"1135 1256 LINE",
"1003 1256 OFFCURVE",
"848 1149 OFFCURVE",
"818 978 CURVE",
"756 1002 OFFCURVE",
"686 1020 OFFCURVE",
"615 1020 CURVE SMOOTH",
"400 1020 OFFCURVE",
"192 886 OFFCURVE",
"172 667 CURVE SMOOTH",
"162 563 OFFCURVE",
"198 482 OFFCURVE",
"266 420 CURVE",
"175 389 OFFCURVE",
"118 320 OFFCURVE",
"110 231 CURVE",
"107 156 OFFCURVE",
"141 94 OFFCURVE",
"198 43 CURVE",
"87 37 OFFCURVE",
"0 -35 OFFCURVE",
"-20 -160 CURVE SMOOTH",
"-34 -339 OFFCURVE",
"133 -514 OFFCURVE",
"473 -514 CURVE SMOOTH"
);
},
{
closed = 1;
nodes = (
"364 -252 OFFCURVE",
"265 -219 OFFCURVE",
"277 -140 CURVE SMOOTH",
"283 -70 OFFCURVE",
"340 -42 OFFCURVE",
"433 -36 CURVE SMOOTH",
"447 -36 LINE",
"691 -36 LINE SMOOTH",
"719 -36 OFFCURVE",
"743 -50 OFFCURVE",
"735 -82 CURVE SMOOTH",
"728 -166 OFFCURVE",
"645 -252 OFFCURVE",
"502 -252 CURVE SMOOTH"
);
},
{
closed = 1;
nodes = (
"489 552 OFFCURVE",
"460 602 OFFCURVE",
"466 667 CURVE SMOOTH",
"473 747 OFFCURVE",
"512 796 OFFCURVE",
"593 796 CURVE SMOOTH",
"682 796 OFFCURVE",
"700 748 OFFCURVE",
"696 667 CURVE SMOOTH",
"687 602 OFFCURVE",
"662 552 OFFCURVE",
"575 552 CURVE SMOOTH"
);
}
);
width = 1086;
}
);
unicode = 0067;
},
{
glyphname = h;
lastChange = "2019-05-24 19:57:20 +0000";
layers = (
{
layerId = "AD226DB4-BE97-401A-8A1F-FC26A063DFB1";
paths = (
{
closed = 1;
nodes = (
"263 0 LINE",
"301 419 LINE",
"301 417 OFFCURVE",
"301 417 OFFCURVE",
"301 415 CURVE",
"315 702 OFFCURVE",
"432 899 OFFCURVE",
"640 899 CURVE SMOOTH",
"802 899 OFFCURVE",
"897 779 OFFCURVE",
"876 555 CURVE SMOOTH",
"824 0 LINE",
"884 0 LINE",
"938 555 LINE SMOOTH",
"963 817 OFFCURVE",
"841 960 OFFCURVE",
"651 960 CURVE SMOOTH",
"504 960 OFFCURVE",
"394 874 OFFCURVE",
"331 741 CURVE",
"389 1351 LINE",
"325 1351 LINE",
"197 0 LINE"
);
}
);
width = 1051;
},
{
layerId = "2146CDF3-509B-498B-BCC4-8BA41979C9D7";
paths = (
{
closed = 1;
nodes = (
"447 0 LINE",
"498 518 LINE",
"498 522 OFFCURVE",
"498 522 OFFCURVE",
"498 527 CURVE",
"537 677 OFFCURVE",
"623 721 OFFCURVE",
"692 721 CURVE SMOOTH",
"754 721 OFFCURVE",
"798 674 OFFCURVE",
"785 575 CURVE SMOOTH",
"733 0 LINE",
"1035 0 LINE",
"1087 575 LINE SMOOTH",
"1109 832 OFFCURVE",
"1030 1020 OFFCURVE",
"800 1020 CURVE SMOOTH",
"700 1020 OFFCURVE",
"605 974 OFFCURVE",
"528 859 CURVE",
"580 1384 LINE",
"279 1384 LINE",
"151 0 LINE"
);
}
);
width = 1163;
}
);
unicode = 0068;
},
{
glyphname = i;
lastChange = "2019-05-24 19:57:20 +0000";
layers = (
{
layerId = "AD226DB4-BE97-401A-8A1F-FC26A063DFB1";
paths = (
{
closed = 1;
nodes = (
"260 0 LINE",
"348 941 LINE",
"282 941 LINE",
"194 0 LINE"
);
},
{
closed = 1;
nodes = (
"374 1219 OFFCURVE",
"399 1240 OFFCURVE",
"403 1273 CURVE SMOOTH",
"406 1304 OFFCURVE",
"389 1332 OFFCURVE",
"356 1332 CURVE SMOOTH",
"319 1332 OFFCURVE",
"302 1297 OFFCURVE",
"300 1273 CURVE SMOOTH",
"297 1244 OFFCURVE",
"313 1219 OFFCURVE",
"345 1219 CURVE SMOOTH"
);
}
);
width = 482;
},
{
layerId = "2146CDF3-509B-498B-BCC4-8BA41979C9D7";
paths = (
{
closed = 1;
nodes = (
"477 0 LINE",
"572 993 LINE",
"276 993 LINE",
"181 0 LINE"
);
},
{
closed = 1;
nodes = (
"540 1107 OFFCURVE",
"614 1175 OFFCURVE",
"625 1293 CURVE SMOOTH",
"632 1407 OFFCURVE",
"574 1477 OFFCURVE",
"463 1477 CURVE SMOOTH",
"355 1477 OFFCURVE",
"279 1409 OFFCURVE",
"268 1293 CURVE SMOOTH",
"261 1174 OFFCURVE",
"318 1107 OFFCURVE",
"431 1107 CURVE SMOOTH"
);
}
);
width = 652;
}
);
unicode = 0069;
},
{
glyphname = j;
lastChange = "2019-05-24 19:57:20 +0000";
layers = (
{
layerId = "AD226DB4-BE97-401A-8A1F-FC26A063DFB1";
paths = (
{
closed = 1;
nodes = (
"143 -481 OFFCURVE",
"267 -392 OFFCURVE",
"290 -154 CURVE SMOOTH",
"394 943 LINE",
"328 943 LINE",
"221 -158 LINE",
"201 -340 OFFCURVE",
"131 -417 OFFCURVE",
"12 -417 CURVE SMOOTH",
"-62 -417 OFFCURVE",
"-120 -387 OFFCURVE",
"-192 -328 CURVE",
"-207 -394 LINE",
"-133 -453 OFFCURVE",
"-60 -481 OFFCURVE",
"13 -481 CURVE SMOOTH"
);
},
{
closed = 1;
nodes = (
"420 1219 OFFCURVE",
"446 1246 OFFCURVE",
"450 1273 CURVE SMOOTH",
"455 1307 OFFCURVE",
"432 1332 OFFCURVE",
"401 1332 CURVE SMOOTH",
"370 1332 OFFCURVE",
"346 1308 OFFCURVE",
"342 1273 CURVE SMOOTH",
"338 1238 OFFCURVE",
"362 1219 OFFCURVE",
"388 1219 CURVE SMOOTH"
);
}
);
width = 527;
},
{
layerId = "2146CDF3-509B-498B-BCC4-8BA41979C9D7";
paths = (
{
closed = 1;
nodes = (
"313 -514 OFFCURVE",
"432 -397 OFFCURVE",
"460 -94 CURVE SMOOTH",
"564 995 LINE",
"268 995 LINE",
"169 -86 LINE",
"158 -195 OFFCURVE",
"116 -226 OFFCURVE",
"45 -226 CURVE SMOOTH",
"-7 -226 OFFCURVE",
"-86 -203 OFFCURVE",
"-132 -183 CURVE",
"-161 -466 LINE",
"-81 -492 OFFCURVE",
"-7 -514 OFFCURVE",
"97 -514 CURVE SMOOTH"
);
},
{
closed = 1;
nodes = (
"537 1107 OFFCURVE",
"607 1174 OFFCURVE",
"614 1293 CURVE SMOOTH",
"624 1406 OFFCURVE",
"568 1477 OFFCURVE",
"457 1477 CURVE SMOOTH",
"346 1477 OFFCURVE",
"270 1406 OFFCURVE",
"263 1293 CURVE SMOOTH",
"252 1176 OFFCURVE",
"314 1107 OFFCURVE",
"422 1107 CURVE SMOOTH"
);
}
);
width = 645;
}
);
unicode = 006A;
},
{
glyphname = k;
lastChange = "2019-05-24 19:57:20 +0000";
layers = (
{
layerId = "AD226DB4-BE97-401A-8A1F-FC26A063DFB1";
paths = (
{
closed = 1;
nodes = (
"875 0 LINE",
"505 583 LINE",
"943 939 LINE",
"843 939 LINE",
"311 507 LINE",
"389 1351 LINE",
"325 1351 LINE",
"197 0 LINE",
"263 0 LINE",
"303 419 LINE",
"449 541 LINE",
"789 0 LINE"
);
}
);
width = 996;
},
{
layerId = "2146CDF3-509B-498B-BCC4-8BA41979C9D7";
paths = (
{
closed = 1;
nodes = (
"1125 0 LINE",
"787 629 LINE",
"1200 991 LINE",
"804 991 LINE",
"514 704 LINE",
"580 1384 LINE",
"279 1384 LINE",
"151 0 LINE",
"447 0 LINE",
"481 367 LINE",
"561 436 LINE",
"769 0 LINE"
);
}
);
width = 1056;
}
);
unicode = 006B;
},
{
glyphname = l;
lastChange = "2019-05-24 19:57:20 +0000";
layers = (
{
layerId = "AD226DB4-BE97-401A-8A1F-FC26A063DFB1";
paths = (
{
closed = 1;
nodes = (
"263 0 LINE",
"389 1351 LINE",
"325 1351 LINE",
"197 0 LINE"
);
}
);
width = 456;
},
{
layerId = "2146CDF3-509B-498B-BCC4-8BA41979C9D7";
paths = (
{
closed = 1;
nodes = (
"447 0 LINE",
"580 1384 LINE",
"279 1384 LINE",
"151 0 LINE"
);
}
);
width = 601;
}
);
unicode = 006C;
},
{
glyphname = m;
lastChange = "2019-05-24 19:57:20 +0000";
layers = (
{
layerId = "AD226DB4-BE97-401A-8A1F-FC26A063DFB1";
paths = (
{
closed = 1;
nodes = (
"259 0 LINE",
"303 472 LINE SMOOTH",
"326 721 OFFCURVE",
"439 899 OFFCURVE",
"635 899 CURVE SMOOTH",
"794 899 OFFCURVE",
"893 783 OFFCURVE",
"872 555 CURVE SMOOTH",
"820 0 LINE",
"880 0 LINE",
"924 490 LINE",
"958 728 OFFCURVE",
"1049 899 OFFCURVE",
"1245 899 CURVE SMOOTH",
"1413 899 OFFCURVE",
"1504 773 OFFCURVE",
"1483 555 CURVE SMOOTH",
"1429 0 LINE",
"1489 0 LINE",
"1541 555 LINE",
"1569 819 OFFCURVE",
"1445 960 OFFCURVE",
"1255 960 CURVE SMOOTH",
"1107 960 OFFCURVE",
"994 875 OFFCURVE",
"930 709 CURVE",
"902 871 OFFCURVE",
"799 960 OFFCURVE",
"647 960 CURVE SMOOTH",
"500 960 OFFCURVE",
"389 876 OFFCURVE",
"325 731 CURVE",
"327 799 OFFCURVE",
"333 870 OFFCURVE",
"336 939 CURVE",
"281 939 LINE",
"193 0 LINE"
);
}
);
width = 1654;
},
{
layerId = "2146CDF3-509B-498B-BCC4-8BA41979C9D7";
paths = (
{
closed = 1;
nodes = (
"450 0 LINE",
"487 412 LINE SMOOTH",
"509 637 OFFCURVE",
"603 721 OFFCURVE",
"695 721 CURVE SMOOTH",
"757 721 OFFCURVE",
"800 672 OFFCURVE",
"787 575 CURVE SMOOTH",
"735 0 LINE",
"1038 0 LINE",
"1075 411 LINE",
"1088 640 OFFCURVE",
"1176 721 OFFCURVE",
"1267 721 CURVE SMOOTH",
"1327 721 OFFCURVE",
"1368 675 OFFCURVE",
"1362 575 CURVE SMOOTH",
"1311 0 LINE",
"1614 0 LINE",
"1666 575 LINE",
"1687 832 OFFCURVE",
"1613 1020 OFFCURVE",
"1382 1020 CURVE SMOOTH",
"1262 1020 OFFCURVE",
"1149 973 OFFCURVE",
"1069 834 CURVE",
"1028 946 OFFCURVE",
"945 1020 OFFCURVE",
"802 1020 CURVE SMOOTH",
"696 1020 OFFCURVE",
"599 967 OFFCURVE",
"522 849 CURVE",
"518 898 OFFCURVE",
"511 942 OFFCURVE",
"506 991 CURVE",
"248 991 LINE",
"154 0 LINE"
);
}
);
width = 1739;
}
);
unicode = 006D;
},
{
glyphname = n;
lastChange = "2019-05-24 19:57:20 +0000";
layers = (
{
anchors = (
{
name = above;
position = "{548, 1014}";
}
);
layerId = "AD226DB4-BE97-401A-8A1F-FC26A063DFB1";
paths = (
{
closed = 1;
nodes = (
"259 0 LINE",
"303 472 LINE SMOOTH",
"326 721 OFFCURVE",
"439 899 OFFCURVE",
"635 899 CURVE SMOOTH",
"794 899 OFFCURVE",
"893 783 OFFCURVE",
"872 555 CURVE SMOOTH",
"820 0 LINE",
"880 0 LINE",
"932 555 LINE",
"960 819 OFFCURVE",
"838 960 OFFCURVE",
"647 960 CURVE SMOOTH",
"500 960 OFFCURVE",
"389 876 OFFCURVE",
"325 731 CURVE",
"336 939 LINE",
"281 939 LINE",
"193 0 LINE"
);
}
);
width = 1047;
},
{
anchors = (
{
name = above;
position = "{548, 1014}";
}
);
layerId = "2146CDF3-509B-498B-BCC4-8BA41979C9D7";
paths = (
{
closed = 1;
nodes = (
"450 0 LINE",
"487 412 LINE SMOOTH",
"509 637 OFFCURVE",
"603 721 OFFCURVE",
"695 721 CURVE SMOOTH",
"757 721 OFFCURVE",
"800 672 OFFCURVE",
"787 575 CURVE SMOOTH",
"735 0 LINE",
"1038 0 LINE",
"1090 575 LINE",
"1111 832 OFFCURVE",
"1032 1020 OFFCURVE",
"802 1020 CURVE SMOOTH",
"696 1020 OFFCURVE",
"599 967 OFFCURVE",
"522 849 CURVE",
"506 991 LINE",
"248 991 LINE",
"154 0 LINE"
);
}
);
width = 1165;
}
);
unicode = 006E;
},
{
glyphname = o;
lastChange = "2019-05-24 19:57:20 +0000";
layers = (
{
anchors = (
{
name = above;
position = "{492, 1014}";
}
);
layerId = "AD226DB4-BE97-401A-8A1F-FC26A063DFB1";
paths = (
{
closed = 1;
nodes = (
"697 -15 OFFCURVE",
"863 163 OFFCURVE",
"892 471 CURVE SMOOTH",
"921 774 OFFCURVE",
"794 960 OFFCURVE",
"562 960 CURVE SMOOTH",
"334 960 OFFCURVE",
"169 781 OFFCURVE",
"138 471 CURVE SMOOTH",
"107 160 OFFCURVE",
"240 -15 OFFCURVE",
"468 -15 CURVE SMOOTH"
);
},
{
closed = 1;
nodes = (
"259 45 OFFCURVE",
"189 224 OFFCURVE",
"212 471 CURVE SMOOTH",
"236 729 OFFCURVE",
"345 898 OFFCURVE",
"553 898 CURVE SMOOTH",
"764 898 OFFCURVE",
"849 724 OFFCURVE",
"824 471 CURVE SMOOTH",
"799 219 OFFCURVE",
"680 45 OFFCURVE",
"471 45 CURVE SMOOTH"
);
}
);
width = 943;
},
{
anchors = (
{
name = above;
position = "{492, 1014}";
}
);
layerId = "2146CDF3-509B-498B-BCC4-8BA41979C9D7";
paths = (
{
closed = 1;
nodes = (
"772 -35 OFFCURVE",
"994 131 OFFCURVE",
"1031 491 CURVE SMOOTH",
"1065 863 OFFCURVE",
"868 1020 OFFCURVE",
"628 1020 CURVE SMOOTH",
"385 1020 OFFCURVE",
"158 861 OFFCURVE",
"125 491 CURVE SMOOTH",
"93 132 OFFCURVE",
"283 -35 OFFCURVE",
"532 -35 CURVE SMOOTH"
);
},
{
closed = 1;
nodes = (
"471 255 OFFCURVE",
"401 317 OFFCURVE",
"420 491 CURVE SMOOTH",
"438 669 OFFCURVE",
"533 734 OFFCURVE",
"614 734 CURVE SMOOTH",
"692 734 OFFCURVE",
"750 671 OFFCURVE",
"733 491 CURVE SMOOTH",
"715 318 OFFCURVE",
"627 255 OFFCURVE",
"548 255 CURVE SMOOTH"
);
}
);
width = 1061;
}
);
unicode = 006F;
},
{
glyphname = p;
lastChange = "2019-05-24 19:57:20 +0000";
layers = (
{
layerId = "AD226DB4-BE97-401A-8A1F-FC26A063DFB1";
paths = (
{
closed = 1;
nodes = (
"217 -466 LINE",
"278 157 LINE",
"322 48 OFFCURVE",
"414 -15 OFFCURVE",
"530 -15 CURVE SMOOTH",
"729 -15 OFFCURVE",
"921 170 OFFCURVE",
"949 473 CURVE SMOOTH",
"977 777 OFFCURVE",
"821 960 OFFCURVE",
"626 960 CURVE SMOOTH",
"509 960 OFFCURVE",
"404 894 OFFCURVE",
"334 777 CURVE",
"336 830 OFFCURVE",
"336 886 OFFCURVE",
"338 939 CURVE",
"285 939 LINE",
"151 -466 LINE"
);
},
{
closed = 1;
nodes = (
"416 44 OFFCURVE",
"277 160 OFFCURVE",
"296 384 CURVE SMOOTH",
"313 556 LINE SMOOTH",
"335 783 OFFCURVE",
"479 899 OFFCURVE",
"620 899 CURVE SMOOTH",
"780 899 OFFCURVE",
"903 748 OFFCURVE",
"877 473 CURVE SMOOTH",
"850 193 OFFCURVE",
"693 44 OFFCURVE",
"546 44 CURVE SMOOTH"
);
}
);
width = 1040;
},
{
layerId = "2146CDF3-509B-498B-BCC4-8BA41979C9D7";
paths = (
{
closed = 1;
nodes = (
"401 -479 LINE",
"448 32 LINE",
"492 -18 OFFCURVE",
"553 -35 OFFCURVE",
"643 -35 CURVE SMOOTH",
"866 -35 OFFCURVE",
"1090 157 OFFCURVE",
"1121 493 CURVE SMOOTH",
"1152 827 OFFCURVE",
"967 1020 OFFCURVE",
"754 1020 CURVE SMOOTH",
"659 1020 OFFCURVE",
"568 979 OFFCURVE",
"504 876 CURVE",
"500 915 OFFCURVE",
"494 952 OFFCURVE",
"489 991 CURVE",
"246 991 LINE",
"105 -479 LINE"
);
},
{
closed = 1;
nodes = (
"504 268 OFFCURVE",
"477 324 OFFCURVE",
"485 397 CURVE SMOOTH",
"501 556 LINE SMOOTH",
"509 655 OFFCURVE",
"578 721 OFFCURVE",
"670 721 CURVE SMOOTH",
"780 721 OFFCURVE",
"838 630 OFFCURVE",
"825 493 CURVE SMOOTH",
"809 335 OFFCURVE",
"696 268 OFFCURVE",
"617 268 CURVE SMOOTH"
);
}
);
width = 1132;
}
);
unicode = 0070;
},
{
glyphname = q;
lastChange = "2019-05-24 19:57:20 +0000";
layers = (
{
layerId = "AD226DB4-BE97-401A-8A1F-FC26A063DFB1";
paths = (
{
closed = 1;
nodes = (
"908 -413 LINE",
"796 -368 OFFCURVE",
"772 -329 OFFCURVE",
"787 -175 CURVE SMOOTH",
"893 939 LINE",
"838 939 LINE",
"809 772 LINE",
"773 891 OFFCURVE",
"678 960 OFFCURVE",
"559 960 CURVE SMOOTH",
"366 960 OFFCURVE",
"173 777 OFFCURVE",
"143 473 CURVE SMOOTH",
"114 173 OFFCURVE",
"267 -15 OFFCURVE",
"462 -15 CURVE SMOOTH",
"584 -15 OFFCURVE",
"695 59 OFFCURVE",
"757 182 CURVE",
"725 -174 LINE",
"705 -355 OFFCURVE",
"740 -435 OFFCURVE",
"873 -481 CURVE"
);
},
{
closed = 1;
nodes = (
"319 44 OFFCURVE",
"189 189 OFFCURVE",
"216 473 CURVE SMOOTH",
"243 751 OFFCURVE",
"397 899 OFFCURVE",
"548 899 CURVE SMOOTH",
"669 899 OFFCURVE",
"790 806 OFFCURVE",
"801 619 CURVE",
"778 384 LINE SMOOTH",
"757 164 OFFCURVE",
"612 44 OFFCURVE",
"472 44 CURVE SMOOTH"
);
}
);
width = 1002;
},
{
layerId = "2146CDF3-509B-498B-BCC4-8BA41979C9D7";
paths = (
{
closed = 1;
nodes = (
"1078 -282 LINE",
"1003 -257 OFFCURVE",
"980 -232 OFFCURVE",
"990 -136 CURVE SMOOTH",
"1096 991 LINE",
"910 991 LINE",
"829 851 LINE",
"778 971 OFFCURVE",
"687 1020 OFFCURVE",
"587 1020 CURVE SMOOTH",
"372 1020 OFFCURVE",
"153 827 OFFCURVE",
"123 493 CURVE SMOOTH",
"89 156 OFFCURVE",
"281 -35 OFFCURVE",
"506 -35 CURVE SMOOTH",
"612 -35 OFFCURVE",
"668 13 OFFCURVE",
"711 97 CURVE",
"692 -108 LINE",
"672 -328 OFFCURVE",
"753 -455 OFFCURVE",
"978 -514 CURVE"
);
},
{
closed = 1;
nodes = (
"498 268 OFFCURVE",
"401 337 OFFCURVE",
"418 493 CURVE SMOOTH",
"431 629 OFFCURVE",
"506 721 OFFCURVE",
"620 721 CURVE SMOOTH",
"721 721 OFFCURVE",
"777 642 OFFCURVE",
"749 520 CURVE",
"737 397 LINE SMOOTH",
"730 320 OFFCURVE",
"654 268 OFFCURVE",
"580 268 CURVE SMOOTH"
);
}
);
width = 1153;
}
);
unicode = 0071;
},
{
glyphname = r;
lastChange = "2019-05-24 19:57:20 +0000";
layers = (
{
layerId = "AD226DB4-BE97-401A-8A1F-FC26A063DFB1";
paths = (
{
closed = 1;
nodes = (
"259 0 LINE",
"296 439 LINE SMOOTH",
"318 698 OFFCURVE",
"381 898 OFFCURVE",
"549 898 CURVE SMOOTH",
"590 898 OFFCURVE",
"632 886 OFFCURVE",
"672 869 CURVE",
"690 934 LINE",
"651 953 OFFCURVE",
"605 957 OFFCURVE",
"574 957 CURVE SMOOTH",
"457 957 OFFCURVE",
"384 900 OFFCURVE",
"329 769 CURVE",
"347 941 LINE",
"281 941 LINE",
"193 0 LINE"
);
}
);
width = 619;
},
{
layerId = "2146CDF3-509B-498B-BCC4-8BA41979C9D7";
paths = (
{
closed = 1;
nodes = (
"450 0 LINE",
"492 419 LINE SMOOTH",
"510 605 OFFCURVE",
"606 668 OFFCURVE",
"726 668 CURVE SMOOTH",
"751 668 OFFCURVE",
"783 669 OFFCURVE",
"811 666 CURVE",
"841 1000 LINE",
"825 1003 OFFCURVE",
"811 1009 OFFCURVE",
"790 1009 CURVE SMOOTH",
"698 1009 OFFCURVE",
"596 937 OFFCURVE",
"526 789 CURVE",
"544 993 LINE",
"248 993 LINE",
"154 0 LINE"
);
}
);
width = 822;
}
);
unicode = 0072;
},
{
glyphname = s;
lastChange = "2019-05-24 19:57:20 +0000";
layers = (
{
layerId = "AD226DB4-BE97-401A-8A1F-FC26A063DFB1";
paths = (
{
closed = 1;
nodes = (
"688 -15 OFFCURVE",
"815 99 OFFCURVE",
"832 239 CURVE SMOOTH",
"847 366 OFFCURVE",
"762 441 OFFCURVE",
"613 489 CURVE",
"483 529 LINE",
"361 569 OFFCURVE",
"288 628 OFFCURVE",
"301 725 CURVE SMOOTH",
"313 810 OFFCURVE",
"386 902 OFFCURVE",
"556 902 CURVE SMOOTH",
"684 902 OFFCURVE",
"772 849 OFFCURVE",
"777 743 CURVE",
"848 743 LINE",
"853 868 OFFCURVE",
"741 960 OFFCURVE",
"557 960 CURVE SMOOTH",
"365 960 OFFCURVE",
"248 860 OFFCURVE",
"233 720 CURVE SMOOTH",
"219 593 OFFCURVE",
"296 509 OFFCURVE",
"447 469 CURVE",
"586 422 LINE",
"711 387 OFFCURVE",
"778 335 OFFCURVE",
"766 239 CURVE SMOOTH",
"751 119 OFFCURVE",
"632 41 OFFCURVE",
"485 41 CURVE SMOOTH",
"330 41 OFFCURVE",
"216 127 OFFCURVE",
"222 267 CURVE",
"154 267 LINE",
"150 121 OFFCURVE",
"245 -15 OFFCURVE",
"477 -15 CURVE SMOOTH"
);
}
);
width = 944;
},
{
layerId = "2146CDF3-509B-498B-BCC4-8BA41979C9D7";
paths = (
{
closed = 1;
nodes = (
"744 -35 OFFCURVE",
"902 131 OFFCURVE",
"917 291 CURVE SMOOTH",
"930 412 OFFCURVE",
"848 498 OFFCURVE",
"744 541 CURVE",
"503 654 LINE",
"484 659 OFFCURVE",
"454 680 OFFCURVE",
"459 705 CURVE SMOOTH",
"464 748 OFFCURVE",
"509 763 OFFCURVE",
"568 763 CURVE SMOOTH",
"626 763 OFFCURVE",
"656 730 OFFCURVE",
"652 691 CURVE",
"927 691 LINE",
"941 879 OFFCURVE",
"836 1020 OFFCURVE",
"575 1020 CURVE SMOOTH",
"342 1020 OFFCURVE",
"167 911 OFFCURVE",
"147 726 CURVE SMOOTH",
"133 606 OFFCURVE",
"199 508 OFFCURVE",
"316 449 CURVE",
"526 356 LINE",
"559 339 OFFCURVE",
"587 327 OFFCURVE",
"584 291 CURVE SMOOTH",
"580 260 OFFCURVE",
"551 225 OFFCURVE",
"461 225 CURVE SMOOTH",
"397 225 OFFCURVE",
"355 250 OFFCURVE",
"367 313 CURVE",
"94 313 LINE",
"62 75 OFFCURVE",
"261 -35 OFFCURVE",
"465 -35 CURVE SMOOTH"
);
}
);
width = 950;
}
);
unicode = 0073;
},
{
glyphname = t;
lastChange = "2019-05-24 19:57:20 +0000";
layers = (
{
layerId = "AD226DB4-BE97-401A-8A1F-FC26A063DFB1";
paths = (
{
closed = 1;
nodes = (
"484 -15 OFFCURVE",
"542 -2 OFFCURVE",
"604 32 CURVE",
"600 86 LINE",
"540 60 OFFCURVE",
"487 45 OFFCURVE",
"431 45 CURVE SMOOTH",
"339 45 OFFCURVE",
"291 105 OFFCURVE",
"302 220 CURVE SMOOTH",
"368 905 LINE",
"319 885 LINE",
"668 885 LINE",
"676 939 LINE",
"326 939 LINE",
"366 894 LINE",
"400 1215 LINE",
"334 1215 LINE",
"300 894 LINE",
"350 939 LINE",
"154 939 LINE",
"142 885 LINE",
"347 885 LINE",
"306 905 LINE",
"244 224 LINE SMOOTH",
"228 62 OFFCURVE",
"300 -15 OFFCURVE",
"429 -15 CURVE SMOOTH"
);
}
);
width = 639;
},
{
layerId = "2146CDF3-509B-498B-BCC4-8BA41979C9D7";
paths = (
{
closed = 1;
nodes = (
"558 -35 OFFCURVE",
"621 -8 OFFCURVE",
"695 19 CURVE",
"672 250 LINE",
"619 230 OFFCURVE",
"584 223 OFFCURVE",
"561 223 CURVE SMOOTH",
"501 223 OFFCURVE",
"478 248 OFFCURVE",
"485 311 CURVE SMOOTH",
"532 833 LINE",
"483 780 LINE",
"728 780 LINE",
"748 991 LINE",
"504 991 LINE",
"545 946 LINE",
"570 1235 LINE",
"274 1235 LINE",
"249 946 LINE",
"298 991 LINE",
"148 991 LINE",
"129 780 LINE",
"275 780 LINE",
"234 833 LINE",
"184 296 LINE SMOOTH",
"164 68 OFFCURVE",
"304 -35 OFFCURVE",
"473 -35 CURVE SMOOTH"
);
}
);
width = 751;
}
);
unicode = 0074;
},
{
glyphname = u;
lastChange = "2019-05-24 19:57:20 +0000";
layers = (
{
anchors = (
{
name = above;
position = "{542, 1014}";
}
);
layerId = "AD226DB4-BE97-401A-8A1F-FC26A063DFB1";
paths = (
{
closed = 1;
nodes = (
"617 -18 OFFCURVE",
"734 69 OFFCURVE",
"806 207 CURVE",
"786 0 LINE",
"849 0 LINE",
"939 941 LINE",
"873 941 LINE",
"829 472 LINE SMOOTH",
"809 252 OFFCURVE",
"683 46 OFFCURVE",
"486 46 CURVE SMOOTH",
"317 46 OFFCURVE",
"240 148 OFFCURVE",
"263 345 CURVE SMOOTH",
"316 941 LINE",
"250 941 LINE",
"195 346 LINE",
"177 115 OFFCURVE",
"273 -18 OFFCURVE",
"476 -18 CURVE SMOOTH"
);
}
);
width = 1049;
},
{
anchors = (
{
name = above;
position = "{542, 1014}";
}
);
layerId = "2146CDF3-509B-498B-BCC4-8BA41979C9D7";
paths = (
{
closed = 1;
nodes = (
"584 -18 OFFCURVE",
"674 30 OFFCURVE",
"740 155 CURVE",
"726 0 LINE",
"1027 0 LINE",
"1117 993 LINE",
"821 993 LINE",
"777 532 LINE SMOOTH",
"757 324 OFFCURVE",
"650 270 OFFCURVE",
"565 270 CURVE SMOOTH",
"508 270 OFFCURVE",
"470 312 OFFCURVE",
"473 397 CURVE SMOOTH",
"533 993 LINE",
"237 993 LINE",
"175 359 LINE",
"144 69 OFFCURVE",
"306 -18 OFFCURVE",
"482 -18 CURVE SMOOTH"
);
}
);
width = 1174;
}
);
unicode = 0075;
},
{
glyphname = v;
lastChange = "2019-05-24 19:57:20 +0000";
layers = (
{
layerId = "AD226DB4-BE97-401A-8A1F-FC26A063DFB1";
paths = (
{
closed = 1;
nodes = (
"402 0 LINE",
"469 0 LINE",
"916 939 LINE",
"848 939 LINE",
"446 90 LINE",
"199 939 LINE",
"131 939 LINE"
);
}
);
width = 876;
},
{
layerId = "2146CDF3-509B-498B-BCC4-8BA41979C9D7";
paths = (
{
closed = 1;
nodes = (
"317 0 LINE",
"653 0 LINE",
"1055 991 LINE",
"709 991 LINE",
"512 320 LINE",
"449 991 LINE",
"104 991 LINE"
);
}
);
width = 968;
}
);
unicode = 0076;
},
{
glyphname = w;
lastChange = "2019-05-24 19:57:14 +0000";
layers = (
{
layerId = "AD226DB4-BE97-401A-8A1F-FC26A063DFB1";
paths = (
{
closed = 1;
nodes = (
"325 0 LINE",
"384 0 LINE",
"688 766 LINE",
"855 0 LINE",
"914 0 LINE",
"1280 939 LINE",
"1214 939 LINE",
"891 93 LINE",
"722 901 LINE",
"682 901 LINE",
"367 107 LINE",
"198 939 LINE",
"131 939 LINE"
);
}
);
width = 1239;
},
{
layerId = "2146CDF3-509B-498B-BCC4-8BA41979C9D7";
paths = (
{
closed = 1;
nodes = (
"305 0 LINE",
"601 0 LINE",
"760 476 LINE",
"835 0 LINE",
"1131 0 LINE",
"1516 991 LINE",
"1220 991 LINE",
"1022 375 LINE",
"952 928 LINE",
"669 928 LINE",
"492 376 LINE",
"415 991 LINE",
"104 991 LINE"
);
}
);
width = 1436;
}
);
unicode = 0077;
},
{
glyphname = x;
lastChange = "2019-05-24 19:57:20 +0000";
layers = (
{
layerId = "AD226DB4-BE97-401A-8A1F-FC26A063DFB1";
paths = (
{
closed = 1;
nodes = (
"144 0 LINE",
"453 416 LINE",
"691 0 LINE",
"770 0 LINE",
"499 471 LINE",
"862 941 LINE",
"783 941 LINE",
"474 529 LINE",
"232 941 LINE",
"153 941 LINE",
"422 471 LINE",
"66 0 LINE"
);
}
);
width = 839;
},
{
layerId = "2146CDF3-509B-498B-BCC4-8BA41979C9D7";
paths = (
{
closed = 1;
nodes = (
"374 0 LINE",
"558 252 LINE",
"718 0 LINE",
"1079 0 LINE",
"775 491 LINE",
"1171 993 LINE",
"810 993 LINE",
"619 739 LINE",
"468 993 LINE",
"101 993 LINE",
"409 491 LINE",
"6 0 LINE"
);
}
);
width = 1089;
}
);
unicode = 0078;
},
{
glyphname = y;
lastChange = "2019-05-24 19:57:20 +0000";
layers = (
{
layerId = "AD226DB4-BE97-401A-8A1F-FC26A063DFB1";
paths = (
{
closed = 1;
nodes = (
"290 -481 OFFCURVE",
"379 -360 OFFCURVE",
"436 -205 CURVE SMOOTH",
"849 939 LINE",
"783 939 LINE",
"479 113 LINE",
"243 939 LINE",
"176 939 LINE",
"440 0 LINE",
"404 -102 LINE SMOOTH",
"362 -239 OFFCURVE",
"294 -417 OFFCURVE",
"160 -417 CURVE SMOOTH",
"94 -417 OFFCURVE",
"42 -393 OFFCURVE",
"-9 -330 CURVE",
"-17 -405 LINE",
"38 -453 OFFCURVE",
"89 -481 OFFCURVE",
"154 -481 CURVE SMOOTH"
);
}
);
width = 833;
},
{
layerId = "2146CDF3-509B-498B-BCC4-8BA41979C9D7";
paths = (
{
closed = 1;
nodes = (
"362 -514 OFFCURVE",
"478 -432 OFFCURVE",
"587 -159 CURVE SMOOTH",
"1052 991 LINE",
"750 991 LINE",
"531 363 LINE",
"440 991 LINE",
"97 991 LINE",
"355 0 LINE",
"319 -89 LINE SMOOTH",
"271 -200 OFFCURVE",
"215 -226 OFFCURVE",
"160 -226 CURVE SMOOTH",
"100 -226 OFFCURVE",
"36 -209 OFFCURVE",
"-29 -172 CURVE",
"-56 -457 LINE",
"32 -499 OFFCURVE",
"122 -514 OFFCURVE",
"214 -514 CURVE SMOOTH"
);
}
);
width = 951;
}
);
unicode = 0079;
},
{
glyphname = z;
lastChange = "2019-05-24 19:57:20 +0000";
layers = (
{
layerId = "AD226DB4-BE97-401A-8A1F-FC26A063DFB1";
paths = (
{
closed = 1;
nodes = (
"732 0 LINE",
"733 59 LINE",
"172 59 LINE",
"812 880 LINE",
"819 939 LINE",
"177 939 LINE",
"170 880 LINE",
"732 880 LINE",
"91 59 LINE",
"89 0 LINE"
);
}
);
width = 815;
},
{
layerId = "2146CDF3-509B-498B-BCC4-8BA41979C9D7";
paths = (
{
closed = 1;
nodes = (
"823 0 LINE",
"851 269 LINE",
"481 269 LINE",
"891 722 LINE",
"918 991 LINE",
"204 991 LINE",
"176 722 LINE",
"568 722 LINE",
"137 269 LINE",
"109 0 LINE"
);
}
);
width = 933;
}
);
unicode = 007A;
},
{
glyphname = A;
lastChange = "2019-05-24 19:57:20 +0000";
layers = (
{
anchors = (
{
name = above;
position = "{522, 1270}";
}
);
layerId = "AD226DB4-BE97-401A-8A1F-FC26A063DFB1";
paths = (
{
closed = 1;
nodes = (
"122 0 LINE",
"270 363 LINE",
"739 363 LINE",
"816 0 LINE",
"879 0 LINE",
"622 1215 LINE",
"547 1215 LINE",
"53 0 LINE"
);
},
{
closed = 1;
nodes = (
"574 1118 LINE",
"722 429 LINE",
"294 429 LINE"
);
}
);
width = 934;
},
{
anchors = (
{
name = above;
position = "{522, 1270}";
}
);
layerId = "2146CDF3-509B-498B-BCC4-8BA41979C9D7";
paths = (
{
closed = 1;
nodes = (
"346 0 LINE",
"434 232 LINE",
"844 232 LINE",
"888 0 LINE",
"1208 0 LINE",
"943 1346 LINE",
"567 1346 LINE",
"33 0 LINE"
);
},
{
closed = 1;
nodes = (
"713 960 LINE",
"801 475 LINE",
"530 475 LINE"
);
}
);
width = 1236;
}
);
unicode = 0041;
},
{
glyphname = B;
lastChange = "2019-05-24 19:57:20 +0000";
layers = (
{
layerId = "AD226DB4-BE97-401A-8A1F-FC26A063DFB1";
paths = (
{
closed = 1;
nodes = (
"569 0 LINE SMOOTH",
"828 0 OFFCURVE",
"940 146 OFFCURVE",
"959 327 CURVE SMOOTH",
"966 443 OFFCURVE",
"887 588 OFFCURVE",
"742 606 CURVE",
"899 640 OFFCURVE",
"978 762 OFFCURVE",
"988 900 CURVE",
"1006 1065 OFFCURVE",
"911 1215 OFFCURVE",
"683 1215 CURVE SMOOTH",
"311 1215 LINE",
"197 0 LINE"
);
},
{
closed = 1;
nodes = (
"317 577 LINE",
"623 577 LINE SMOOTH",
"805 577 OFFCURVE",
"907 476 OFFCURVE",
"889 324 CURVE SMOOTH",
"875 172 OFFCURVE",
"788 64 OFFCURVE",
"575 64 CURVE SMOOTH",
"269 64 LINE"
);
},
{
closed = 1;
nodes = (
"676 1152 LINE SMOOTH",
"835 1152 OFFCURVE",
"935 1059 OFFCURVE",
"921 899 CURVE SMOOTH",
"906 733 OFFCURVE",
"780 637 OFFCURVE",
"629 637 CURVE SMOOTH",
"321 637 LINE",
"369 1152 LINE"
);
}
);
width = 1070;
},
{
layerId = "2146CDF3-509B-498B-BCC4-8BA41979C9D7";
paths = (
{
closed = 1;
nodes = (
"681 0 LINE SMOOTH",
"1052 0 OFFCURVE",
"1157 225 OFFCURVE",
"1169 379 CURVE SMOOTH",
"1190 561 OFFCURVE",
"1097 648 OFFCURVE",
"978 685 CURVE",
"1102 731 OFFCURVE",
"1195 834 OFFCURVE",
"1212 985 CURVE",
"1230 1190 OFFCURVE",
"1102 1346 OFFCURVE",
"808 1346 CURVE SMOOTH",
"278 1346 LINE",
"151 0 LINE"
);
},
{
closed = 1;
nodes = (
"495 525 LINE",
"722 525 LINE SMOOTH",
"825 525 OFFCURVE",
"855 476 OFFCURVE",
"850 403 CURVE SMOOTH",
"842 330 OFFCURVE",
"788 288 OFFCURVE",
"700 288 CURVE SMOOTH",
"472 288 LINE"
);
},
{
closed = 1;
nodes = (
"767 1061 LINE SMOOTH",
"874 1061 OFFCURVE",
"908 1007 OFFCURVE",
"901 938 CURVE SMOOTH",
"893 864 OFFCURVE",
"852 815 OFFCURVE",
"741 815 CURVE SMOOTH",
"524 815 LINE",
"547 1061 LINE"
);
}
);
width = 1221;
}
);
unicode = 0042;
},
{
glyphname = C;
lastChange = "2019-05-24 19:57:20 +0000";
layers = (
{
layerId = "AD226DB4-BE97-401A-8A1F-FC26A063DFB1";
paths = (
{
closed = 1;
nodes = (
"790 -15 OFFCURVE",
"989 138 OFFCURVE",
"1008 386 CURVE",
"939 386 LINE",
"921 180 OFFCURVE",
"768 46 OFFCURVE",
"558 46 CURVE SMOOTH",
"292 46 OFFCURVE",
"198 306 OFFCURVE",
"228 619 CURVE SMOOTH",
"258 975 OFFCURVE",
"459 1168 OFFCURVE",
"663 1168 CURVE SMOOTH",
"816 1168 OFFCURVE",
"944 1060 OFFCURVE",
"985 882 CURVE",
"1065 903 LINE",
"1011 1099 OFFCURVE",
"880 1232 OFFCURVE",
"670 1232 CURVE SMOOTH",
"422 1232 OFFCURVE",
"192 1013 OFFCURVE",
"159 619 CURVE",
"125 264 OFFCURVE",
"259 -15 OFFCURVE",
"550 -15 CURVE SMOOTH"
);
}
);
width = 1063;
},
{
layerId = "2146CDF3-509B-498B-BCC4-8BA41979C9D7";
paths = (
{
closed = 1;
nodes = (
"929 -35 OFFCURVE",
"1120 138 OFFCURVE",
"1153 452 CURVE",
"834 452 LINE",
"822 350 OFFCURVE",
"755 270 OFFCURVE",
"637 270 CURVE SMOOTH",
"509 270 OFFCURVE",
"434 397 OFFCURVE",
"458 671 CURVE SMOOTH",
"488 948 OFFCURVE",
"590 1077 OFFCURVE",
"715 1077 CURVE SMOOTH",
"816 1077 OFFCURVE",
"859 994 OFFCURVE",
"873 882 CURVE",
"1190 942 LINE",
"1189 1198 OFFCURVE",
"1050 1377 OFFCURVE",
"742 1377 CURVE SMOOTH",
"422 1377 OFFCURVE",
"186 1138 OFFCURVE",
"139 671 CURVE",
"92 204 OFFCURVE",
"292 -35 OFFCURVE",
"610 -35 CURVE SMOOTH"
);
}
);
width = 1188;
}
);
unicode = 0043;
},
{
glyphname = D;
lastChange = "2019-05-24 19:57:20 +0000";
layers = (
{
layerId = "AD226DB4-BE97-401A-8A1F-FC26A063DFB1";
paths = (
{
closed = 1;
nodes = (
"195 0 LINE",
"475 0 LINE SMOOTH",
"806 0 OFFCURVE",
"1031 241 OFFCURVE",
"1064 610 CURVE SMOOTH",
"1100 971 OFFCURVE",
"924 1215 OFFCURVE",
"593 1215 CURVE SMOOTH",
"309 1215 LINE"
);
},
{
closed = 1;
nodes = (
"588 1155 LINE SMOOTH",
"872 1155 OFFCURVE",
"1025 923 OFFCURVE",
"997 610 CURVE SMOOTH",
"971 290 OFFCURVE",
"767 55 OFFCURVE",
"483 55 CURVE SMOOTH",
"262 55 LINE",
"367 1155 LINE"
);
}
);
width = 1142;
},
{
layerId = "2146CDF3-509B-498B-BCC4-8BA41979C9D7";
paths = (
{
closed = 1;
nodes = (
"149 0 LINE",
"587 0 LINE SMOOTH",
"957 0 OFFCURVE",
"1241 261 OFFCURVE",
"1281 670 CURVE SMOOTH",
"1317 1089 OFFCURVE",
"1082 1346 OFFCURVE",
"711 1346 CURVE SMOOTH",
"276 1346 LINE"
);
},
{
closed = 1;
nodes = (
"679 1043 LINE SMOOTH",
"872 1043 OFFCURVE",
"979 890 OFFCURVE",
"958 670 CURVE SMOOTH",
"932 460 OFFCURVE",
"806 305 OFFCURVE",
"614 305 CURVE SMOOTH",
"479 305 LINE",
"545 1043 LINE"
);
}
);
width = 1287;
}
);
unicode = 0044;
},
{
glyphname = E;
lastChange = "2019-05-24 19:57:20 +0000";
layers = (
{
anchors = (
{
name = above;
position = "{530, 1270}";
}
);
layerId = "AD226DB4-BE97-401A-8A1F-FC26A063DFB1";
paths = (
{
closed = 1;
nodes = (
"830 0 LINE",
"840 64 LINE",
"267 64 LINE",
"315 586 LINE",
"855 586 LINE",
"858 644 LINE",
"319 644 LINE",
"367 1152 LINE",
"937 1152 LINE",
"948 1215 LINE",
"309 1215 LINE",
"195 0 LINE"
);
}
);
width = 966;
},
{
anchors = (
{
name = above;
position = "{530, 1270}";
}
);
layerId = "2146CDF3-509B-498B-BCC4-8BA41979C9D7";
paths = (
{
closed = 1;
nodes = (
"969 0 LINE",
"991 288 LINE",
"470 288 LINE",
"493 526 LINE",
"980 526 LINE",
"1009 814 LINE",
"522 814 LINE",
"545 1061 LINE",
"1068 1061 LINE",
"1093 1346 LINE",
"276 1346 LINE",
"149 0 LINE"
);
}
);
width = 1104;
}
);
unicode = 0045;
},
{
glyphname = F;
lastChange = "2019-05-24 19:57:14 +0000";
layers = (
{
layerId = "AD226DB4-BE97-401A-8A1F-FC26A063DFB1";
paths = (
{
closed = 1;
nodes = (
"263 0 LINE",
"317 588 LINE",
"858 588 LINE",
"861 652 LINE",
"321 652 LINE",
"369 1152 LINE",
"939 1152 LINE",
"947 1215 LINE",
"311 1215 LINE",
"197 0 LINE"
);
}
);
width = 901;
},
{
layerId = "2146CDF3-509B-498B-BCC4-8BA41979C9D7";
paths = (
{
closed = 1;
nodes = (
"447 0 LINE",
"495 528 LINE",
"937 528 LINE",
"966 810 LINE",
"524 810 LINE",
"547 1061 LINE",
"1044 1061 LINE",
"1072 1346 LINE",
"278 1346 LINE",
"151 0 LINE"
);
}
);
width = 1032;
}
);
unicode = 0046;
},
{
glyphname = G;
lastChange = "2019-05-24 19:57:20 +0000";
layers = (
{
layerId = "AD226DB4-BE97-401A-8A1F-FC26A063DFB1";
paths = (
{
closed = 1;
nodes = (
"741 -15 OFFCURVE",
"851 86 OFFCURVE",
"911 258 CURVE",
"901 255 LINE",
"900 170 OFFCURVE",
"893 84 OFFCURVE",
"891 0 CURVE",
"947 0 LINE",
"996 572 LINE",
"622 572 LINE",
"616 520 LINE",
"969 499 LINE",
"895 544 LINE",
"919 516 OFFCURVE",
"922 503 OFFCURVE",
"922 494 CURVE SMOOTH",
"922 176 OFFCURVE",
"747 48 OFFCURVE",
"570 48 CURVE SMOOTH",
"317 48 OFFCURVE",
"196 278 OFFCURVE",
"222 584 CURVE SMOOTH",
"260 949 OFFCURVE",
"483 1164 OFFCURVE",
"717 1164 CURVE SMOOTH",
"819 1164 OFFCURVE",
"919 1121 OFFCURVE",
"1010 1011 CURVE",
"1065 1059 LINE",
"968 1176 OFFCURVE",
"855 1228 OFFCURVE",
"724 1228 CURVE SMOOTH",
"471 1228 OFFCURVE",
"194 1028 OFFCURVE",
"157 584 CURVE SMOOTH",
"119 202 OFFCURVE",
"312 -15 OFFCURVE",
"561 -15 CURVE SMOOTH"
);
}
);
width = 1097;
},
{
layerId = "2146CDF3-509B-498B-BCC4-8BA41979C9D7";
paths = (
{
closed = 1;
nodes = (
"754 -35 OFFCURVE",
"861 66 OFFCURVE",
"921 238 CURVE",
"904 235 LINE",
"910 157 OFFCURVE",
"913 78 OFFCURVE",
"918 0 CURVE",
"1157 0 LINE",
"1226 723 LINE",
"707 723 LINE",
"688 514 LINE",
"969 515 LINE",
"940 577 LINE",
"928 534 OFFCURVE",
"927 514 OFFCURVE",
"922 481 CURVE SMOOTH",
"890 368 OFFCURVE",
"793 272 OFFCURVE",
"661 272 CURVE SMOOTH",
"527 272 OFFCURVE",
"432 423 OFFCURVE",
"458 675 CURVE SMOOTH",
"477 922 OFFCURVE",
"601 1079 OFFCURVE",
"737 1079 CURVE SMOOTH",
"839 1079 OFFCURVE",
"899 1009 OFFCURVE",
"925 899 CURVE",
"1243 960 LINE",
"1204 1248 OFFCURVE",
"1052 1379 OFFCURVE",
"784 1379 CURVE SMOOTH",
"432 1379 OFFCURVE",
"181 1088 OFFCURVE",
"137 675 CURVE SMOOTH",
"99 262 OFFCURVE",
"299 -35 OFFCURVE",
"607 -35 CURVE SMOOTH"
);
}
);
width = 1288;
}
);
unicode = 0047;
},
{
glyphname = H;
lastChange = "2019-05-24 19:57:20 +0000";
layers = (
{
layerId = "AD226DB4-BE97-401A-8A1F-FC26A063DFB1";
paths = (
{
closed = 1;
nodes = (
"263 0 LINE",
"317 588 LINE",
"923 588 LINE",
"869 0 LINE",
"935 0 LINE",
"1053 1215 LINE",
"983 1215 LINE",
"927 648 LINE",
"321 648 LINE",
"377 1215 LINE",
"311 1215 LINE",
"197 0 LINE"
);
}
);
width = 1132;
},
{
layerId = "2146CDF3-509B-498B-BCC4-8BA41979C9D7";
paths = (
{
closed = 1;
nodes = (
"447 0 LINE",
"495 528 LINE",
"950 528 LINE",
"902 0 LINE",
"1198 0 LINE",
"1322 1346 LINE",
"1029 1346 LINE",
"979 818 LINE",
"524 818 LINE",
"574 1346 LINE",
"278 1346 LINE",
"151 0 LINE"
);
}
);
width = 1349;
}
);
unicode = 0048;
},
{
glyphname = I;
lastChange = "2019-05-24 19:57:20 +0000";
layers = (
{
anchors = (
{
name = above;
position = "{254, 1270}";
}
);
layerId = "AD226DB4-BE97-401A-8A1F-FC26A063DFB1";
paths = (
{
closed = 1;
nodes = (
"263 0 LINE",
"377 1215 LINE",
"311 1215 LINE",
"197 0 LINE"
);
}
);
width = 456;
},
{
anchors = (
{
name = above;
position = "{254, 1270}";
}
);
layerId = "2146CDF3-509B-498B-BCC4-8BA41979C9D7";
paths = (
{
closed = 1;
nodes = (
"447 0 LINE",
"574 1346 LINE",
"278 1346 LINE",
"151 0 LINE"
);
}
);
width = 601;
}
);
unicode = 0049;
},
{
glyphname = J;
lastChange = "2019-05-24 19:57:20 +0000";
layers = (
{
layerId = "AD226DB4-BE97-401A-8A1F-FC26A063DFB1";
paths = (
{
closed = 1;
nodes = (
"76 23 OFFCURVE",
"139 -15 OFFCURVE",
"233 -15 CURVE SMOOTH",
"399 -15 OFFCURVE",
"507 90 OFFCURVE",
"533 321 CURVE",
"615 1215 LINE",
"553 1215 LINE",
"469 321 LINE",
"449 155 OFFCURVE",
"389 52 OFFCURVE",
"239 52 CURVE SMOOTH",
"153 52 OFFCURVE",
"81 90 OFFCURVE",
"10 157 CURVE",
"7 71 LINE"
);
}
);
width = 650;
},
{
layerId = "2146CDF3-509B-498B-BCC4-8BA41979C9D7";
paths = (
{
closed = 1;
nodes = (
"136 -4 OFFCURVE",
"244 -35 OFFCURVE",
"358 -35 CURVE SMOOTH",
"577 -35 OFFCURVE",
"757 90 OFFCURVE",
"790 452 CURVE",
"878 1346 LINE",
"573 1346 LINE",
"489 452 LINE",
"482 333 OFFCURVE",
"435 288 OFFCURVE",
"357 288 CURVE SMOOTH",
"284 288 OFFCURVE",
"180 307 OFFCURVE",
"82 367 CURVE",
"46 44 LINE"
);
}
);
width = 886;
}
);
unicode = 004A;
},
{
glyphname = K;
lastChange = "2019-05-24 19:57:20 +0000";
layers = (
{
layerId = "AD226DB4-BE97-401A-8A1F-FC26A063DFB1";
paths = (
{
closed = 1;
nodes = (
"197 0 LINE",
"265 0 LINE",
"307 471 LINE",
"453 617 LINE",
"854 0 LINE",
"939 0 LINE",
"500 672 LINE",
"1027 1215 LINE",
"935 1215 LINE",
"321 580 LINE",
"379 1215 LINE",
"311 1215 LINE"
);
}
);
width = 1007;
},
{
layerId = "2146CDF3-509B-498B-BCC4-8BA41979C9D7";
paths = (
{
closed = 1;
nodes = (
"151 0 LINE",
"449 0 LINE",
"491 425 LINE",
"571 512 LINE",
"914 0 LINE",
"1300 0 LINE",
"796 738 LINE",
"1388 1346 LINE",
"981 1346 LINE",
"531 870 LINE",
"576 1346 LINE",
"278 1346 LINE"
);
}
);
width = 1276;
}
);
unicode = 004B;
},
{
glyphname = L;
lastChange = "2019-05-24 19:57:20 +0000";
layers = (
{
layerId = "AD226DB4-BE97-401A-8A1F-FC26A063DFB1";
paths = (
{
closed = 1;
nodes = (
"793 0 LINE",
"799 64 LINE",
"269 64 LINE",
"377 1215 LINE",
"311 1215 LINE",
"197 0 LINE"
);
}
);
width = 790;
},
{
layerId = "2146CDF3-509B-498B-BCC4-8BA41979C9D7";
paths = (
{
closed = 1;
nodes = (
"898 0 LINE",
"924 288 LINE",
"472 288 LINE",
"574 1346 LINE",
"278 1346 LINE",
"151 0 LINE"
);
}
);
width = 948;
}
);
unicode = 004C;
},
{
glyphname = M;
lastChange = "2019-05-24 19:57:20 +0000";
layers = (
{
layerId = "AD226DB4-BE97-401A-8A1F-FC26A063DFB1";
paths = (
{
closed = 1;
nodes = (
"263 0 LINE",
"370 1132 LINE",
"349 1139 LINE",
"730 175 LINE",
"780 175 LINE",
"1338 1133 LINE",
"1319 1129 LINE",
"1213 0 LINE",
"1277 0 LINE",
"1395 1215 LINE",
"1297 1215 LINE",
"765 276 LINE",
"406 1215 LINE",
"311 1215 LINE",
"197 0 LINE"
);
}
);
width = 1474;
},
{
layerId = "2146CDF3-509B-498B-BCC4-8BA41979C9D7";
paths = (
{
closed = 1;
nodes = (
"447 0 LINE",
"540 1020 LINE",
"526 1016 LINE",
"736 123 LINE",
"925 123 LINE",
"1281 964 LINE",
"1267 971 LINE",
"1180 0 LINE",
"1480 0 LINE",
"1605 1346 LINE",
"1198 1346 LINE",
"883 670 LINE",
"702 1346 LINE",
"278 1346 LINE",
"151 0 LINE"
);
}
);
width = 1632;
}
);
unicode = 004D;
},
{
glyphname = N;
lastChange = "2019-05-24 19:57:20 +0000";
layers = (
{
anchors = (
{
name = above;
position = "{614, 1270}";
}
);
layerId = "AD226DB4-BE97-401A-8A1F-FC26A063DFB1";
paths = (
{
closed = 1;
nodes = (
"263 0 LINE",
"370 1151 LINE",
"350 1155 LINE",
"882 0 LINE",
"974 0 LINE",
"1087 1215 LINE",
"1021 1215 LINE",
"909 66 LINE",
"928 62 LINE",
"402 1215 LINE",
"307 1215 LINE",
"193 0 LINE"
);
}
);
width = 1169;
},
{
anchors = (
{
name = above;
position = "{614, 1270}";
}
);
guideLines = (
{
angle = 264.6099;
position = "{1041, 1346}";
}
);
layerId = "2146CDF3-509B-498B-BCC4-8BA41979C9D7";
paths = (
{
closed = 1;
nodes = (
"441 0 LINE",
"528 908 LINE",
"471 911 LINE",
"923 0 LINE",
"1210 0 LINE",
"1337 1346 LINE",
"1041 1346 LINE",
"959 473 LINE",
"1012 470 LINE",
"584 1346 LINE",
"274 1346 LINE",
"147 0 LINE"
);
}
);
width = 1360;
}
);
unicode = 004E;
},
{
glyphname = O;
lastChange = "2019-05-24 19:57:20 +0000";
layers = (
{
anchors = (
{
name = above;
position = "{582, 1270}";
}
);
layerId = "AD226DB4-BE97-401A-8A1F-FC26A063DFB1";
paths = (
{
closed = 1;
nodes = (
"788 -15 OFFCURVE",
"1008 179 OFFCURVE",
"1052 604 CURVE",
"1089 1025 OFFCURVE",
"910 1232 OFFCURVE",
"663 1232 CURVE SMOOTH",
"413 1232 OFFCURVE",
"196 1023 OFFCURVE",
"159 604 CURVE",
"119 181 OFFCURVE",
"294 -15 OFFCURVE",
"543 -15 CURVE SMOOTH"
);
},
{
closed = 1;
nodes = (
"317 53 OFFCURVE",
"190 237 OFFCURVE",
"224 604 CURVE SMOOTH",
"263 967 OFFCURVE",
"417 1166 OFFCURVE",
"655 1166 CURVE SMOOTH",
"887 1166 OFFCURVE",
"1018 967 OFFCURVE",
"982 602 CURVE SMOOTH",
"945 237 OFFCURVE",
"782 53 OFFCURVE",
"551 53 CURVE SMOOTH"
);
}
);
width = 1088;
},
{
anchors = (
{
name = above;
position = "{582, 1270}";
}
);
layerId = "2146CDF3-509B-498B-BCC4-8BA41979C9D7";
paths = (
{
closed = 1;
nodes = (
"1005 -35 OFFCURVE",
"1251 206 OFFCURVE",
"1295 676 CURVE",
"1339 1137 OFFCURVE",
"1134 1377 OFFCURVE",
"781 1377 CURVE SMOOTH",
"433 1377 OFFCURVE",
"183 1154 OFFCURVE",
"139 676 CURVE",
"92 214 OFFCURVE",
"300 -35 OFFCURVE",
"648 -35 CURVE SMOOTH"
);
},
{
closed = 1;
nodes = (
"514 263 OFFCURVE",
"420 415 OFFCURVE",
"448 676 CURVE SMOOTH",
"466 928 OFFCURVE",
"595 1081 OFFCURVE",
"754 1081 CURVE SMOOTH",
"920 1081 OFFCURVE",
"1012 928 OFFCURVE",
"988 681 CURVE SMOOTH",
"965 415 OFFCURVE",
"842 263 OFFCURVE",
"676 263 CURVE SMOOTH"
);
}
);
width = 1312;
}
);
unicode = 004F;
},
{
glyphname = P;
lastChange = "2019-05-24 19:57:20 +0000";
layers = (
{
layerId = "AD226DB4-BE97-401A-8A1F-FC26A063DFB1";
paths = (
{
closed = 1;
nodes = (
"259 0 LINE",
"307 501 LINE",
"555 501 LINE SMOOTH",
"788 501 OFFCURVE",
"914 647 OFFCURVE",
"934 851 CURVE SMOOTH",
"954 1058 OFFCURVE",
"856 1215 OFFCURVE",
"625 1215 CURVE SMOOTH",
"309 1215 LINE",
"195 0 LINE"
);
},
{
closed = 1;
nodes = (
"365 1152 LINE",
"618 1152 LINE SMOOTH",
"795 1152 OFFCURVE",
"885 1039 OFFCURVE",
"869 851 CURVE SMOOTH",
"853 668 OFFCURVE",
"743 561 OFFCURVE",
"563 561 CURVE SMOOTH",
"311 561 LINE"
);
}
);
width = 946;
},
{
layerId = "2146CDF3-509B-498B-BCC4-8BA41979C9D7";
paths = (
{
closed = 1;
nodes = (
"443 0 LINE",
"485 455 LINE",
"654 455 LINE SMOOTH",
"933 455 OFFCURVE",
"1131 608 OFFCURVE",
"1158 903 CURVE SMOOTH",
"1186 1203 OFFCURVE",
"1020 1346 OFFCURVE",
"737 1346 CURVE SMOOTH",
"270 1346 LINE",
"143 0 LINE"
);
},
{
closed = 1;
nodes = (
"543 1061 LINE",
"709 1061 LINE SMOOTH",
"815 1061 OFFCURVE",
"858 987 OFFCURVE",
"849 903 CURVE SMOOTH",
"844 819 OFFCURVE",
"782 745 OFFCURVE",
"681 745 CURVE SMOOTH",
"514 745 LINE"
);
}
);
width = 1104;
}
);
unicode = 0050;
},
{
glyphname = Q;
lastChange = "2019-05-24 19:57:14 +0000";
layers = (
{
layerId = "AD226DB4-BE97-401A-8A1F-FC26A063DFB1";
paths = (
{
closed = 1;
nodes = (
"882 -306 OFFCURVE",
"927 -296 OFFCURVE",
"985 -266 CURVE",
"993 -172 LINE",
"925 -208 OFFCURVE",
"881 -226 OFFCURVE",
"811 -226 CURVE",
"775 -224 OFFCURVE",
"744 -204 OFFCURVE",
"701 -140 CURVE",
"627 -11 LINE",
"841 34 OFFCURVE",
"1016 229 OFFCURVE",
"1052 604 CURVE",
"1089 1025 OFFCURVE",
"910 1232 OFFCURVE",
"663 1232 CURVE SMOOTH",
"413 1232 OFFCURVE",
"196 1023 OFFCURVE",
"159 604 CURVE",
"119 183 OFFCURVE",
"292 -16 OFFCURVE",
"544 -15 CURVE",
"625 -154 LINE SMOOTH",
"684 -257 OFFCURVE",
"741 -306 OFFCURVE",
"838 -306 CURVE SMOOTH"
);
},
{
closed = 1;
nodes = (
"317 53 OFFCURVE",
"190 237 OFFCURVE",
"224 604 CURVE SMOOTH",
"263 967 OFFCURVE",
"417 1166 OFFCURVE",
"655 1166 CURVE SMOOTH",
"887 1166 OFFCURVE",
"1018 967 OFFCURVE",
"982 602 CURVE SMOOTH",
"945 237 OFFCURVE",
"782 53 OFFCURVE",
"551 53 CURVE SMOOTH"
);
}
);
width = 1109;
},
{
layerId = "2146CDF3-509B-498B-BCC4-8BA41979C9D7";
paths = (
{
closed = 1;
nodes = (
"1052 -391 OFFCURVE",
"1105 -381 OFFCURVE",
"1163 -357 CURVE",
"1196 -27 LINE",
"1135 -50 OFFCURVE",
"1072 -68 OFFCURVE",
"1021 -68 CURVE",
"966 -66 OFFCURVE",
"914 -46 OFFCURVE",
"892 5 CURVE",
"896 9 LINE",
"1117 100 OFFCURVE",
"1259 328 OFFCURVE",
"1295 676 CURVE",
"1339 1137 OFFCURVE",
"1134 1377 OFFCURVE",
"781 1377 CURVE SMOOTH",
"433 1377 OFFCURVE",
"183 1154 OFFCURVE",
"139 676 CURVE",
"92 222 OFFCURVE",
"292 -22 OFFCURVE",
"623 -35 CURVE",
"677 -160 LINE SMOOTH",
"744 -303 OFFCURVE",
"866 -391 OFFCURVE",
"996 -391 CURVE SMOOTH"
);
},
{
closed = 1;
nodes = (
"514 263 OFFCURVE",
"420 415 OFFCURVE",
"448 676 CURVE SMOOTH",
"466 928 OFFCURVE",
"595 1081 OFFCURVE",
"754 1081 CURVE SMOOTH",
"920 1081 OFFCURVE",
"1012 928 OFFCURVE",
"988 681 CURVE SMOOTH",
"965 415 OFFCURVE",
"842 263 OFFCURVE",
"676 263 CURVE SMOOTH"
);
}
);
width = 1306;
}
);
unicode = 0051;
},
{
glyphname = R;
lastChange = "2019-05-24 19:57:20 +0000";
layers = (
{
layerId = "AD226DB4-BE97-401A-8A1F-FC26A063DFB1";
paths = (
{
closed = 1;
nodes = (
"263 0 LINE",
"313 523 LINE",
"550 523 LINE",
"833 0 LINE",
"913 0 LINE",
"624 518 LINE",
"842 532 OFFCURVE",
"962 672 OFFCURVE",
"978 867 CURVE SMOOTH",
"1000 1069 OFFCURVE",
"904 1215 OFFCURVE",
"664 1215 CURVE SMOOTH",
"311 1215 LINE",
"197 0 LINE"
);
},
{
closed = 1;
nodes = (
"369 1152 LINE",
"656 1152 LINE SMOOTH",
"836 1152 OFFCURVE",
"933 1046 OFFCURVE",
"915 870 CURVE SMOOTH",
"899 698 OFFCURVE",
"788 581 OFFCURVE",
"602 581 CURVE SMOOTH",
"319 581 LINE"
);
}
);
width = 1043;
},
{
layerId = "2146CDF3-509B-498B-BCC4-8BA41979C9D7";
paths = (
{
closed = 1;
nodes = (
"447 0 LINE",
"491 496 LINE",
"610 496 LINE",
"781 0 LINE",
"1170 0 LINE",
"920 531 LINE",
"1078 604 OFFCURVE",
"1179 738 OFFCURVE",
"1202 919 CURVE SMOOTH",
"1224 1181 OFFCURVE",
"1055 1346 OFFCURVE",
"755 1346 CURVE SMOOTH",
"278 1346 LINE",
"151 0 LINE"
);
},
{
closed = 1;
nodes = (
"547 1061 LINE",
"728 1061 LINE SMOOTH",
"849 1061 OFFCURVE",
"894 986 OFFCURVE",
"888 883 CURVE SMOOTH",
"879 783 OFFCURVE",
"801 712 OFFCURVE",
"662 712 CURVE SMOOTH",
"510 712 LINE"
);
}
);
width = 1227;
}
);
unicode = 0052;
},
{
glyphname = S;
lastChange = "2019-05-24 19:57:14 +0000";
layers = (
{
layerId = "AD226DB4-BE97-401A-8A1F-FC26A063DFB1";
paths = (
{
closed = 1;
nodes = (
"762 -15 OFFCURVE",
"909 149 OFFCURVE",
"922 312 CURVE SMOOTH",
"938 491 OFFCURVE",
"840 584 OFFCURVE",
"695 633 CURVE SMOOTH",
"488 701 LINE SMOOTH",
"361 743 OFFCURVE",
"312 802 OFFCURVE",
"322 918 CURVE SMOOTH",
"332 1061 OFFCURVE",
"444 1164 OFFCURVE",
"624 1164 CURVE SMOOTH",
"779 1164 OFFCURVE",
"875 1096 OFFCURVE",
"878 965 CURVE",
"942 965 LINE",
"936 1122 OFFCURVE",
"829 1232 OFFCURVE",
"632 1232 CURVE SMOOTH",
"401 1232 OFFCURVE",
"271 1101 OFFCURVE",
"253 924 CURVE SMOOTH",
"237 757 OFFCURVE",
"327 683 OFFCURVE",
"514 622 CURVE SMOOTH",
"673 562 LINE SMOOTH",
"800 520 OFFCURVE",
"865 440 OFFCURVE",
"853 313 CURVE SMOOTH",
"843 181 OFFCURVE",
"714 48 OFFCURVE",
"513 48 CURVE SMOOTH",
"346 48 OFFCURVE",
"204 143 OFFCURVE",
"220 348 CURVE",
"162 348 LINE",
"147 123 OFFCURVE",
"299 -15 OFFCURVE",
"507 -15 CURVE SMOOTH"
);
}
);
width = 1023;
},
{
layerId = "2146CDF3-509B-498B-BCC4-8BA41979C9D7";
paths = (
{
closed = 1;
nodes = (
"920 -35 OFFCURVE",
"1119 103 OFFCURVE",
"1146 378 CURVE SMOOTH",
"1162 543 OFFCURVE",
"1083 663 OFFCURVE",
"905 751 CURVE SMOOTH",
"639 885 LINE SMOOTH",
"571 921 OFFCURVE",
"536 947 OFFCURVE",
"539 990 CURVE SMOOTH",
"549 1041 OFFCURVE",
"608 1079 OFFCURVE",
"696 1079 CURVE SMOOTH",
"818 1079 OFFCURVE",
"855 1011 OFFCURVE",
"865 926 CURVE",
"1159 926 LINE",
"1166 1213 OFFCURVE",
"1020 1377 OFFCURVE",
"723 1377 CURVE SMOOTH",
"434 1377 OFFCURVE",
"238 1226 OFFCURVE",
"214 996 CURVE SMOOTH",
"198 803 OFFCURVE",
"288 703 OFFCURVE",
"454 616 CURVE SMOOTH",
"712 490 LINE SMOOTH",
"794 448 OFFCURVE",
"819 427 OFFCURVE",
"814 365 CURVE SMOOTH",
"804 286 OFFCURVE",
"720 272 OFFCURVE",
"631 272 CURVE SMOOTH",
"516 272 OFFCURVE",
"434 321 OFFCURVE",
"450 439 CURVE",
"149 439 LINE",
"127 103 OFFCURVE",
"345 -35 OFFCURVE",
"606 -35 CURVE SMOOTH"
);
}
);
width = 1220;
}
);
unicode = 0053;
},
{
glyphname = T;
lastChange = "2019-05-24 19:57:20 +0000";
layers = (
{
layerId = "AD226DB4-BE97-401A-8A1F-FC26A063DFB1";
paths = (
{
closed = 1;
nodes = (
"455 0 LINE",
"559 1152 LINE",
"937 1152 LINE",
"945 1215 LINE",
"126 1215 LINE",
"118 1152 LINE",
"493 1152 LINE",
"389 0 LINE"
);
}
);
width = 841;
},
{
layerId = "2146CDF3-509B-498B-BCC4-8BA41979C9D7";
paths = (
{
closed = 1;
nodes = (
"658 0 LINE",
"762 1061 LINE",
"1115 1061 LINE",
"1142 1346 LINE",
"139 1346 LINE",
"112 1061 LINE",
"466 1061 LINE",
"362 0 LINE"
);
}
);
width = 1025;
}
);
unicode = 0054;
},
{
glyphname = U;
lastChange = "2019-05-24 19:57:20 +0000";
layers = (
{
anchors = (
{
name = above;
position = "{586, 1270}";
}
);
layerId = "AD226DB4-BE97-401A-8A1F-FC26A063DFB1";
paths = (
{
closed = 1;
nodes = (
"766 -15 OFFCURVE",
"943 116 OFFCURVE",
"967 415 CURVE",
"1047 1215 LINE",
"981 1215 LINE",
"903 415 LINE SMOOTH",
"879 159 OFFCURVE",
"746 48 OFFCURVE",
"555 48 CURVE SMOOTH",
"357 48 OFFCURVE",
"244 159 OFFCURVE",
"268 415 CURVE SMOOTH",
"346 1215 LINE",
"280 1215 LINE",
"202 415 LINE",
"177 116 OFFCURVE",
"318 -15 OFFCURVE",
"545 -15 CURVE SMOOTH"
);
}
);
width = 1109;
},
{
anchors = (
{
name = above;
position = "{586, 1270}";
}
);
layerId = "2146CDF3-509B-498B-BCC4-8BA41979C9D7";
paths = (
{
closed = 1;
nodes = (
"1002 -35 OFFCURVE",
"1206 188 OFFCURVE",
"1243 533 CURVE",
"1316 1346 LINE",
"1020 1346 LINE",
"942 533 LINE SMOOTH",
"925 343 OFFCURVE",
"818 272 OFFCURVE",
"686 272 CURVE SMOOTH",
"560 272 OFFCURVE",
"468 343 OFFCURVE",
"485 533 CURVE SMOOTH",
"563 1346 LINE",
"267 1346 LINE",
"189 533 LINE",
"157 188 OFFCURVE",
"324 -35 OFFCURVE",
"663 -35 CURVE SMOOTH"
);
}
);
width = 1319;
}
);
unicode = 0055;
},
{
glyphname = V;
lastChange = "2019-05-24 19:57:20 +0000";
layers = (
{
layerId = "AD226DB4-BE97-401A-8A1F-FC26A063DFB1";
paths = (
{
closed = 1;
nodes = (
"432 0 LINE",
"497 0 LINE",
"1015 1215 LINE",
"943 1215 LINE",
"472 87 LINE",
"209 1215 LINE",
"145 1215 LINE"
);
}
);
width = 929;
},
{
layerId = "2146CDF3-509B-498B-BCC4-8BA41979C9D7";
paths = (
{
closed = 1;
nodes = (
"432 0 LINE",
"747 0 LINE",
"1272 1346 LINE",
"963 1346 LINE",
"630 416 LINE",
"485 1346 LINE",
"165 1346 LINE"
);
}
);
width = 1186;
}
);
unicode = 0056;
},
{
glyphname = W;
lastChange = "2019-05-24 19:57:20 +0000";
layers = (
{
layerId = "AD226DB4-BE97-401A-8A1F-FC26A063DFB1";
paths = (
{
closed = 1;
nodes = (
"347 0 LINE",
"415 0 LINE",
"795 882 LINE",
"986 0 LINE",
"1056 0 LINE",
"1567 1215 LINE",
"1503 1215 LINE",
"1032 104 LINE",
"834 1037 LINE",
"790 1037 LINE",
"391 108 LINE",
"200 1215 LINE",
"129 1215 LINE"
);
}
);
width = 1471;
},
{
layerId = "2146CDF3-509B-498B-BCC4-8BA41979C9D7";
paths = (
{
closed = 1;
nodes = (
"459 0 LINE",
"770 0 LINE",
"1005 646 LINE",
"1131 0 LINE",
"1444 0 LINE",
"1975 1346 LINE",
"1634 1346 LINE",
"1322 425 LINE",
"1155 1313 LINE",
"954 1313 LINE",
"654 429 LINE",
"509 1346 LINE",
"175 1346 LINE"
);
}
);
width = 1892;
}
);
unicode = 0057;
},
{
glyphname = X;
lastChange = "2019-05-24 19:57:20 +0000";
layers = (
{
layerId = "AD226DB4-BE97-401A-8A1F-FC26A063DFB1";
paths = (
{
closed = 1;
nodes = (
"195 0 LINE",
"580 548 LINE",
"877 0 LINE",
"959 0 LINE",
"629 600 LINE",
"1079 1215 LINE",
"1002 1215 LINE",
"604 651 LINE",
"300 1215 LINE",
"228 1215 LINE",
"557 600 LINE",
"112 0 LINE"
);
}
);
width = 1073;
},
{
layerId = "2146CDF3-509B-498B-BCC4-8BA41979C9D7";
paths = (
{
closed = 1;
nodes = (
"392 0 LINE",
"671 409 LINE",
"916 0 LINE",
"1288 0 LINE",
"892 679 LINE",
"1348 1346 LINE",
"989 1346 LINE",
"743 933 LINE",
"524 1346 LINE",
"156 1346 LINE",
"518 672 LINE",
"33 0 LINE"
);
}
);
width = 1323;
}
);
unicode = 0058;
},
{
glyphname = Y;
lastChange = "2019-05-24 19:57:14 +0000";
layers = (
{
layerId = "AD226DB4-BE97-401A-8A1F-FC26A063DFB1";
paths = (
{
closed = 1;
nodes = (
"479 0 LINE",
"525 494 LINE",
"988 1215 LINE",
"913 1215 LINE",
"497 571 LINE",
"200 1215 LINE",
"119 1215 LINE",
"455 494 LINE",
"409 0 LINE"
);
}
);
width = 879;
},
{
layerId = "2146CDF3-509B-498B-BCC4-8BA41979C9D7";
paths = (
{
closed = 1;
nodes = (
"736 0 LINE",
"788 560 LINE",
"1290 1346 LINE",
"940 1346 LINE",
"675 900 LINE",
"521 1346 LINE",
"171 1346 LINE",
"494 560 LINE",
"442 0 LINE"
);
}
);
width = 1208;
}
);
unicode = 0059;
},
{
glyphname = Z;
lastChange = "2019-05-24 19:57:20 +0000";
layers = (
{
layerId = "AD226DB4-BE97-401A-8A1F-FC26A063DFB1";
paths = (
{
closed = 1;
nodes = (
"903 0 LINE",
"913 66 LINE",
"216 76 LINE",
"1014 1138 LINE",
"1021 1215 LINE",
"246 1215 LINE",
"240 1149 LINE",
"933 1138 LINE",
"137 75 LINE",
"132 0 LINE"
);
}
);
width = 994;
},
{
layerId = "2146CDF3-509B-498B-BCC4-8BA41979C9D7";
paths = (
{
closed = 1;
nodes = (
"1081 0 LINE",
"1104 302 LINE",
"537 300 LINE",
"1178 1072 LINE",
"1205 1346 LINE",
"259 1346 LINE",
"227 1044 LINE",
"802 1047 LINE",
"157 278 LINE",
"132 0 LINE"
);
}
);
width = 1211;
}
);
unicode = 005A;
},
{
glyphname = quotesingle;
lastChange = "2019-05-24 19:57:14 +0000";
layers = (
{
layerId = "AD226DB4-BE97-401A-8A1F-FC26A063DFB1";
paths = (
{
closed = 1;
nodes = (
"177 953 LINE",
"226 1354 LINE",
"147 1354 LINE",
"121 953 LINE"
);
}
);
width = 157;
},
{
layerId = "2146CDF3-509B-498B-BCC4-8BA41979C9D7";
paths = (
{
closed = 1;
nodes = (
"400 835 LINE",
"488 1354 LINE",
"199 1354 LINE",
"186 835 LINE"
);
}
);
width = 420;
}
);
unicode = 0027;
},
{
glyphname = apostrophe;
lastChange = "2019-05-24 19:57:20 +0000";
layers = (
{
layerId = "AD226DB4-BE97-401A-8A1F-FC26A063DFB1";
paths = (
{
closed = 1;
nodes = (
"288 959 OFFCURVE",
"324 1032 OFFCURVE",
"328 1090 CURVE",
"336 1145 OFFCURVE",
"305 1183 OFFCURVE",
"265 1183 CURVE SMOOTH",
"229 1183 OFFCURVE",
"207 1156 OFFCURVE",
"203 1126 CURVE SMOOTH",
"202 1084 OFFCURVE",
"227 1061 OFFCURVE",
"270 1063 CURVE",
"252 1006 OFFCURVE",
"213 967 OFFCURVE",
"152 939 CURVE",
"200 914 LINE"
);
}
);
width = 230;
},
{
layerId = "2146CDF3-509B-498B-BCC4-8BA41979C9D7";
paths = (
{
closed = 1;
nodes = (
"505 768 OFFCURVE",
"626 941 OFFCURVE",
"643 1103 CURVE",
"657 1257 OFFCURVE",
"587 1386 OFFCURVE",
"443 1386 CURVE SMOOTH",
"328 1386 OFFCURVE",
"234 1301 OFFCURVE",
"223 1192 CURVE SMOOTH",
"215 1097 OFFCURVE",
"279 1034 OFFCURVE",
"355 1011 CURVE",
"324 927 OFFCURVE",
"233 862 OFFCURVE",
"139 808 CURVE",
"345 684 LINE"
);
}
);
width = 539;
}
);
unicode = 02BC;
},
{
glyphname = quoteleft;
lastChange = "2019-05-24 19:57:20 +0000";
layers = (
{
layerId = "AD226DB4-BE97-401A-8A1F-FC26A063DFB1";
paths = (
{
closed = 1;
nodes = (
"259 921 OFFCURVE",
"283 951 OFFCURVE",
"287 983 CURVE SMOOTH",
"290 1024 OFFCURVE",
"268 1047 OFFCURVE",
"225 1046 CURVE",
"240 1097 OFFCURVE",
"274 1137 OFFCURVE",
"333 1174 CURVE",
"289 1196 LINE",
"203 1153 OFFCURVE",
"168 1079 OFFCURVE",
"160 1016 CURVE SMOOTH",
"157 962 OFFCURVE",
"185 921 OFFCURVE",
"223 921 CURVE SMOOTH"
);
}
);
width = 275;
},
{
layerId = "2146CDF3-509B-498B-BCC4-8BA41979C9D7";
paths = (
{
closed = 1;
nodes = (
"469 664 OFFCURVE",
"559 748 OFFCURVE",
"569 858 CURVE SMOOTH",
"580 952 OFFCURVE",
"511 1014 OFFCURVE",
"435 1033 CURVE",
"470 1124 OFFCURVE",
"564 1189 OFFCURVE",
"662 1234 CURVE",
"467 1366 LINE",
"302 1278 OFFCURVE",
"168 1112 OFFCURVE",
"154 950 CURVE SMOOTH",
"137 792 OFFCURVE",
"212 664 OFFCURVE",
"354 664 CURVE SMOOTH"
);
}
);
width = 610;
}
);
unicode = 2018;
},
{
glyphname = quoteright;
lastChange = "2019-05-24 19:57:20 +0000";
layers = (
{
layerId = "AD226DB4-BE97-401A-8A1F-FC26A063DFB1";
paths = (
{
closed = 1;
nodes = (
"220 972 OFFCURVE",
"258 1043 OFFCURVE",
"262 1101 CURVE",
"269 1162 OFFCURVE",
"241 1196 OFFCURVE",
"197 1196 CURVE SMOOTH",
"163 1196 OFFCURVE",
"139 1167 OFFCURVE",
"135 1135 CURVE SMOOTH",
"135 1097 OFFCURVE",
"163 1074 OFFCURVE",
"201 1074 CURVE",
"186 1021 OFFCURVE",
"149 984 OFFCURVE",
"90 948 CURVE",
"137 921 LINE"
);
}
);
width = 275;
},
{
layerId = "2146CDF3-509B-498B-BCC4-8BA41979C9D7";
paths = (
{
closed = 1;
nodes = (
"510 748 OFFCURVE",
"646 912 OFFCURVE",
"662 1081 CURVE",
"677 1234 OFFCURVE",
"602 1366 OFFCURVE",
"466 1366 CURVE SMOOTH",
"347 1366 OFFCURVE",
"257 1285 OFFCURVE",
"247 1174 CURVE SMOOTH",
"234 1077 OFFCURVE",
"294 1014 OFFCURVE",
"379 995 CURVE",
"344 909 OFFCURVE",
"254 839 OFFCURVE",
"156 790 CURVE",
"347 664 LINE"
);
}
);
width = 610;
}
);
unicode = 2019;
},
{
glyphname = parenleft;
lastChange = "2019-05-24 19:57:14 +0000";
layers = (
{
layerId = "AD226DB4-BE97-401A-8A1F-FC26A063DFB1";
paths = (
{
closed = 1;
nodes = (
"368 1177 OFFCURVE",
"214 879 OFFCURVE",
"186 590 CURVE SMOOTH",
"160 304 OFFCURVE",
"258 1 OFFCURVE",
"446 -215 CURVE",
"496 -187 LINE",
"312 34 OFFCURVE",
"232 322 OFFCURVE",
"256 590 CURVE SMOOTH",
"282 860 OFFCURVE",
"418 1144 OFFCURVE",
"644 1363 CURVE",
"596 1400 LINE"
);
}
);
width = 553;
},
{
layerId = "2146CDF3-509B-498B-BCC4-8BA41979C9D7";
paths = (
{
closed = 1;
nodes = (
"368 1302 OFFCURVE",
"227 1010 OFFCURVE",
"192 662 CURVE SMOOTH",
"160 317 OFFCURVE",
"245 28 OFFCURVE",
"506 -248 CURVE",
"739 -62 LINE",
"555 185 OFFCURVE",
"475 388 OFFCURVE",
"499 662 CURVE SMOOTH",
"525 939 OFFCURVE",
"648 1144 OFFCURVE",
"874 1396 CURVE",
"681 1570 LINE"
);
}
);
width = 816;
}
);
unicode = 0028;
},
{
glyphname = parenright;
lastChange = "2019-05-24 19:57:14 +0000";
layers = (
{
layerId = "AD226DB4-BE97-401A-8A1F-FC26A063DFB1";
paths = (
{
closed = 1;
nodes = (
"297 1 OFFCURVE",
"451 304 OFFCURVE",
"477 590 CURVE SMOOTH",
"507 879 OFFCURVE",
"411 1177 OFFCURVE",
"221 1400 CURVE",
"171 1363 LINE",
"355 1144 OFFCURVE",
"433 860 OFFCURVE",
"411 590 CURVE",
"383 322 OFFCURVE",
"247 34 OFFCURVE",
"25 -187 CURVE",
"71 -215 LINE"
);
}
);
width = 553;
},
{
layerId = "2146CDF3-509B-498B-BCC4-8BA41979C9D7";
paths = (
{
closed = 1;
nodes = (
"566 28 OFFCURVE",
"714 317 OFFCURVE",
"746 662 CURVE SMOOTH",
"776 1010 OFFCURVE",
"687 1302 OFFCURVE",
"431 1570 CURVE",
"198 1396 LINE",
"382 1144 OFFCURVE",
"466 939 OFFCURVE",
"438 662 CURVE",
"416 388 OFFCURVE",
"293 185 OFFCURVE",
"58 -62 CURVE",
"255 -248 LINE"
);
}
);
width = 816;
}
);
unicode = 0029;
},
{
glyphname = plus;
lastChange = "2019-05-24 19:57:20 +0000";
layers = (
{
layerId = "AD226DB4-BE97-401A-8A1F-FC26A063DFB1";
paths = (
{
closed = 1;
nodes = (
"473 519 LINE",
"80 519 LINE",
"76 463 LINE",
"466 463 LINE",
"426 0 LINE",
"492 0 LINE",
"532 463 LINE",
"928 463 LINE",
"931 519 LINE",
"539 519 LINE",
"584 982 LINE",
"514 982 LINE"
);
}
);
width = 913;
},
{
layerId = "2146CDF3-509B-498B-BCC4-8BA41979C9D7";
paths = (
{
closed = 1;
nodes = (
"421 637 LINE",
"93 637 LINE",
"63 345 LINE",
"394 345 LINE",
"360 0 LINE",
"656 0 LINE",
"690 345 LINE",
"1013 345 LINE",
"1043 637 LINE",
"717 637 LINE",
"748 982 LINE",
"454 982 LINE"
);
}
);
width = 1018;
}
);
unicode = 002B;
},
{
glyphname = minus;
lastChange = "2019-05-24 19:57:20 +0000";
layers = (
{
layerId = "AD226DB4-BE97-401A-8A1F-FC26A063DFB1";
paths = (
{
closed = 1;
nodes = (
"108 461 LINE",
"824 461 LINE",
"833 517 LINE",
"117 517 LINE"
);
}
);
width = 913;
},
{
layerId = "2146CDF3-509B-498B-BCC4-8BA41979C9D7";
paths = (
{
closed = 1;
nodes = (
"85 336 LINE",
"939 336 LINE",
"975 629 LINE",
"119 629 LINE"
);
}
);
width = 1018;
}
);
unicode = 2212;
},
{
glyphname = equal;
lastChange = "2019-05-24 19:57:20 +0000";
layers = (
{
layerId = "AD226DB4-BE97-401A-8A1F-FC26A063DFB1";
paths = (
{
closed = 1;
nodes = (
"171 282 LINE",
"730 282 LINE",
"733 342 LINE",
"174 342 LINE"
);
},
{
closed = 1;
nodes = (
"200 620 LINE",
"759 620 LINE",
"765 687 LINE",
"205 687 LINE"
);
}
);
width = 843;
},
{
layerId = "2146CDF3-509B-498B-BCC4-8BA41979C9D7";
paths = (
{
closed = 1;
nodes = (
"151 137 LINE",
"815 137 LINE",
"845 427 LINE",
"180 427 LINE"
);
},
{
closed = 1;
nodes = (
"200 607 LINE",
"864 607 LINE",
"890 890 LINE",
"225 890 LINE"
);
}
);
width = 948;
}
);
unicode = 003D;
},
{
glyphname = zero;
lastChange = "2019-05-15 14:38:49 +0000";
layers = (
{
layerId = "AD226DB4-BE97-401A-8A1F-FC26A063DFB1";
paths = (
{
closed = 1;
nodes = (
"739 -15 OFFCURVE",
"918 196 OFFCURVE",
"953 610 CURVE SMOOTH",
"989 1018 OFFCURVE",
"859 1232 OFFCURVE",
"615 1232 CURVE SMOOTH",
"368 1232 OFFCURVE",
"192 1018 OFFCURVE",
"159 610 CURVE",
"119 196 OFFCURVE",
"249 -15 OFFCURVE",
"491 -15 CURVE SMOOTH"
);
},
{
closed = 1;
nodes = (
"285 48 OFFCURVE",
"190 252 OFFCURVE",
"224 610 CURVE SMOOTH",
"263 963 OFFCURVE",
"389 1164 OFFCURVE",
"603 1164 CURVE SMOOTH",
"829 1164 OFFCURVE",
"920 963 OFFCURVE",
"883 610 CURVE SMOOTH",
"847 252 OFFCURVE",
"725 48 OFFCURVE",
"503 48 CURVE SMOOTH"
);
}
);
width = 994;
},
{
layerId = "2146CDF3-509B-498B-BCC4-8BA41979C9D7";
paths = (
{
closed = 1;
nodes = (
"917 -35 OFFCURVE",
"1161 190 OFFCURVE",
"1210 670 CURVE SMOOTH",
"1258 1157 OFFCURVE",
"1050 1377 OFFCURVE",
"740 1377 CURVE SMOOTH",
"428 1377 OFFCURVE",
"186 1157 OFFCURVE",
"139 670 CURVE",
"92 190 OFFCURVE",
"295 -35 OFFCURVE",
"609 -35 CURVE SMOOTH"
);
},
{
closed = 1;
nodes = (
"495 272 OFFCURVE",
"420 410 OFFCURVE",
"448 670 CURVE SMOOTH",
"466 936 OFFCURVE",
"573 1079 OFFCURVE",
"715 1079 CURVE SMOOTH",
"849 1079 OFFCURVE",
"926 936 OFFCURVE",
"903 670 CURVE SMOOTH",
"880 410 OFFCURVE",
"771 272 OFFCURVE",
"634 272 CURVE SMOOTH"
);
}
);
width = 1224;
}
);
unicode = 0030;
},
{
glyphname = one;
lastChange = "2019-05-24 19:57:20 +0000";
layers = (
{
layerId = "AD226DB4-BE97-401A-8A1F-FC26A063DFB1";
paths = (
{
closed = 1;
nodes = (
"346 1157 OFFCURVE",
"274 1124 OFFCURVE",
"205 1117 CURVE",
"197 1037 LINE",
"257 1045 OFFCURVE",
"334 1078 OFFCURVE",
"394 1128 CURVE",
"289 0 LINE",
"349 0 LINE",
"463 1214 LINE",
"398 1214 LINE"
);
}
);
width = 546;
},
{
layerId = "2146CDF3-509B-498B-BCC4-8BA41979C9D7";
paths = (
{
closed = 1;
nodes = (
"352 1288 OFFCURVE",
"268 1263 OFFCURVE",
"178 1248 CURVE",
"151 938 LINE",
"211 933 OFFCURVE",
"268 939 OFFCURVE",
"334 964 CURVE",
"243 0 LINE",
"546 0 LINE",
"673 1359 LINE",
"458 1359 LINE"
);
}
);
width = 697;
}
);
unicode = 0031;
},
{
glyphname = two;
lastChange = "2019-05-24 19:57:20 +0000";
layers = (
{
layerId = "AD226DB4-BE97-401A-8A1F-FC26A063DFB1";
paths = (
{
closed = 1;
nodes = (
"217 294 OFFCURVE",
"298 380 OFFCURVE",
"442 445 CURVE SMOOTH",
"663 545 LINE SMOOTH",
"795 600 OFFCURVE",
"910 705 OFFCURVE",
"932 897 CURVE SMOOTH",
"947 1083 OFFCURVE",
"826 1232 OFFCURVE",
"623 1232 CURVE SMOOTH",
"398 1232 OFFCURVE",
"269 1119 OFFCURVE",
"235 953 CURVE",
"304 953 LINE",
"330 1094 OFFCURVE",
"449 1164 OFFCURVE",
"615 1164 CURVE SMOOTH",
"779 1164 OFFCURVE",
"877 1061 OFFCURVE",
"858 902 CURVE",
"846 757 OFFCURVE",
"765 666 OFFCURVE",
"636 611 CURVE SMOOTH",
"424 513 LINE SMOOTH",
"279 450 OFFCURVE",
"154 365 OFFCURVE",
"136 147 CURVE SMOOTH",
"125 0 LINE",
"834 0 LINE",
"837 70 LINE",
"194 70 LINE",
"202 154 LINE"
);
}
);
width = 996;
},
{
layerId = "2146CDF3-509B-498B-BCC4-8BA41979C9D7";
paths = (
{
closed = 1;
nodes = (
"427 354 OFFCURVE",
"449 374 OFFCURVE",
"521 399 CURVE SMOOTH",
"794 506 LINE SMOOTH",
"1045 613 OFFCURVE",
"1153 744 OFFCURVE",
"1168 949 CURVE SMOOTH",
"1197 1214 OFFCURVE",
"996 1377 OFFCURVE",
"741 1377 CURVE SMOOTH",
"477 1377 OFFCURVE",
"230 1237 OFFCURVE",
"202 914 CURVE",
"534 914 LINE",
"560 1028 OFFCURVE",
"633 1092 OFFCURVE",
"720 1092 CURVE SMOOTH",
"818 1092 OFFCURVE",
"857 1028 OFFCURVE",
"852 962 CURVE",
"846 888 OFFCURVE",
"804 836 OFFCURVE",
"708 795 CURVE SMOOTH",
"437 691 LINE SMOOTH",
"227 608 OFFCURVE",
"148 483 OFFCURVE",
"123 265 CURVE SMOOTH",
"98 0 LINE",
"1077 0 LINE",
"1106 300 LINE",
"424 300 LINE",
"426 312 LINE"
);
}
);
width = 1141;
}
);
unicode = 0032;
},
{
glyphname = three;
lastChange = "2019-05-24 19:57:20 +0000";
layers = (
{
layerId = "AD226DB4-BE97-401A-8A1F-FC26A063DFB1";
paths = (
{
closed = 1;
nodes = (
"738 -15 OFFCURVE",
"877 121 OFFCURVE",
"899 326 CURVE",
"913 495 OFFCURVE",
"821 597 OFFCURVE",
"681 634 CURVE",
"817 686 OFFCURVE",
"897 776 OFFCURVE",
"913 908 CURVE",
"929 1090 OFFCURVE",
"793 1232 OFFCURVE",
"601 1232 CURVE SMOOTH",
"440 1232 OFFCURVE",
"292 1160 OFFCURVE",
"242 961 CURVE",
"308 961 LINE",
"356 1120 OFFCURVE",
"467 1164 OFFCURVE",
"589 1164 CURVE SMOOTH",
"758 1164 OFFCURVE",
"854 1051 OFFCURVE",
"838 905 CURVE SMOOTH",
"823 751 OFFCURVE",
"679 656 OFFCURVE",
"468 656 CURVE SMOOTH",
"430 656 LINE",
"420 595 LINE",
"522 595 LINE SMOOTH",
"763 595 OFFCURVE",
"844 473 OFFCURVE",
"830 328 CURVE SMOOTH",
"814 172 OFFCURVE",
"697 48 OFFCURVE",
"513 48 CURVE SMOOTH",
"330 48 OFFCURVE",
"184 151 OFFCURVE",
"206 362 CURVE",
"145 362 LINE",
"119 114 OFFCURVE",
"293 -15 OFFCURVE",
"502 -15 CURVE SMOOTH"
);
}
);
width = 1003;
},
{
layerId = "2146CDF3-509B-498B-BCC4-8BA41979C9D7";
paths = (
{
closed = 1;
nodes = (
"896 -35 OFFCURVE",
"1134 141 OFFCURVE",
"1156 386 CURVE",
"1170 534 OFFCURVE",
"1090 643 OFFCURVE",
"957 706 CURVE",
"1086 752 OFFCURVE",
"1160 861 OFFCURVE",
"1170 993 CURVE",
"1192 1229 OFFCURVE",
"1003 1377 OFFCURVE",
"713 1377 CURVE SMOOTH",
"427 1377 OFFCURVE",
"213 1239 OFFCURVE",
"163 934 CURVE",
"478 934 LINE",
"507 1035 OFFCURVE",
"598 1079 OFFCURVE",
"701 1079 CURVE SMOOTH",
"818 1079 OFFCURVE",
"854 1024 OFFCURVE",
"851 951 CURVE SMOOTH",
"843 863 OFFCURVE",
"784 807 OFFCURVE",
"692 807 CURVE SMOOTH",
"502 807 LINE",
"480 549 LINE",
"667 549 LINE SMOOTH",
"783 549 OFFCURVE",
"844 512 OFFCURVE",
"836 419 CURVE SMOOTH",
"827 330 OFFCURVE",
"743 272 OFFCURVE",
"618 272 CURVE SMOOTH",
"488 272 OFFCURVE",
"427 342 OFFCURVE",
"423 434 CURVE",
"99 434 LINE",
"73 127 OFFCURVE",
"326 -35 OFFCURVE",
"593 -35 CURVE SMOOTH"
);
}
);
width = 1187;
}
);
unicode = 0033;
},
{
glyphname = four;
lastChange = "2019-05-24 19:57:20 +0000";
layers = (
{
layerId = "AD226DB4-BE97-401A-8A1F-FC26A063DFB1";
paths = (
{
closed = 1;
nodes = (
"692 0 LINE",
"720 321 LINE",
"909 321 LINE",
"919 386 LINE",
"729 386 LINE",
"810 1237 LINE",
"760 1237 LINE",
"90 383 LINE",
"83 321 LINE",
"658 321 LINE",
"632 0 LINE"
);
},
{
closed = 1;
nodes = (
"728 1095 LINE",
"661 383 LINE",
"171 383 LINE"
);
}
);
width = 937;
},
{
layerId = "2146CDF3-509B-498B-BCC4-8BA41979C9D7";
paths = (
{
closed = 1;
nodes = (
"928 0 LINE",
"956 269 LINE",
"1166 269 LINE",
"1188 550 LINE",
"979 550 LINE",
"1053 1355 LINE",
"760 1355 LINE",
"77 514 LINE",
"56 269 LINE",
"658 269 LINE",
"632 0 LINE"
);
},
{
closed = 1;
nodes = (
"734 885 LINE",
"700 514 LINE",
"428 514 LINE"
);
}
);
width = 1147;
}
);
unicode = 0034;
},
{
glyphname = five;
lastChange = "2019-05-24 19:57:20 +0000";
layers = (
{
layerId = "AD226DB4-BE97-401A-8A1F-FC26A063DFB1";
paths = (
{
closed = 1;
nodes = (
"710 -15 OFFCURVE",
"861 149 OFFCURVE",
"887 382 CURVE SMOOTH",
"907 616 OFFCURVE",
"771 729 OFFCURVE",
"518 729 CURVE SMOOTH",
"466 729 OFFCURVE",
"403 721 OFFCURVE",
"347 711 CURVE",
"426 1149 LINE",
"912 1149 LINE",
"919 1215 LINE",
"369 1215 LINE",
"270 663 LINE",
"518 663 LINE SMOOTH",
"723 663 OFFCURVE",
"831 566 OFFCURVE",
"815 382 CURVE SMOOTH",
"797 190 OFFCURVE",
"678 48 OFFCURVE",
"487 48 CURVE SMOOTH",
"328 48 OFFCURVE",
"206 141 OFFCURVE",
"223 309 CURVE",
"163 309 LINE",
"139 93 OFFCURVE",
"307 -15 OFFCURVE",
"480 -15 CURVE SMOOTH"
);
}
);
width = 981;
},
{
layerId = "2146CDF3-509B-498B-BCC4-8BA41979C9D7";
paths = (
{
closed = 1;
nodes = (
"849 -35 OFFCURVE",
"1071 188 OFFCURVE",
"1090 461 CURVE SMOOTH",
"1117 707 OFFCURVE",
"968 854 OFFCURVE",
"735 854 CURVE SMOOTH",
"683 854 OFFCURVE",
"600 846 OFFCURVE",
"538 836 CURVE",
"577 1044 LINE",
"1076 1044 LINE",
"1103 1346 LINE",
"317 1346 LINE",
"191 611 LINE",
"609 611 LINE SMOOTH",
"743 611 OFFCURVE",
"798 560 OFFCURVE",
"788 461 CURVE SMOOTH",
"777 354 OFFCURVE",
"684 272 OFFCURVE",
"586 272 CURVE SMOOTH",
"486 272 OFFCURVE",
"423 319 OFFCURVE",
"433 434 CURVE",
"124 434 LINE",
"106 139 OFFCURVE",
"261 -35 OFFCURVE",
"559 -35 CURVE SMOOTH"
);
}
);
width = 1086;
}
);
unicode = 0035;
},
{
glyphname = six;
lastChange = "2019-05-24 19:57:14 +0000";
layers = (
{
layerId = "AD226DB4-BE97-401A-8A1F-FC26A063DFB1";
paths = (
{
closed = 1;
nodes = (
"703 -20 OFFCURVE",
"853 125 OFFCURVE",
"877 342 CURVE SMOOTH",
"895 561 OFFCURVE",
"751 717 OFFCURVE",
"564 717 CURVE SMOOTH",
"402 717 OFFCURVE",
"241 620 OFFCURVE",
"208 334 CURVE",
"175 835 OFFCURVE",
"384 1164 OFFCURVE",
"639 1164 CURVE SMOOTH",
"781 1164 OFFCURVE",
"842 1075 OFFCURVE",
"854 938 CURVE",
"926 938 LINE",
"917 1109 OFFCURVE",
"821 1232 OFFCURVE",
"647 1232 CURVE SMOOTH",
"370 1232 OFFCURVE",
"192 978 OFFCURVE",
"155 584 CURVE SMOOTH",
"127 248 OFFCURVE",
"246 -20 OFFCURVE",
"495 -20 CURVE SMOOTH"
);
},
{
closed = 1;
nodes = (
"351 48 OFFCURVE",
"243 157 OFFCURVE",
"260 344 CURVE SMOOTH",
"274 501 OFFCURVE",
"403 635 OFFCURVE",
"561 635 CURVE SMOOTH",
"721 635 OFFCURVE",
"824 524 OFFCURVE",
"807 344 CURVE SMOOTH",
"791 157 OFFCURVE",
"666 48 OFFCURVE",
"502 48 CURVE SMOOTH"
);
}
);
width = 967;
},
{
layerId = "2146CDF3-509B-498B-BCC4-8BA41979C9D7";
paths = (
{
closed = 1;
nodes = (
"900 -33 OFFCURVE",
"1110 145 OFFCURVE",
"1134 408 CURVE SMOOTH",
"1158 660 OFFCURVE",
"1027 842 OFFCURVE",
"788 842 CURVE SMOOTH",
"638 842 OFFCURVE",
"491 778 OFFCURVE",
"432 558 CURVE",
"451 874 OFFCURVE",
"554 1079 OFFCURVE",
"738 1079 CURVE SMOOTH",
"814 1079 OFFCURVE",
"855 1029 OFFCURVE",
"854 944 CURVE",
"1169 944 LINE",
"1193 1208 OFFCURVE",
"1018 1377 OFFCURVE",
"752 1377 CURVE SMOOTH",
"436 1377 OFFCURVE",
"179 1129 OFFCURVE",
"135 650 CURVE SMOOTH",
"94 248 OFFCURVE",
"306 -33 OFFCURVE",
"626 -33 CURVE SMOOTH"
);
},
{
closed = 1;
nodes = (
"561 272 OFFCURVE",
"493 335 OFFCURVE",
"503 423 CURVE SMOOTH",
"510 528 OFFCURVE",
"594 583 OFFCURVE",
"679 583 CURVE SMOOTH",
"767 583 OFFCURVE",
"837 524 OFFCURVE",
"827 423 CURVE SMOOTH",
"818 335 OFFCURVE",
"738 272 OFFCURVE",
"653 272 CURVE SMOOTH"
);
}
);
width = 1164;
}
);
unicode = 0036;
},
{
glyphname = seven;
lastChange = "2019-05-24 19:57:14 +0000";
layers = (
{
layerId = "AD226DB4-BE97-401A-8A1F-FC26A063DFB1";
paths = (
{
closed = 1;
nodes = (
"220 0 LINE",
"868 1155 LINE",
"873 1215 LINE",
"158 1215 LINE",
"152 1145 LINE",
"793 1145 LINE",
"130 0 LINE"
);
}
);
width = 792;
},
{
layerId = "2146CDF3-509B-498B-BCC4-8BA41979C9D7";
paths = (
{
closed = 1;
nodes = (
"450 0 LINE",
"1019 1024 LINE",
"1051 1346 LINE",
"171 1346 LINE",
"139 1027 LINE",
"668 1027 LINE",
"51 0 LINE"
);
}
);
width = 956;
}
);
unicode = 0037;
},
{
glyphname = eight;
lastChange = "2019-05-24 19:57:20 +0000";
layers = (
{
layerId = "AD226DB4-BE97-401A-8A1F-FC26A063DFB1";
paths = (
{
closed = 1;
nodes = (
"775 -15 OFFCURVE",
"942 99 OFFCURVE",
"962 281 CURVE SMOOTH",
"978 433 OFFCURVE",
"898 517 OFFCURVE",
"747 582 CURVE SMOOTH",
"693 603 LINE",
"866 629 OFFCURVE",
"962 764 OFFCURVE",
"974 906 CURVE SMOOTH",
"994 1089 OFFCURVE",
"858 1232 OFFCURVE",
"639 1232 CURVE SMOOTH",
"401 1232 OFFCURVE",
"244 1088 OFFCURVE",
"231 920 CURVE SMOOTH",
"212 769 OFFCURVE",
"327 679 OFFCURVE",
"420 634 CURVE",
"264 603 OFFCURVE",
"153 487 OFFCURVE",
"141 321 CURVE SMOOTH",
"121 126 OFFCURVE",
"286 -15 OFFCURVE",
"515 -15 CURVE SMOOTH"
);
},
{
closed = 1;
nodes = (
"329 48 OFFCURVE",
"190 145 OFFCURVE",
"209 324 CURVE SMOOTH",
"221 451 OFFCURVE",
"333 573 OFFCURVE",
"498 602 CURVE",
"711 511 LINE",
"827 465 OFFCURVE",
"905 394 OFFCURVE",
"892 286 CURVE SMOOTH",
"880 144 OFFCURVE",
"730 48 OFFCURVE",
"527 48 CURVE SMOOTH"
);
},
{
closed = 1;
nodes = (
"477 697 LINE SMOOTH",
"364 748 OFFCURVE",
"297 802 OFFCURVE",
"305 918 CURVE SMOOTH",
"323 1050 OFFCURVE",
"454 1164 OFFCURVE",
"628 1164 CURVE SMOOTH",
"811 1164 OFFCURVE",
"925 1055 OFFCURVE",
"908 907 CURVE SMOOTH",
"892 755 OFFCURVE",
"767 649 OFFCURVE",
"601 643 CURVE"
);
}
);
width = 1043;
},
{
layerId = "2146CDF3-509B-498B-BCC4-8BA41979C9D7";
paths = (
{
closed = 1;
nodes = (
"959 -35 OFFCURVE",
"1172 145 OFFCURVE",
"1192 380 CURVE SMOOTH",
"1208 564 OFFCURVE",
"1115 648 OFFCURVE",
"944 727 CURVE SMOOTH",
"962 721 LINE",
"1102 754 OFFCURVE",
"1198 855 OFFCURVE",
"1210 978 CURVE SMOOTH",
"1230 1214 OFFCURVE",
"1022 1377 OFFCURVE",
"744 1377 CURVE SMOOTH",
"428 1377 OFFCURVE",
"238 1246 OFFCURVE",
"211 999 CURVE SMOOTH",
"199 821 OFFCURVE",
"307 706 OFFCURVE",
"420 640 CURVE",
"258 623 OFFCURVE",
"126 526 OFFCURVE",
"108 367 CURVE SMOOTH",
"88 139 OFFCURVE",
"273 -35 OFFCURVE",
"614 -35 CURVE SMOOTH"
);
},
{
closed = 1;
nodes = (
"513 272 OFFCURVE",
"414 323 OFFCURVE",
"419 403 CURVE SMOOTH",
"424 478 OFFCURVE",
"530 534 OFFCURVE",
"656 530 CURVE",
"816 459 LINE",
"866 432 OFFCURVE",
"885 400 OFFCURVE",
"886 358 CURVE SMOOTH",
"880 308 OFFCURVE",
"815 272 OFFCURVE",
"639 272 CURVE SMOOTH"
);
},
{
closed = 1;
nodes = (
"582 894 LINE SMOOTH",
"528 918 OFFCURVE",
"507 947 OFFCURVE",
"515 984 CURVE SMOOTH",
"514 1044 OFFCURVE",
"612 1079 OFFCURVE",
"719 1079 CURVE SMOOTH",
"831 1079 OFFCURVE",
"905 1035 OFFCURVE",
"902 953 CURVE SMOOTH",
"892 880 OFFCURVE",
"800 833 OFFCURVE",
"713 834 CURVE"
);
}
);
width = 1234;
}
);
unicode = 0038;
},
{
glyphname = nine;
lastChange = "2019-05-24 19:57:20 +0000";
layers = (
{
layerId = "AD226DB4-BE97-401A-8A1F-FC26A063DFB1";
paths = (
{
closed = 1;
nodes = (
"764 -15 OFFCURVE",
"911 227 OFFCURVE",
"949 632 CURVE SMOOTH",
"985 1004 OFFCURVE",
"841 1232 OFFCURVE",
"602 1232 CURVE SMOOTH",
"400 1232 OFFCURVE",
"246 1089 OFFCURVE",
"226 874 CURVE SMOOTH",
"204 655 OFFCURVE",
"346 498 OFFCURVE",
"537 498 CURVE SMOOTH",
"718 498 OFFCURVE",
"852 626 OFFCURVE",
"883 837 CURVE",
"885 770 OFFCURVE",
"883 722 OFFCURVE",
"879 657 CURVE SMOOTH",
"840 284 OFFCURVE",
"719 48 OFFCURVE",
"490 48 CURVE SMOOTH",
"315 48 OFFCURVE",
"229 172 OFFCURVE",
"245 359 CURVE",
"173 359 LINE",
"153 148 OFFCURVE",
"273 -15 OFFCURVE",
"484 -15 CURVE SMOOTH"
);
},
{
closed = 1;
nodes = (
"378 575 OFFCURVE",
"278 689 OFFCURVE",
"296 869 CURVE SMOOTH",
"312 1053 OFFCURVE",
"435 1162 OFFCURVE",
"595 1162 CURVE SMOOTH",
"757 1162 OFFCURVE",
"856 1053 OFFCURVE",
"839 869 CURVE SMOOTH",
"827 709 OFFCURVE",
"700 575 OFFCURVE",
"542 575 CURVE SMOOTH"
);
}
);
width = 990;
},
{
layerId = "2146CDF3-509B-498B-BCC4-8BA41979C9D7";
paths = (
{
closed = 1;
nodes = (
"903 -35 OFFCURVE",
"1108 254 OFFCURVE",
"1152 692 CURVE SMOOTH",
"1188 1095 OFFCURVE",
"966 1377 OFFCURVE",
"662 1377 CURVE SMOOTH",
"387 1377 OFFCURVE",
"180 1201 OFFCURVE",
"154 934 CURVE SMOOTH",
"132 682 OFFCURVE",
"267 504 OFFCURVE",
"498 504 CURVE SMOOTH",
"646 504 OFFCURVE",
"792 566 OFFCURVE",
"863 791 CURVE",
"865 764 OFFCURVE",
"863 735 OFFCURVE",
"859 709 CURVE SMOOTH",
"834 448 OFFCURVE",
"752 272 OFFCURVE",
"575 272 CURVE SMOOTH",
"499 272 OFFCURVE",
"432 317 OFFCURVE",
"436 398 CURVE",
"127 398 LINE",
"101 135 OFFCURVE",
"300 -35 OFFCURVE",
"556 -35 CURVE SMOOTH"
);
},
{
closed = 1;
nodes = (
"523 766 OFFCURVE",
"448 820 OFFCURVE",
"460 921 CURVE SMOOTH",
"470 1014 OFFCURVE",
"553 1077 OFFCURVE",
"634 1077 CURVE SMOOTH",
"718 1077 OFFCURVE",
"796 1014 OFFCURVE",
"787 921 CURVE SMOOTH",
"775 821 OFFCURVE",
"687 766 OFFCURVE",
"608 766 CURVE SMOOTH"
);
}
);
width = 1160;
}
);
unicode = 0039;
},
{
glyphname = zero.propold;
lastChange = "2019-05-20 19:50:31 +0000";
layers = (
{
layerId = "AD226DB4-BE97-401A-8A1F-FC26A063DFB1";
paths = (
{
closed = 1;
nodes = (
"639 -15 OFFCURVE",
"797 146 OFFCURVE",
"833 507 CURVE SMOOTH",
"867 868 OFFCURVE",
"739 1033 OFFCURVE",
"539 1033 CURVE SMOOTH",
"328 1033 OFFCURVE",
"182 868 OFFCURVE",
"149 507 CURVE SMOOTH",
"113 146 OFFCURVE",
"231 -15 OFFCURVE",
"439 -15 CURVE SMOOTH"
);
},
{
closed = 1;
nodes = (
"257 44 OFFCURVE",
"186 212 OFFCURVE",
"221 507 CURVE SMOOTH",
"247 801 OFFCURVE",
"343 975 OFFCURVE",
"531 975 CURVE SMOOTH",
"721 975 OFFCURVE",
"785 801 OFFCURVE",
"757 507 CURVE SMOOTH",
"729 212 OFFCURVE",
"636 44 OFFCURVE",
"447 44 CURVE SMOOTH"
);
}
);
width = 880;
},
{
layerId = "2146CDF3-509B-498B-BCC4-8BA41979C9D7";
paths = (
{
closed = 1;
nodes = (
"830 -35 OFFCURVE",
"1047 206 OFFCURVE",
"1083 606 CURVE SMOOTH",
"1124 1007 OFFCURVE",
"949 1243 OFFCURVE",
"670 1243 CURVE SMOOTH",
"400 1243 OFFCURVE",
"169 1007 OFFCURVE",
"129 606 CURVE SMOOTH",
"93 206 OFFCURVE",
"277 -35 OFFCURVE",
"551 -35 CURVE SMOOTH"
);
},
{
closed = 1;
nodes = (
"460 268 OFFCURVE",
"410 370 OFFCURVE",
"424 606 CURVE SMOOTH",
"450 847 OFFCURVE",
"527 942 OFFCURVE",
"643 942 CURVE SMOOTH",
"760 942 OFFCURVE",
"818 847 OFFCURVE",
"796 606 CURVE SMOOTH",
"775 370 OFFCURVE",
"696 268 OFFCURVE",
"578 268 CURVE SMOOTH"
);
}
);
width = 1110;
}
);
},
{
glyphname = one.propold;
lastChange = "2019-05-24 19:57:20 +0000";
layers = (
{
layerId = "AD226DB4-BE97-401A-8A1F-FC26A063DFB1";
paths = (
{
closed = 1;
nodes = (
"349 0 LINE",
"440 1017 LINE",
"376 1017 LINE",
"328 961 OFFCURVE",
"258 929 OFFCURVE",
"189 915 CURVE",
"181 841 LINE",
"241 843 OFFCURVE",
"314 876 OFFCURVE",
"371 927 CURVE",
"289 0 LINE"
);
}
);
width = 546;
},
{
layerId = "2146CDF3-509B-498B-BCC4-8BA41979C9D7";
paths = (
{
closed = 1;
nodes = (
"546 0 LINE",
"664 1214 LINE",
"448 1214 LINE",
"334 1139 OFFCURVE",
"252 1113 OFFCURVE",
"162 1106 CURVE",
"135 789 LINE",
"195 791 OFFCURVE",
"254 797 OFFCURVE",
"325 822 CURVE",
"243 0 LINE"
);
}
);
width = 697;
}
);
},
{
glyphname = two.propold;
lastChange = "2019-05-24 19:57:20 +0000";
layers = (
{
layerId = "AD226DB4-BE97-401A-8A1F-FC26A063DFB1";
paths = (
{
closed = 1;
nodes = (
"835 0 LINE",
"838 70 LINE",
"194 70 LINE",
"206 151 LINE SMOOTH",
"212 274 OFFCURVE",
"279 372 OFFCURVE",
"437 408 CURVE SMOOTH",
"652 464 LINE SMOOTH",
"806 501 OFFCURVE",
"902 582 OFFCURVE",
"915 733 CURVE SMOOTH",
"927 881 OFFCURVE",
"800 1033 OFFCURVE",
"604 1033 CURVE SMOOTH",
"378 1033 OFFCURVE",
"251 917 OFFCURVE",
"208 750 CURVE",
"281 750 LINE",
"314 889 OFFCURVE",
"434 964 OFFCURVE",
"596 964 CURVE SMOOTH",
"768 964 OFFCURVE",
"860 863 OFFCURVE",
"845 747 CURVE SMOOTH",
"835 624 OFFCURVE",
"756 558 OFFCURVE",
"631 530 CURVE SMOOTH",
"425 476 LINE SMOOTH",
"250 436 OFFCURVE",
"156 339 OFFCURVE",
"134 138 CURVE SMOOTH",
"125 0 LINE"
);
}
);
width = 995;
},
{
layerId = "2146CDF3-509B-498B-BCC4-8BA41979C9D7";
paths = (
{
closed = 1;
nodes = (
"1032 0 LINE",
"1062 300 LINE",
"424 300 LINE",
"423 329 LINE SMOOTH",
"429 365 OFFCURVE",
"463 385 OFFCURVE",
"536 408 CURVE SMOOTH",
"718 458 LINE SMOOTH",
"970 528 OFFCURVE",
"1072 642 OFFCURVE",
"1093 851 CURVE SMOOTH",
"1118 1084 OFFCURVE",
"964 1243 OFFCURVE",
"695 1243 CURVE SMOOTH",
"438 1243 OFFCURVE",
"218 1120 OFFCURVE",
"202 829 CURVE",
"531 829 LINE",
"544 922 OFFCURVE",
"604 958 OFFCURVE",
"687 958 CURVE SMOOTH",
"762 958 OFFCURVE",
"800 909 OFFCURVE",
"799 846 CURVE SMOOTH",
"789 769 OFFCURVE",
"750 716 OFFCURVE",
"611 675 CURVE SMOOTH",
"452 634 LINE SMOOTH",
"244 575 OFFCURVE",
"143 470 OFFCURVE",
"121 229 CURVE SMOOTH",
"98 0 LINE"
);
}
);
width = 1113;
}
);
},
{
glyphname = three.propold;
lastChange = "2019-05-24 19:57:20 +0000";
layers = (
{
layerId = "AD226DB4-BE97-401A-8A1F-FC26A063DFB1";
paths = (
{
closed = 1;
nodes = (
"650 -217 OFFCURVE",
"821 -77 OFFCURVE",
"839 126 CURVE SMOOTH",
"855 292 OFFCURVE",
"764 432 OFFCURVE",
"620 474 CURVE",
"750 519 OFFCURVE",
"835 588 OFFCURVE",
"845 718 CURVE SMOOTH",
"860 906 OFFCURVE",
"729 1033 OFFCURVE",
"533 1033 CURVE SMOOTH",
"377 1033 OFFCURVE",
"228 960 OFFCURVE",
"176 763 CURVE",
"243 763 LINE",
"294 917 OFFCURVE",
"403 964 OFFCURVE",
"530 964 CURVE SMOOTH",
"700 964 OFFCURVE",
"793 863 OFFCURVE",
"772 721 CURVE SMOOTH",
"760 562 OFFCURVE",
"622 492 OFFCURVE",
"411 492 CURVE SMOOTH",
"368 492 LINE",
"367 431 LINE",
"466 431 LINE SMOOTH",
"712 431 OFFCURVE",
"781 278 OFFCURVE",
"769 125 CURVE SMOOTH",
"753 -34 OFFCURVE",
"609 -151 OFFCURVE",
"421 -151 CURVE SMOOTH",
"239 -151 OFFCURVE",
"124 -49 OFFCURVE",
"147 161 CURVE",
"81 161 LINE",
"55 -87 OFFCURVE",
"207 -217 OFFCURVE",
"414 -217 CURVE SMOOTH"
);
}
);
width = 962;
},
{
layerId = "2146CDF3-509B-498B-BCC4-8BA41979C9D7";
paths = (
{
closed = 1;
nodes = (
"789 -250 OFFCURVE",
"999 -57 OFFCURVE",
"1023 192 CURVE SMOOTH",
"1039 358 OFFCURVE",
"981 492 OFFCURVE",
"844 565 CURVE",
"967 624 OFFCURVE",
"1038 727 OFFCURVE",
"1055 869 CURVE SMOOTH",
"1077 1076 OFFCURVE",
"926 1243 OFFCURVE",
"638 1243 CURVE SMOOTH",
"350 1243 OFFCURVE",
"162 1124 OFFCURVE",
"110 815 CURVE",
"427 815 LINE",
"439 897 OFFCURVE",
"515 970 OFFCURVE",
"615 970 CURVE SMOOTH",
"706 970 OFFCURVE",
"760 909 OFFCURVE",
"759 826 CURVE SMOOTH",
"747 732 OFFCURVE",
"682 662 OFFCURVE",
"589 662 CURVE SMOOTH",
"440 662 LINE",
"413 404 LINE",
"545 404 LINE SMOOTH",
"652 404 OFFCURVE",
"742 338 OFFCURVE",
"730 224 CURVE SMOOTH",
"720 111 OFFCURVE",
"636 27 OFFCURVE",
"526 27 CURVE SMOOTH",
"423 27 OFFCURVE",
"341 76 OFFCURVE",
"338 207 CURVE",
"35 207 LINE",
"9 -114 OFFCURVE",
"240 -250 OFFCURVE",
"499 -250 CURVE SMOOTH"
);
}
);
width = 1113;
}
);
},
{
glyphname = four.propold;
lastChange = "2019-05-24 19:57:20 +0000";
layers = (
{
layerId = "AD226DB4-BE97-401A-8A1F-FC26A063DFB1";
paths = (
{
closed = 1;
nodes = (
"668 -203 LINE",
"702 119 LINE",
"891 119 LINE",
"897 177 LINE",
"707 177 LINE",
"792 1031 LINE",
"738 1031 LINE",
"71 180 LINE",
"63 119 LINE",
"642 119 LINE",
"610 -203 LINE"
);
},
{
closed = 1;
nodes = (
"710 890 LINE",
"647 180 LINE",
"150 180 LINE"
);
}
);
width = 939;
},
{
layerId = "2146CDF3-509B-498B-BCC4-8BA41979C9D7";
paths = (
{
closed = 1;
nodes = (
"904 -223 LINE",
"932 86 LINE",
"1141 86 LINE",
"1166 374 LINE",
"957 374 LINE",
"1035 1215 LINE",
"738 1215 LINE",
"51 331 LINE",
"30 86 LINE",
"629 86 LINE",
"597 -223 LINE"
);
},
{
closed = 1;
nodes = (
"710 751 LINE",
"667 331 LINE",
"374 331 LINE"
);
}
);
width = 1149;
}
);
},
{
glyphname = five.propold;
lastChange = "2019-05-24 19:57:20 +0000";
layers = (
{
layerId = "AD226DB4-BE97-401A-8A1F-FC26A063DFB1";
paths = (
{
closed = 1;
nodes = (
"671 -217 OFFCURVE",
"845 -42 OFFCURVE",
"867 192 CURVE SMOOTH",
"891 430 OFFCURVE",
"755 562 OFFCURVE",
"505 562 CURVE SMOOTH",
"458 562 OFFCURVE",
"394 560 OFFCURVE",
"336 549 CURVE",
"410 950 LINE",
"894 950 LINE",
"903 1012 LINE",
"351 1012 LINE",
"260 499 LINE",
"509 499 LINE SMOOTH",
"712 499 OFFCURVE",
"813 378 OFFCURVE",
"797 192 CURVE SMOOTH",
"779 1 OFFCURVE",
"631 -151 OFFCURVE",
"437 -151 CURVE SMOOTH",
"282 -151 OFFCURVE",
"187 -56 OFFCURVE",
"201 113 CURVE",
"143 113 LINE",
"119 -103 OFFCURVE",
"257 -217 OFFCURVE",
"434 -217 CURVE SMOOTH"
);
}
);
width = 985;
},
{
layerId = "2146CDF3-509B-498B-BCC4-8BA41979C9D7";
paths = (
{
closed = 1;
nodes = (
"789 -250 OFFCURVE",
"1029 -42 OFFCURVE",
"1058 252 CURVE SMOOTH",
"1082 521 OFFCURVE",
"933 713 OFFCURVE",
"683 713 CURVE SMOOTH",
"609 713 OFFCURVE",
"564 699 OFFCURVE",
"506 680 CURVE",
"555 944 LINE",
"1052 944 LINE",
"1081 1248 LINE",
"318 1248 LINE",
"175 447 LINE",
"555 447 LINE SMOOTH",
"712 447 OFFCURVE",
"774 378 OFFCURVE",
"764 252 CURVE SMOOTH",
"752 126 OFFCURVE",
"658 52 OFFCURVE",
"555 52 CURVE SMOOTH",
"452 52 OFFCURVE",
"390 108 OFFCURVE",
"404 225 CURVE",
"104 225 LINE",
"80 -83 OFFCURVE",
"284 -250 OFFCURVE",
"519 -250 CURVE SMOOTH"
);
}
);
width = 1103;
}
);
},
{
glyphname = six.propold;
lastChange = "2019-05-24 19:57:14 +0000";
layers = (
{
layerId = "AD226DB4-BE97-401A-8A1F-FC26A063DFB1";
paths = (
{
closed = 1;
nodes = (
"703 -20 OFFCURVE",
"853 125 OFFCURVE",
"877 342 CURVE SMOOTH",
"895 561 OFFCURVE",
"751 717 OFFCURVE",
"564 717 CURVE SMOOTH",
"402 717 OFFCURVE",
"241 620 OFFCURVE",
"208 334 CURVE",
"175 835 OFFCURVE",
"384 1164 OFFCURVE",
"639 1164 CURVE SMOOTH",
"781 1164 OFFCURVE",
"842 1075 OFFCURVE",
"854 938 CURVE",
"926 938 LINE",
"917 1109 OFFCURVE",
"821 1232 OFFCURVE",
"647 1232 CURVE SMOOTH",
"370 1232 OFFCURVE",
"192 978 OFFCURVE",
"155 584 CURVE SMOOTH",
"127 248 OFFCURVE",
"246 -20 OFFCURVE",
"495 -20 CURVE SMOOTH"
);
},
{
closed = 1;
nodes = (
"351 48 OFFCURVE",
"243 157 OFFCURVE",
"260 344 CURVE SMOOTH",
"274 501 OFFCURVE",
"403 635 OFFCURVE",
"561 635 CURVE SMOOTH",
"721 635 OFFCURVE",
"824 524 OFFCURVE",
"807 344 CURVE SMOOTH",
"791 157 OFFCURVE",
"666 48 OFFCURVE",
"502 48 CURVE SMOOTH"
);
}
);
width = 967;
},
{
layerId = "2146CDF3-509B-498B-BCC4-8BA41979C9D7";
paths = (
{
closed = 1;
nodes = (
"900 -33 OFFCURVE",
"1110 145 OFFCURVE",
"1134 408 CURVE SMOOTH",
"1158 660 OFFCURVE",
"1027 842 OFFCURVE",
"788 842 CURVE SMOOTH",
"638 842 OFFCURVE",
"491 778 OFFCURVE",
"432 558 CURVE",
"451 874 OFFCURVE",
"554 1079 OFFCURVE",
"738 1079 CURVE SMOOTH",
"814 1079 OFFCURVE",
"855 1029 OFFCURVE",
"854 944 CURVE",
"1169 944 LINE",
"1193 1208 OFFCURVE",
"1018 1377 OFFCURVE",
"752 1377 CURVE SMOOTH",
"436 1377 OFFCURVE",
"179 1129 OFFCURVE",
"135 650 CURVE SMOOTH",
"94 248 OFFCURVE",
"306 -33 OFFCURVE",
"626 -33 CURVE SMOOTH"
);
},
{
closed = 1;
nodes = (
"561 272 OFFCURVE",
"493 335 OFFCURVE",
"503 423 CURVE SMOOTH",
"510 528 OFFCURVE",
"594 583 OFFCURVE",
"679 583 CURVE SMOOTH",
"767 583 OFFCURVE",
"837 524 OFFCURVE",
"827 423 CURVE SMOOTH",
"818 335 OFFCURVE",
"738 272 OFFCURVE",
"653 272 CURVE SMOOTH"
);
}
);
width = 1164;
}
);
},
{
glyphname = seven.propold;
lastChange = "2019-05-24 19:57:14 +0000";
layers = (
{
layerId = "AD226DB4-BE97-401A-8A1F-FC26A063DFB1";
paths = (
{
closed = 1;
nodes = (
"134 964 LINE",
"774 964 LINE",
"119 -183 LINE",
"200 -183 LINE",
"850 975 LINE",
"853 1033 LINE",
"139 1033 LINE"
);
}
);
width = 792;
},
{
layerId = "2146CDF3-509B-498B-BCC4-8BA41979C9D7";
paths = (
{
closed = 1;
nodes = (
"134 958 LINE",
"714 958 LINE",
"1 -222 LINE",
"364 -222 LINE",
"1014 955 LINE",
"1044 1243 LINE",
"159 1243 LINE"
);
}
);
width = 956;
}
);
},
{
glyphname = eight.propold;
lastChange = "2019-05-24 19:57:20 +0000";
layers = (
{
layerId = "AD226DB4-BE97-401A-8A1F-FC26A063DFB1";
paths = (
{
closed = 1;
nodes = (
"775 -15 OFFCURVE",
"942 99 OFFCURVE",
"962 281 CURVE SMOOTH",
"978 433 OFFCURVE",
"898 517 OFFCURVE",
"747 582 CURVE SMOOTH",
"693 603 LINE",
"866 629 OFFCURVE",
"962 764 OFFCURVE",
"974 906 CURVE SMOOTH",
"994 1089 OFFCURVE",
"858 1232 OFFCURVE",
"639 1232 CURVE SMOOTH",
"401 1232 OFFCURVE",
"244 1088 OFFCURVE",
"231 920 CURVE SMOOTH",
"212 769 OFFCURVE",
"327 679 OFFCURVE",
"420 634 CURVE",
"264 603 OFFCURVE",
"153 487 OFFCURVE",
"141 321 CURVE SMOOTH",
"121 126 OFFCURVE",
"286 -15 OFFCURVE",
"515 -15 CURVE SMOOTH"
);
},
{
closed = 1;
nodes = (
"329 48 OFFCURVE",
"190 145 OFFCURVE",
"209 324 CURVE SMOOTH",
"221 451 OFFCURVE",
"333 573 OFFCURVE",
"498 602 CURVE",
"711 511 LINE",
"827 465 OFFCURVE",
"905 394 OFFCURVE",
"892 286 CURVE SMOOTH",
"880 144 OFFCURVE",
"730 48 OFFCURVE",
"527 48 CURVE SMOOTH"
);
},
{
closed = 1;
nodes = (
"477 697 LINE SMOOTH",
"364 748 OFFCURVE",
"297 802 OFFCURVE",
"305 918 CURVE SMOOTH",
"323 1050 OFFCURVE",
"454 1164 OFFCURVE",
"628 1164 CURVE SMOOTH",
"811 1164 OFFCURVE",
"925 1055 OFFCURVE",
"908 907 CURVE SMOOTH",
"892 755 OFFCURVE",
"767 649 OFFCURVE",
"601 643 CURVE"
);
}
);
width = 1043;
},
{
layerId = "2146CDF3-509B-498B-BCC4-8BA41979C9D7";
paths = (
{
closed = 1;
nodes = (
"959 -35 OFFCURVE",
"1172 145 OFFCURVE",
"1192 380 CURVE SMOOTH",
"1208 564 OFFCURVE",
"1115 648 OFFCURVE",
"944 727 CURVE SMOOTH",
"962 721 LINE",
"1102 754 OFFCURVE",
"1198 855 OFFCURVE",
"1210 978 CURVE SMOOTH",
"1230 1214 OFFCURVE",
"1022 1377 OFFCURVE",
"744 1377 CURVE SMOOTH",
"428 1377 OFFCURVE",
"238 1246 OFFCURVE",
"211 999 CURVE SMOOTH",
"199 821 OFFCURVE",
"307 706 OFFCURVE",
"420 640 CURVE",
"258 623 OFFCURVE",
"126 526 OFFCURVE",
"108 367 CURVE SMOOTH",
"88 139 OFFCURVE",
"273 -35 OFFCURVE",
"614 -35 CURVE SMOOTH"
);
},
{
closed = 1;
nodes = (
"513 272 OFFCURVE",
"414 323 OFFCURVE",
"419 403 CURVE SMOOTH",
"424 478 OFFCURVE",
"530 534 OFFCURVE",
"656 530 CURVE",
"816 459 LINE",
"866 432 OFFCURVE",
"885 400 OFFCURVE",
"886 358 CURVE SMOOTH",
"880 308 OFFCURVE",
"815 272 OFFCURVE",
"639 272 CURVE SMOOTH"
);
},
{
closed = 1;
nodes = (
"582 894 LINE SMOOTH",
"528 918 OFFCURVE",
"507 947 OFFCURVE",
"515 984 CURVE SMOOTH",
"514 1044 OFFCURVE",
"612 1079 OFFCURVE",
"719 1079 CURVE SMOOTH",
"831 1079 OFFCURVE",
"905 1035 OFFCURVE",
"902 953 CURVE SMOOTH",
"892 880 OFFCURVE",
"800 833 OFFCURVE",
"713 834 CURVE"
);
}
);
width = 1234;
}
);
},
{
glyphname = nine.propold;
lastChange = "2019-05-24 19:57:20 +0000";
layers = (
{
layerId = "AD226DB4-BE97-401A-8A1F-FC26A063DFB1";
paths = (
{
closed = 1;
nodes = (
"750 -217 OFFCURVE",
"891 34 OFFCURVE",
"931 432 CURVE SMOOTH",
"965 803 OFFCURVE",
"818 1033 OFFCURVE",
"580 1033 CURVE SMOOTH",
"378 1033 OFFCURVE",
"226 888 OFFCURVE",
"210 671 CURVE SMOOTH",
"188 454 OFFCURVE",
"327 297 OFFCURVE",
"512 297 CURVE SMOOTH",
"699 297 OFFCURVE",
"831 430 OFFCURVE",
"862 638 CURVE",
"867 569 OFFCURVE",
"860 517 OFFCURVE",
"863 459 CURVE",
"818 78 OFFCURVE",
"704 -151 OFFCURVE",
"468 -151 CURVE SMOOTH",
"291 -151 OFFCURVE",
"204 -25 OFFCURVE",
"225 159 CURVE",
"153 159 LINE",
"133 -51 OFFCURVE",
"258 -217 OFFCURVE",
"464 -217 CURVE SMOOTH"
);
},
{
closed = 1;
nodes = (
"361 378 OFFCURVE",
"259 487 OFFCURVE",
"276 671 CURVE SMOOTH",
"296 858 OFFCURVE",
"417 964 OFFCURVE",
"577 964 CURVE SMOOTH",
"736 964 OFFCURVE",
"840 858 OFFCURVE",
"823 671 CURVE SMOOTH",
"805 514 OFFCURVE",
"679 378 OFFCURVE",
"524 378 CURVE SMOOTH"
);
}
);
width = 988;
},
{
layerId = "2146CDF3-509B-498B-BCC4-8BA41979C9D7";
paths = (
{
closed = 1;
nodes = (
"822 -250 OFFCURVE",
"1088 21 OFFCURVE",
"1128 498 CURVE SMOOTH",
"1162 836 OFFCURVE",
"1035 1243 OFFCURVE",
"652 1243 CURVE SMOOTH",
"378 1243 OFFCURVE",
"166 1046 OFFCURVE",
"138 783 CURVE SMOOTH",
"116 526 OFFCURVE",
"281 343 OFFCURVE",
"518 343 CURVE SMOOTH",
"660 343 OFFCURVE",
"798 436 OFFCURVE",
"849 632 CURVE",
"847 602 OFFCURVE",
"847 556 OFFCURVE",
"836 511 CURVE",
"818 236 OFFCURVE",
"717 52 OFFCURVE",
"553 52 CURVE SMOOTH",
"469 52 OFFCURVE",
"428 93 OFFCURVE",
"422 179 CURVE",
"114 179 LINE",
"87 -84 OFFCURVE",
"271 -250 OFFCURVE",
"524 -250 CURVE SMOOTH"
);
},
{
closed = 1;
nodes = (
"486 602 OFFCURVE",
"437 684 OFFCURVE",
"446 783 CURVE SMOOTH",
"454 871 OFFCURVE",
"516 958 OFFCURVE",
"623 958 CURVE SMOOTH",
"730 958 OFFCURVE",
"780 871 OFFCURVE",
"771 783 CURVE SMOOTH",
"766 678 OFFCURVE",
"699 602 OFFCURVE",
"590 602 CURVE SMOOTH"
);
}
);
width = 1158;
}
);
},
{
glyphname = dollar;
lastChange = "2019-05-24 19:57:20 +0000";
layers = (
{
layerId = "AD226DB4-BE97-401A-8A1F-FC26A063DFB1";
paths = (
{
closed = 1;
nodes = (
"530 -160 LINE",
"542 -13 LINE",
"771 2 OFFCURVE",
"904 155 OFFCURVE",
"922 313 CURVE SMOOTH",
"938 485 OFFCURVE",
"838 583 OFFCURVE",
"695 632 CURVE SMOOTH",
"607 660 LINE",
"652 1162 LINE",
"790 1153 OFFCURVE",
"864 1087 OFFCURVE",
"879 965 CURVE",
"943 965 LINE",
"937 1114 OFFCURVE",
"839 1217 OFFCURVE",
"661 1224 CURVE",
"673 1374 LINE",
"605 1374 LINE",
"593 1226 LINE",
"385 1210 OFFCURVE",
"269 1089 OFFCURVE",
"257 924 CURVE SMOOTH",
"237 757 OFFCURVE",
"326 686 OFFCURVE",
"512 622 CURVE SMOOTH",
"533 613 LINE",
"476 50 LINE",
"320 64 OFFCURVE",
"206 157 OFFCURVE",
"220 348 CURVE",
"162 348 LINE",
"145 132 OFFCURVE",
"285 0 OFFCURVE",
"471 -14 CURVE",
"459 -160 LINE"
);
},
{
closed = 1;
nodes = (
"600 588 LINE",
"673 564 LINE SMOOTH",
"794 522 OFFCURVE",
"861 441 OFFCURVE",
"853 314 CURVE SMOOTH",
"837 189 OFFCURVE",
"727 66 OFFCURVE",
"547 50 CURVE"
);
},
{
closed = 1;
nodes = (
"489 699 LINE SMOOTH",
"363 744 OFFCURVE",
"312 802 OFFCURVE",
"322 920 CURVE SMOOTH",
"330 1046 OFFCURVE",
"428 1144 OFFCURVE",
"583 1156 CURVE",
"541 686 LINE"
);
}
);
width = 1027;
},
{
layerId = "2146CDF3-509B-498B-BCC4-8BA41979C9D7";
paths = (
{
closed = 1;
nodes = (
"760 -226 LINE",
"778 -33 LINE",
"1113 -11 OFFCURVE",
"1273 175 OFFCURVE",
"1291 365 CURVE SMOOTH",
"1307 537 OFFCURVE",
"1238 635 OFFCURVE",
"1050 717 CURVE SMOOTH",
"857 799 LINE",
"888 1083 LINE",
"960 1048 OFFCURVE",
"1003 982 OFFCURVE",
"1004 926 CURVE",
"1298 926 LINE",
"1279 1174 OFFCURVE",
"1168 1335 OFFCURVE",
"911 1375 CURVE",
"930 1532 LINE",
"730 1532 LINE",
"711 1377 LINE",
"412 1355 OFFCURVE",
"236 1207 OFFCURVE",
"211 996 CURVE SMOOTH",
"198 803 OFFCURVE",
"313 699 OFFCURVE",
"512 616 CURVE SMOOTH",
"638 567 LINE",
"615 280 LINE",
"484 300 OFFCURVE",
"436 348 OFFCURVE",
"450 439 CURVE",
"149 439 LINE",
"118 145 OFFCURVE",
"318 6 OFFCURVE",
"583 -27 CURVE",
"564 -226 LINE"
);
},
{
closed = 1;
nodes = (
"830 516 LINE",
"876 492 LINE SMOOTH",
"933 462 OFFCURVE",
"960 421 OFFCURVE",
"952 374 CURVE SMOOTH",
"949 320 OFFCURVE",
"911 283 OFFCURVE",
"810 274 CURVE"
);
},
{
closed = 1;
nodes = (
"614 890 LINE SMOOTH",
"560 914 OFFCURVE",
"536 947 OFFCURVE",
"539 986 CURVE SMOOTH",
"547 1040 OFFCURVE",
"592 1078 OFFCURVE",
"688 1096 CURVE",
"666 856 LINE"
);
}
);
width = 1362;
}
);
unicode = 0024;
},
{
glyphname = question;
lastChange = "2019-05-24 19:57:20 +0000";
layers = (
{
layerId = "AD226DB4-BE97-401A-8A1F-FC26A063DFB1";
paths = (
{
closed = 1;
nodes = (
"405 250 LINE",
"418 350 LINE SMOOTH",
"432 512 OFFCURVE",
"474 550 OFFCURVE",
"607 629 CURVE SMOOTH",
"763 724 OFFCURVE",
"825 801 OFFCURVE",
"841 937 CURVE SMOOTH",
"857 1091 OFFCURVE",
"744 1232 OFFCURVE",
"542 1232 CURVE SMOOTH",
"320 1232 OFFCURVE",
"191 1122 OFFCURVE",
"157 965 CURVE",
"235 965 LINE",
"278 1096 OFFCURVE",
"363 1164 OFFCURVE",
"530 1164 CURVE SMOOTH",
"695 1164 OFFCURVE",
"784 1073 OFFCURVE",
"774 943 CURVE SMOOTH",
"760 815 OFFCURVE",
"696 765 OFFCURVE",
"566 680 CURVE SMOOTH",
"411 591 OFFCURVE",
"370 521 OFFCURVE",
"354 351 CURVE SMOOTH",
"346 250 LINE"
);
},
{
closed = 1;
nodes = (
"381 -15 OFFCURVE",
"411 11 OFFCURVE",
"417 42 CURVE SMOOTH",
"419 78 OFFCURVE",
"394 115 OFFCURVE",
"358 115 CURVE SMOOTH",
"328 115 OFFCURVE",
"298 78 OFFCURVE",
"298 42 CURVE SMOOTH",
"295 11 OFFCURVE",
"317 -15 OFFCURVE",
"347 -15 CURVE SMOOTH"
);
}
);
width = 863;
},
{
layerId = "2146CDF3-509B-498B-BCC4-8BA41979C9D7";
paths = (
{
closed = 1;
nodes = (
"655 467 LINE",
"654 501 LINE SMOOTH",
"662 572 OFFCURVE",
"704 616 OFFCURVE",
"817 675 CURVE SMOOTH",
"947 737 OFFCURVE",
"1022 834 OFFCURVE",
"1032 976 CURVE SMOOTH",
"1054 1209 OFFCURVE",
"895 1377 OFFCURVE",
"608 1377 CURVE SMOOTH",
"326 1377 OFFCURVE",
"152 1201 OFFCURVE",
"118 926 CURVE",
"419 926 LINE",
"423 1011 OFFCURVE",
"494 1079 OFFCURVE",
"596 1079 CURVE SMOOTH",
"668 1079 OFFCURVE",
"712 1034 OFFCURVE",
"702 976 CURVE SMOOTH",
"700 927 OFFCURVE",
"683 890 OFFCURVE",
"566 838 CURVE SMOOTH",
"444 775 OFFCURVE",
"376 712 OFFCURVE",
"360 535 CURVE SMOOTH",
"352 467 LINE"
);
},
{
closed = 1;
nodes = (
"584 -35 OFFCURVE",
"680 57 OFFCURVE",
"686 181 CURVE SMOOTH",
"701 302 OFFCURVE",
"624 384 OFFCURVE",
"509 384 CURVE SMOOTH",
"388 384 OFFCURVE",
"298 302 OFFCURVE",
"285 181 CURVE SMOOTH",
"275 57 OFFCURVE",
"344 -35 OFFCURVE",
"465 -35 CURVE SMOOTH"
);
}
);
width = 968;
}
);
unicode = 003F;
},
{
glyphname = sterling;
lastChange = "2019-05-24 19:57:20 +0000";
layers = (
{
layerId = "AD226DB4-BE97-401A-8A1F-FC26A063DFB1";
paths = (
{
closed = 1;
nodes = (
"629 0 LINE SMOOTH",
"804 0 OFFCURVE",
"870 98 OFFCURVE",
"902 243 CURVE",
"841 243 LINE",
"811 116 OFFCURVE",
"752 55 OFFCURVE",
"638 55 CURVE SMOOTH",
"213 55 LINE",
"271 85 OFFCURVE",
"291 147 OFFCURVE",
"301 241 CURVE SMOOTH",
"328 504 LINE",
"677 504 LINE",
"683 566 LINE",
"333 566 LINE",
"362 838 LINE SMOOTH",
"382 1069 OFFCURVE",
"473 1164 OFFCURVE",
"619 1164 CURVE SMOOTH",
"714 1164 OFFCURVE",
"793 1108 OFFCURVE",
"810 987 CURVE",
"872 987 LINE",
"862 1143 OFFCURVE",
"762 1232 OFFCURVE",
"627 1232 CURVE SMOOTH",
"413 1232 OFFCURVE",
"320 1072 OFFCURVE",
"296 838 CURVE SMOOTH",
"271 566 LINE",
"92 566 LINE",
"87 504 LINE",
"262 504 LINE",
"237 242 LINE SMOOTH",
"229 116 OFFCURVE",
"173 55 OFFCURVE",
"78 55 CURVE SMOOTH",
"35 55 LINE",
"32 0 LINE"
);
}
);
width = 942;
},
{
layerId = "2146CDF3-509B-498B-BCC4-8BA41979C9D7";
paths = (
{
closed = 1;
nodes = (
"602 0 LINE SMOOTH",
"962 0 OFFCURVE",
"1113 158 OFFCURVE",
"1138 440 CURVE",
"808 440 LINE",
"791 346 OFFCURVE",
"746 305 OFFCURVE",
"625 305 CURVE SMOOTH",
"482 305 LINE",
"528 354 OFFCURVE",
"554 416 OFFCURVE",
"564 498 CURVE SMOOTH",
"571 595 LINE",
"855 595 LINE",
"874 809 LINE",
"590 809 LINE",
"598 917 LINE SMOOTH",
"612 1023 OFFCURVE",
"670 1079 OFFCURVE",
"731 1079 CURVE SMOOTH",
"793 1079 OFFCURVE",
"820 1036 OFFCURVE",
"816 967 CURVE",
"1108 967 LINE",
"1105 1242 OFFCURVE",
"992 1377 OFFCURVE",
"758 1377 CURVE SMOOTH",
"531 1377 OFFCURVE",
"333 1236 OFFCURVE",
"302 917 CURVE SMOOTH",
"291 809 LINE",
"158 809 LINE",
"139 595 LINE",
"275 595 LINE",
"264 472 LINE SMOOTH",
"249 359 OFFCURVE",
"225 305 OFFCURVE",
"138 305 CURVE SMOOTH",
"74 305 LINE",
"45 0 LINE"
);
}
);
width = 1166;
}
);
unicode = 00A3;
},
{
glyphname = grave;
lastChange = "2019-05-24 19:57:20 +0000";
layers = (
{
anchors = (
{
name = _above;
position = "{282, 1270}";
}
);
layerId = "AD226DB4-BE97-401A-8A1F-FC26A063DFB1";
paths = (
{
closed = 1;
nodes = (
"545 1317 LINE",
"573 1365 LINE",
"238 1633 LINE",
"192 1563 LINE"
);
}
);
width = 486;
},
{
anchors = (
{
name = _above;
position = "{282, 1270}";
}
);
layerId = "2146CDF3-509B-498B-BCC4-8BA41979C9D7";
paths = (
{
closed = 1;
nodes = (
"748 1429 LINE",
"842 1634 LINE",
"317 1896 LINE",
"192 1615 LINE"
);
}
);
width = 729;
}
);
unicode = 0060;
},
{
glyphname = acute;
lastChange = "2019-05-24 19:57:20 +0000";
layers = (
{
anchors = (
{
name = _above;
position = "{282, 1270}";
}
);
layerId = "AD226DB4-BE97-401A-8A1F-FC26A063DFB1";
paths = (
{
closed = 1;
nodes = (
"592 1563 LINE",
"554 1633 LINE",
"169 1365 LINE",
"195 1317 LINE"
);
}
);
width = 486;
},
{
anchors = (
{
name = _above;
position = "{282, 1270}";
}
);
layerId = "2146CDF3-509B-498B-BCC4-8BA41979C9D7";
paths = (
{
closed = 1;
nodes = (
"835 1615 LINE",
"771 1896 LINE",
"196 1634 LINE",
"241 1429 LINE"
);
}
);
width = 729;
}
);
unicode = 00B4;
},
{
glyphname = agrave;
lastChange = "2019-05-24 19:57:14 +0000";
layers = (
{
layerId = "AD226DB4-BE97-401A-8A1F-FC26A063DFB1";
paths = (
{
closed = 1;
nodes = (
"520 -15 OFFCURVE",
"643 44 OFFCURVE",
"712 190 CURVE",
"709 126 OFFCURVE",
"705 65 OFFCURVE",
"703 0 CURVE",
"758 0 LINE",
"816 614 LINE SMOOTH",
"840 867 OFFCURVE",
"721 960 OFFCURVE",
"551 960 CURVE SMOOTH",
"397 960 OFFCURVE",
"239 896 OFFCURVE",
"221 701 CURVE",
"299 701 LINE",
"309 849 OFFCURVE",
"425 901 OFFCURVE",
"547 901 CURVE SMOOTH",
"699 901 OFFCURVE",
"772 820 OFFCURVE",
"754 613 CURVE",
"740 463 LINE",
"657 510 OFFCURVE",
"565 530 OFFCURVE",
"475 530 CURVE SMOOTH",
"326 530 OFFCURVE",
"165 447 OFFCURVE",
"145 251 CURVE",
"129 122 OFFCURVE",
"227 -15 OFFCURVE",
"373 -15 CURVE SMOOTH"
);
},
{
closed = 1;
nodes = (
"238 44 OFFCURVE",
"202 133 OFFCURVE",
"212 251 CURVE SMOOTH",
"229 414 OFFCURVE",
"338 466 OFFCURVE",
"473 466 CURVE SMOOTH",
"554 466 OFFCURVE",
"643 448 OFFCURVE",
"734 418 CURVE",
"747 179 OFFCURVE",
"537 44 OFFCURVE",
"396 44 CURVE SMOOTH"
);
},
{
closed = 1;
nodes = (
"786 1122 LINE",
"451 1390 LINE",
"405 1320 LINE",
"758 1074 LINE"
);
}
);
width = 927;
},
{
layerId = "2146CDF3-509B-498B-BCC4-8BA41979C9D7";
paths = (
{
closed = 1;
nodes = (
"599 -35 OFFCURVE",
"670 31 OFFCURVE",
"725 99 CURVE",
"729 66 OFFCURVE",
"732 32 OFFCURVE",
"736 0 CURVE",
"994 0 LINE",
"1052 620 LINE SMOOTH",
"1076 887 OFFCURVE",
"931 1020 OFFCURVE",
"669 1020 CURVE SMOOTH",
"364 1020 OFFCURVE",
"206 909 OFFCURVE",
"182 674 CURVE",
"502 674 LINE",
"512 731 OFFCURVE",
"556 783 OFFCURVE",
"646 783 CURVE SMOOTH",
"745 783 OFFCURVE",
"766 729 OFFCURVE",
"754 633 CURVE",
"746 568 LINE",
"677 576 OFFCURVE",
"611 590 OFFCURVE",
"527 590 CURVE SMOOTH",
"266 590 OFFCURVE",
"126 480 OFFCURVE",
"112 303 CURVE",
"96 116 OFFCURVE",
"200 -35 OFFCURVE",
"485 -35 CURVE SMOOTH"
);
},
{
closed = 1;
nodes = (
"481 214 OFFCURVE",
"426 258 OFFCURVE",
"429 303 CURVE SMOOTH",
"432 354 OFFCURVE",
"496 381 OFFCURVE",
"572 381 CURVE SMOOTH",
"620 381 OFFCURVE",
"689 369 OFFCURVE",
"728 358 CURVE",
"701 291 OFFCURVE",
"662 214 OFFCURVE",
"566 214 CURVE SMOOTH"
);
},
{
closed = 1;
nodes = (
"1016 1346 LINE",
"490 1607 LINE",
"366 1326 LINE",
"922 1140 LINE"
);
}
);
width = 1124;
}
);
unicode = 00E0;
},
{
glyphname = egrave;
lastChange = "2019-05-24 19:57:20 +0000";
layers = (
{
layerId = "AD226DB4-BE97-401A-8A1F-FC26A063DFB1";
paths = (
{
closed = 1;
nodes = (
"634 -15 OFFCURVE",
"769 77 OFFCURVE",
"817 269 CURVE",
"745 269 LINE",
"712 121 OFFCURVE",
"615 45 OFFCURVE",
"468 45 CURVE SMOOTH",
"270 45 OFFCURVE",
"193 226 OFFCURVE",
"209 461 CURVE",
"825 461 LINE",
"837 518 OFFCURVE",
"843 581 OFFCURVE",
"843 634 CURVE SMOOTH",
"836 834 OFFCURVE",
"742 960 OFFCURVE",
"555 960 CURVE SMOOTH",
"333 960 OFFCURVE",
"173 773 OFFCURVE",
"143 465 CURVE SMOOTH",
"113 155 OFFCURVE",
"241 -15 OFFCURVE",
"463 -15 CURVE SMOOTH"
);
},
{
closed = 1;
nodes = (
"253 733 OFFCURVE",
"366 902 OFFCURVE",
"551 902 CURVE SMOOTH",
"746 902 OFFCURVE",
"792 734 OFFCURVE",
"774 549 CURVE",
"221 549 LINE"
);
},
{
closed = 1;
nodes = (
"757 1121 LINE",
"422 1389 LINE",
"376 1319 LINE",
"729 1073 LINE"
);
}
);
width = 896;
},
{
layerId = "2146CDF3-509B-498B-BCC4-8BA41979C9D7";
paths = (
{
closed = 1;
nodes = (
"725 -35 OFFCURVE",
"894 116 OFFCURVE",
"935 302 CURVE",
"640 302 LINE",
"621 252 OFFCURVE",
"576 229 OFFCURVE",
"534 229 CURVE SMOOTH",
"440 229 OFFCURVE",
"396 298 OFFCURVE",
"406 409 CURVE",
"943 409 LINE",
"949 433 OFFCURVE",
"955 450 OFFCURVE",
"961 476 CURVE SMOOTH",
"1000 743 OFFCURVE",
"900 1020 OFFCURVE",
"607 1020 CURVE SMOOTH",
"379 1020 OFFCURVE",
"153 825 OFFCURVE",
"123 498 CURVE SMOOTH",
"93 188 OFFCURVE",
"280 -35 OFFCURVE",
"509 -35 CURVE SMOOTH"
);
},
{
closed = 1;
nodes = (
"444 700 OFFCURVE",
"505 757 OFFCURVE",
"584 757 CURVE SMOOTH",
"680 757 OFFCURVE",
"701 674 OFFCURVE",
"695 595 CURVE",
"424 595 LINE"
);
},
{
closed = 1;
nodes = (
"948 1378 LINE",
"422 1639 LINE",
"297 1358 LINE",
"854 1172 LINE"
);
}
);
width = 988;
}
);
unicode = 00E8;
},
{
glyphname = ograve;
lastChange = "2019-05-24 19:57:20 +0000";
layers = (
{
layerId = "AD226DB4-BE97-401A-8A1F-FC26A063DFB1";
paths = (
{
closed = 1;
nodes = (
"700 -15 OFFCURVE",
"865 159 OFFCURVE",
"897 471 CURVE",
"922 782 OFFCURVE",
"796 960 OFFCURVE",
"566 960 CURVE SMOOTH",
"337 960 OFFCURVE",
"175 782 OFFCURVE",
"143 471 CURVE SMOOTH",
"111 159 OFFCURVE",
"247 -15 OFFCURVE",
"470 -15 CURVE SMOOTH"
);
},
{
closed = 1;
nodes = (
"265 45 OFFCURVE",
"195 219 OFFCURVE",
"215 471 CURVE SMOOTH",
"239 723 OFFCURVE",
"347 898 OFFCURVE",
"559 898 CURVE SMOOTH",
"768 898 OFFCURVE",
"853 723 OFFCURVE",
"829 471 CURVE SMOOTH",
"804 219 OFFCURVE",
"684 45 OFFCURVE",
"474 45 CURVE SMOOTH"
);
},
{
closed = 1;
nodes = (
"783 1122 LINE",
"448 1390 LINE",
"402 1320 LINE",
"755 1074 LINE"
);
}
);
width = 947;
},
{
layerId = "2146CDF3-509B-498B-BCC4-8BA41979C9D7";
paths = (
{
closed = 1;
nodes = (
"766 -35 OFFCURVE",
"996 132 OFFCURVE",
"1028 491 CURVE",
"1067 861 OFFCURVE",
"862 1020 OFFCURVE",
"626 1020 CURVE SMOOTH",
"383 1020 OFFCURVE",
"155 861 OFFCURVE",
"123 491 CURVE SMOOTH",
"91 132 OFFCURVE",
"280 -35 OFFCURVE",
"530 -35 CURVE SMOOTH"
);
},
{
closed = 1;
nodes = (
"468 255 OFFCURVE",
"398 318 OFFCURVE",
"418 491 CURVE SMOOTH",
"436 671 OFFCURVE",
"531 734 OFFCURVE",
"611 734 CURVE SMOOTH",
"689 734 OFFCURVE",
"748 671 OFFCURVE",
"730 491 CURVE SMOOTH",
"713 318 OFFCURVE",
"624 255 OFFCURVE",
"546 255 CURVE SMOOTH"
);
},
{
closed = 1;
nodes = (
"980 1346 LINE",
"454 1607 LINE",
"330 1326 LINE",
"886 1140 LINE"
);
}
);
width = 1059;
}
);
unicode = 00F2;
},
{
glyphname = Agrave;
lastChange = "2019-05-24 19:57:20 +0000";
layers = (
{
layerId = "AD226DB4-BE97-401A-8A1F-FC26A063DFB1";
paths = (
{
closed = 1;
nodes = (
"122 0 LINE",
"270 363 LINE",
"739 363 LINE",
"816 0 LINE",
"879 0 LINE",
"622 1215 LINE",
"547 1215 LINE",
"53 0 LINE"
);
},
{
closed = 1;
nodes = (
"574 1118 LINE",
"722 429 LINE",
"294 429 LINE"
);
},
{
closed = 1;
nodes = (
"802 1365 LINE",
"467 1633 LINE",
"421 1563 LINE",
"774 1317 LINE"
);
}
);
width = 934;
},
{
layerId = "2146CDF3-509B-498B-BCC4-8BA41979C9D7";
paths = (
{
closed = 1;
nodes = (
"346 0 LINE",
"434 232 LINE",
"844 232 LINE",
"888 0 LINE",
"1208 0 LINE",
"943 1346 LINE",
"567 1346 LINE",
"33 0 LINE"
);
},
{
closed = 1;
nodes = (
"713 960 LINE",
"801 475 LINE",
"530 475 LINE"
);
},
{
closed = 1;
nodes = (
"1104 1634 LINE",
"579 1896 LINE",
"454 1615 LINE",
"1010 1429 LINE"
);
}
);
width = 1236;
}
);
unicode = 00C0;
},
{
glyphname = Egrave;
lastChange = "2019-05-24 19:57:20 +0000";
layers = (
{
layerId = "AD226DB4-BE97-401A-8A1F-FC26A063DFB1";
paths = (
{
closed = 1;
nodes = (
"830 0 LINE",
"840 64 LINE",
"267 64 LINE",
"315 586 LINE",
"855 586 LINE",
"858 644 LINE",
"319 644 LINE",
"367 1152 LINE",
"937 1152 LINE",
"948 1215 LINE",
"309 1215 LINE",
"195 0 LINE"
);
},
{
closed = 1;
nodes = (
"843 1365 LINE",
"508 1633 LINE",
"462 1563 LINE",
"815 1317 LINE"
);
}
);
width = 970;
},
{
layerId = "2146CDF3-509B-498B-BCC4-8BA41979C9D7";
paths = (
{
closed = 1;
nodes = (
"969 0 LINE",
"991 288 LINE",
"470 288 LINE",
"493 526 LINE",
"980 526 LINE",
"1009 814 LINE",
"522 814 LINE",
"545 1061 LINE",
"1068 1061 LINE",
"1093 1346 LINE",
"276 1346 LINE",
"149 0 LINE"
);
},
{
closed = 1;
nodes = (
"1040 1634 LINE",
"514 1896 LINE",
"390 1615 LINE",
"946 1429 LINE"
);
}
);
width = 1108;
}
);
unicode = 00C8;
},
{
glyphname = ugrave;
lastChange = "2019-05-24 19:57:20 +0000";
layers = (
{
layerId = "AD226DB4-BE97-401A-8A1F-FC26A063DFB1";
paths = (
{
closed = 1;
nodes = (
"617 -18 OFFCURVE",
"734 69 OFFCURVE",
"806 207 CURVE",
"786 0 LINE",
"849 0 LINE",
"939 941 LINE",
"873 941 LINE",
"829 472 LINE SMOOTH",
"809 252 OFFCURVE",
"683 46 OFFCURVE",
"486 46 CURVE SMOOTH",
"317 46 OFFCURVE",
"240 148 OFFCURVE",
"263 345 CURVE SMOOTH",
"316 941 LINE",
"250 941 LINE",
"195 346 LINE",
"177 115 OFFCURVE",
"273 -18 OFFCURVE",
"476 -18 CURVE SMOOTH"
);
},
{
closed = 1;
nodes = (
"835 1237 LINE",
"500 1505 LINE",
"454 1435 LINE",
"806 1189 LINE"
);
}
);
width = 1049;
},
{
layerId = "2146CDF3-509B-498B-BCC4-8BA41979C9D7";
paths = (
{
closed = 1;
nodes = (
"584 -18 OFFCURVE",
"674 30 OFFCURVE",
"740 155 CURVE",
"726 0 LINE",
"1027 0 LINE",
"1117 993 LINE",
"821 993 LINE",
"777 532 LINE SMOOTH",
"757 324 OFFCURVE",
"650 270 OFFCURVE",
"565 270 CURVE SMOOTH",
"508 270 OFFCURVE",
"470 312 OFFCURVE",
"473 397 CURVE SMOOTH",
"533 993 LINE",
"237 993 LINE",
"175 359 LINE",
"144 69 OFFCURVE",
"306 -18 OFFCURVE",
"482 -18 CURVE SMOOTH"
);
},
{
closed = 1;
nodes = (
"1038 1342 LINE",
"513 1604 LINE",
"388 1323 LINE",
"945 1137 LINE"
);
}
);
width = 1174;
}
);
unicode = 00F9;
},
{
glyphname = aacute;
lastChange = "2019-05-24 19:57:14 +0000";
layers = (
{
layerId = "AD226DB4-BE97-401A-8A1F-FC26A063DFB1";
paths = (
{
closed = 1;
nodes = (
"520 -15 OFFCURVE",
"643 44 OFFCURVE",
"712 190 CURVE",
"709 126 OFFCURVE",
"705 65 OFFCURVE",
"703 0 CURVE",
"758 0 LINE",
"816 614 LINE SMOOTH",
"840 867 OFFCURVE",
"721 960 OFFCURVE",
"551 960 CURVE SMOOTH",
"397 960 OFFCURVE",
"239 896 OFFCURVE",
"221 701 CURVE",
"299 701 LINE",
"309 849 OFFCURVE",
"425 901 OFFCURVE",
"547 901 CURVE SMOOTH",
"699 901 OFFCURVE",
"772 820 OFFCURVE",
"754 613 CURVE",
"740 463 LINE",
"657 510 OFFCURVE",
"565 530 OFFCURVE",
"475 530 CURVE SMOOTH",
"326 530 OFFCURVE",
"165 447 OFFCURVE",
"145 251 CURVE",
"129 122 OFFCURVE",
"227 -15 OFFCURVE",
"373 -15 CURVE SMOOTH"
);
},
{
closed = 1;
nodes = (
"238 44 OFFCURVE",
"202 133 OFFCURVE",
"212 251 CURVE SMOOTH",
"229 414 OFFCURVE",
"338 466 OFFCURVE",
"473 466 CURVE SMOOTH",
"554 466 OFFCURVE",
"643 448 OFFCURVE",
"734 418 CURVE",
"747 179 OFFCURVE",
"537 44 OFFCURVE",
"396 44 CURVE SMOOTH"
);
},
{
closed = 1;
nodes = (
"805 1320 LINE",
"767 1390 LINE",
"382 1122 LINE",
"408 1074 LINE"
);
}
);
width = 927;
},
{
layerId = "2146CDF3-509B-498B-BCC4-8BA41979C9D7";
paths = (
{
closed = 1;
nodes = (
"599 -35 OFFCURVE",
"670 31 OFFCURVE",
"725 99 CURVE",
"729 66 OFFCURVE",
"732 32 OFFCURVE",
"736 0 CURVE",
"994 0 LINE",
"1052 620 LINE SMOOTH",
"1076 887 OFFCURVE",
"931 1020 OFFCURVE",
"669 1020 CURVE SMOOTH",
"364 1020 OFFCURVE",
"206 909 OFFCURVE",
"182 674 CURVE",
"502 674 LINE",
"512 731 OFFCURVE",
"556 783 OFFCURVE",
"646 783 CURVE SMOOTH",
"745 783 OFFCURVE",
"766 729 OFFCURVE",
"754 633 CURVE",
"746 568 LINE",
"677 576 OFFCURVE",
"611 590 OFFCURVE",
"527 590 CURVE SMOOTH",
"266 590 OFFCURVE",
"126 480 OFFCURVE",
"112 303 CURVE",
"96 116 OFFCURVE",
"200 -35 OFFCURVE",
"485 -35 CURVE SMOOTH"
);
},
{
closed = 1;
nodes = (
"481 214 OFFCURVE",
"426 258 OFFCURVE",
"429 303 CURVE SMOOTH",
"432 354 OFFCURVE",
"496 381 OFFCURVE",
"572 381 CURVE SMOOTH",
"620 381 OFFCURVE",
"689 369 OFFCURVE",
"728 358 CURVE",
"701 291 OFFCURVE",
"662 214 OFFCURVE",
"566 214 CURVE SMOOTH"
);
},
{
closed = 1;
nodes = (
"1008 1326 LINE",
"945 1607 LINE",
"369 1346 LINE",
"414 1140 LINE"
);
}
);
width = 1124;
}
);
unicode = 00E1;
},
{
glyphname = eacute;
lastChange = "2019-05-24 19:57:20 +0000";
layers = (
{
layerId = "AD226DB4-BE97-401A-8A1F-FC26A063DFB1";
paths = (
{
closed = 1;
nodes = (
"634 -15 OFFCURVE",
"769 77 OFFCURVE",
"817 269 CURVE",
"745 269 LINE",
"712 121 OFFCURVE",
"615 45 OFFCURVE",
"468 45 CURVE SMOOTH",
"270 45 OFFCURVE",
"193 226 OFFCURVE",
"209 461 CURVE",
"825 461 LINE",
"837 518 OFFCURVE",
"843 581 OFFCURVE",
"843 634 CURVE SMOOTH",
"836 834 OFFCURVE",
"742 960 OFFCURVE",
"555 960 CURVE SMOOTH",
"333 960 OFFCURVE",
"173 773 OFFCURVE",
"143 465 CURVE SMOOTH",
"113 155 OFFCURVE",
"241 -15 OFFCURVE",
"463 -15 CURVE SMOOTH"
);
},
{
closed = 1;
nodes = (
"253 733 OFFCURVE",
"366 902 OFFCURVE",
"551 902 CURVE SMOOTH",
"746 902 OFFCURVE",
"792 734 OFFCURVE",
"774 549 CURVE",
"221 549 LINE"
);
},
{
closed = 1;
nodes = (
"776 1319 LINE",
"738 1389 LINE",
"353 1121 LINE",
"379 1073 LINE"
);
}
);
width = 896;
},
{
layerId = "2146CDF3-509B-498B-BCC4-8BA41979C9D7";
paths = (
{
closed = 1;
nodes = (
"725 -35 OFFCURVE",
"894 116 OFFCURVE",
"935 302 CURVE",
"640 302 LINE",
"621 252 OFFCURVE",
"576 229 OFFCURVE",
"534 229 CURVE SMOOTH",
"440 229 OFFCURVE",
"396 298 OFFCURVE",
"406 409 CURVE",
"943 409 LINE",
"949 433 OFFCURVE",
"955 450 OFFCURVE",
"961 476 CURVE SMOOTH",
"1000 743 OFFCURVE",
"900 1020 OFFCURVE",
"607 1020 CURVE SMOOTH",
"379 1020 OFFCURVE",
"153 825 OFFCURVE",
"123 498 CURVE SMOOTH",
"93 188 OFFCURVE",
"280 -35 OFFCURVE",
"509 -35 CURVE SMOOTH"
);
},
{
closed = 1;
nodes = (
"444 700 OFFCURVE",
"505 757 OFFCURVE",
"584 757 CURVE SMOOTH",
"680 757 OFFCURVE",
"701 674 OFFCURVE",
"695 595 CURVE",
"424 595 LINE"
);
},
{
closed = 1;
nodes = (
"940 1358 LINE",
"877 1639 LINE",
"301 1378 LINE",
"346 1172 LINE"
);
}
);
width = 988;
}
);
unicode = 00E9;
},
{
glyphname = oacute;
lastChange = "2019-05-24 19:57:20 +0000";
layers = (
{
layerId = "AD226DB4-BE97-401A-8A1F-FC26A063DFB1";
paths = (
{
closed = 1;
nodes = (
"700 -15 OFFCURVE",
"865 159 OFFCURVE",
"897 471 CURVE",
"922 782 OFFCURVE",
"796 960 OFFCURVE",
"566 960 CURVE SMOOTH",
"337 960 OFFCURVE",
"175 782 OFFCURVE",
"143 471 CURVE SMOOTH",
"111 159 OFFCURVE",
"247 -15 OFFCURVE",
"470 -15 CURVE SMOOTH"
);
},
{
closed = 1;
nodes = (
"265 45 OFFCURVE",
"195 219 OFFCURVE",
"215 471 CURVE SMOOTH",
"239 723 OFFCURVE",
"347 898 OFFCURVE",
"559 898 CURVE SMOOTH",
"768 898 OFFCURVE",
"853 723 OFFCURVE",
"829 471 CURVE SMOOTH",
"804 219 OFFCURVE",
"684 45 OFFCURVE",
"474 45 CURVE SMOOTH"
);
},
{
closed = 1;
nodes = (
"802 1320 LINE",
"764 1390 LINE",
"379 1122 LINE",
"405 1074 LINE"
);
}
);
width = 947;
},
{
layerId = "2146CDF3-509B-498B-BCC4-8BA41979C9D7";
paths = (
{
closed = 1;
nodes = (
"766 -35 OFFCURVE",
"996 132 OFFCURVE",
"1028 491 CURVE",
"1067 861 OFFCURVE",
"862 1020 OFFCURVE",
"626 1020 CURVE SMOOTH",
"383 1020 OFFCURVE",
"155 861 OFFCURVE",
"123 491 CURVE SMOOTH",
"91 132 OFFCURVE",
"280 -35 OFFCURVE",
"530 -35 CURVE SMOOTH"
);
},
{
closed = 1;
nodes = (
"468 255 OFFCURVE",
"398 318 OFFCURVE",
"418 491 CURVE SMOOTH",
"436 671 OFFCURVE",
"531 734 OFFCURVE",
"611 734 CURVE SMOOTH",
"689 734 OFFCURVE",
"748 671 OFFCURVE",
"730 491 CURVE SMOOTH",
"713 318 OFFCURVE",
"624 255 OFFCURVE",
"546 255 CURVE SMOOTH"
);
},
{
closed = 1;
nodes = (
"972 1326 LINE",
"909 1607 LINE",
"333 1346 LINE",
"378 1140 LINE"
);
}
);
width = 1059;
}
);
unicode = 00F3;
},
{
glyphname = uacute;
lastChange = "2019-05-24 19:57:20 +0000";
layers = (
{
layerId = "AD226DB4-BE97-401A-8A1F-FC26A063DFB1";
paths = (
{
closed = 1;
nodes = (
"195 346 LINE",
"177 115 OFFCURVE",
"273 -18 OFFCURVE",
"476 -18 CURVE SMOOTH",
"617 -18 OFFCURVE",
"734 69 OFFCURVE",
"806 207 CURVE",
"786 0 LINE",
"849 0 LINE",
"939 941 LINE",
"873 941 LINE",
"829 472 LINE SMOOTH",
"809 252 OFFCURVE",
"683 46 OFFCURVE",
"486 46 CURVE SMOOTH",
"317 46 OFFCURVE",
"240 148 OFFCURVE",
"263 345 CURVE SMOOTH",
"316 941 LINE",
"250 941 LINE"
);
},
{
closed = 1;
nodes = (
"457 1189 LINE",
"431 1237 LINE",
"816 1505 LINE",
"853 1435 LINE"
);
}
);
width = 1049;
},
{
layerId = "2146CDF3-509B-498B-BCC4-8BA41979C9D7";
paths = (
{
closed = 1;
nodes = (
"175 359 LINE",
"144 69 OFFCURVE",
"306 -18 OFFCURVE",
"482 -18 CURVE SMOOTH",
"584 -18 OFFCURVE",
"674 30 OFFCURVE",
"740 155 CURVE",
"726 0 LINE",
"1027 0 LINE",
"1117 993 LINE",
"821 993 LINE",
"777 532 LINE SMOOTH",
"757 324 OFFCURVE",
"650 270 OFFCURVE",
"565 270 CURVE SMOOTH",
"508 270 OFFCURVE",
"470 312 OFFCURVE",
"473 397 CURVE SMOOTH",
"533 993 LINE",
"237 993 LINE"
);
},
{
closed = 1;
nodes = (
"437 1137 LINE",
"392 1342 LINE",
"967 1604 LINE",
"1031 1323 LINE"
);
}
);
width = 1174;
}
);
unicode = 00FA;
},
{
glyphname = Aacute;
lastChange = "2019-05-24 19:57:20 +0000";
layers = (
{
layerId = "AD226DB4-BE97-401A-8A1F-FC26A063DFB1";
paths = (
{
closed = 1;
nodes = (
"122 0 LINE",
"270 363 LINE",
"739 363 LINE",
"816 0 LINE",
"879 0 LINE",
"622 1215 LINE",
"547 1215 LINE",
"53 0 LINE"
);
},
{
closed = 1;
nodes = (
"574 1118 LINE",
"722 429 LINE",
"294 429 LINE"
);
},
{
closed = 1;
nodes = (
"821 1563 LINE",
"783 1633 LINE",
"398 1365 LINE",
"424 1317 LINE"
);
}
);
width = 934;
},
{
layerId = "2146CDF3-509B-498B-BCC4-8BA41979C9D7";
paths = (
{
closed = 1;
nodes = (
"346 0 LINE",
"434 232 LINE",
"844 232 LINE",
"888 0 LINE",
"1208 0 LINE",
"943 1346 LINE",
"567 1346 LINE",
"33 0 LINE"
);
},
{
closed = 1;
nodes = (
"713 960 LINE",
"801 475 LINE",
"530 475 LINE"
);
},
{
closed = 1;
nodes = (
"1097 1615 LINE",
"1033 1896 LINE",
"458 1634 LINE",
"503 1429 LINE"
);
}
);
width = 1236;
}
);
unicode = 00C1;
},
{
glyphname = Eacute;
lastChange = "2019-05-24 19:57:20 +0000";
layers = (
{
layerId = "AD226DB4-BE97-401A-8A1F-FC26A063DFB1";
paths = (
{
closed = 1;
nodes = (
"830 0 LINE",
"840 64 LINE",
"267 64 LINE",
"315 586 LINE",
"855 586 LINE",
"858 644 LINE",
"319 644 LINE",
"367 1152 LINE",
"937 1152 LINE",
"948 1215 LINE",
"309 1215 LINE",
"195 0 LINE"
);
},
{
closed = 1;
nodes = (
"821 1563 LINE",
"783 1633 LINE",
"398 1365 LINE",
"424 1317 LINE"
);
}
);
width = 970;
},
{
layerId = "2146CDF3-509B-498B-BCC4-8BA41979C9D7";
paths = (
{
closed = 1;
nodes = (
"969 0 LINE",
"991 288 LINE",
"470 288 LINE",
"493 526 LINE",
"980 526 LINE",
"1009 814 LINE",
"522 814 LINE",
"545 1061 LINE",
"1068 1061 LINE",
"1093 1346 LINE",
"276 1346 LINE",
"149 0 LINE"
);
},
{
closed = 1;
nodes = (
"1044 1615 LINE",
"981 1896 LINE",
"405 1634 LINE",
"450 1429 LINE"
);
}
);
width = 1108;
}
);
unicode = 00C9;
},
{
glyphname = Igrave;
lastChange = "2019-05-24 19:57:20 +0000";
layers = (
{
components = (
{
name = grave;
}
);
layerId = "AD226DB4-BE97-401A-8A1F-FC26A063DFB1";
paths = (
{
closed = 1;
nodes = (
"263 0 LINE",
"377 1215 LINE",
"311 1215 LINE",
"197 0 LINE"
);
}
);
width = 456;
},
{
components = (
{
alignment = -1;
name = grave;
}
);
layerId = "2146CDF3-509B-498B-BCC4-8BA41979C9D7";
paths = (
{
closed = 1;
nodes = (
"447 0 LINE",
"574 1346 LINE",
"278 1346 LINE",
"151 0 LINE"
);
}
);
width = 601;
}
);
unicode = 00CC;
},
{
glyphname = Iacute;
lastChange = "2019-05-24 19:57:20 +0000";
layers = (
{
layerId = "AD226DB4-BE97-401A-8A1F-FC26A063DFB1";
paths = (
{
closed = 1;
nodes = (
"263 0 LINE",
"377 1215 LINE",
"311 1215 LINE",
"197 0 LINE"
);
},
{
closed = 1;
nodes = (
"182 1317 LINE",
"157 1365 LINE",
"542 1633 LINE",
"579 1563 LINE"
);
}
);
width = 456;
},
{
layerId = "2146CDF3-509B-498B-BCC4-8BA41979C9D7";
paths = (
{
closed = 1;
nodes = (
"447 0 LINE",
"574 1346 LINE",
"278 1346 LINE",
"151 0 LINE"
);
},
{
closed = 1;
nodes = (
"176 1429 LINE",
"130 1634 LINE",
"706 1896 LINE",
"770 1615 LINE"
);
}
);
width = 601;
}
);
unicode = 00CD;
},
{
glyphname = Ograve;
lastChange = "2019-05-24 19:57:20 +0000";
layers = (
{
layerId = "AD226DB4-BE97-401A-8A1F-FC26A063DFB1";
paths = (
{
closed = 1;
nodes = (
"413 1232 OFFCURVE",
"196 1023 OFFCURVE",
"159 604 CURVE",
"119 181 OFFCURVE",
"294 -15 OFFCURVE",
"543 -15 CURVE SMOOTH",
"788 -15 OFFCURVE",
"1008 179 OFFCURVE",
"1052 604 CURVE",
"1089 1025 OFFCURVE",
"910 1232 OFFCURVE",
"663 1232 CURVE SMOOTH",
"663 1232 LINE"
);
},
{
closed = 1;
nodes = (
"887 1166 OFFCURVE",
"1018 967 OFFCURVE",
"982 602 CURVE SMOOTH",
"945 237 OFFCURVE",
"782 53 OFFCURVE",
"551 53 CURVE SMOOTH",
"317 53 OFFCURVE",
"190 237 OFFCURVE",
"224 604 CURVE SMOOTH",
"263 967 OFFCURVE",
"417 1166 OFFCURVE",
"655 1166 CURVE SMOOTH",
"655 1166 LINE"
);
},
{
closed = 1;
nodes = (
"849 1317 LINE",
"877 1365 LINE",
"542 1633 LINE",
"497 1563 LINE"
);
}
);
width = 1088;
},
{
layerId = "2146CDF3-509B-498B-BCC4-8BA41979C9D7";
paths = (
{
closed = 1;
nodes = (
"433 1377 OFFCURVE",
"183 1154 OFFCURVE",
"139 676 CURVE",
"92 214 OFFCURVE",
"300 -35 OFFCURVE",
"648 -35 CURVE SMOOTH",
"1005 -35 OFFCURVE",
"1251 206 OFFCURVE",
"1295 676 CURVE",
"1339 1137 OFFCURVE",
"1134 1377 OFFCURVE",
"781 1377 CURVE SMOOTH",
"781 1377 LINE"
);
},
{
closed = 1;
nodes = (
"920 1081 OFFCURVE",
"1012 928 OFFCURVE",
"988 681 CURVE SMOOTH",
"965 415 OFFCURVE",
"842 263 OFFCURVE",
"676 263 CURVE SMOOTH",
"514 263 OFFCURVE",
"420 415 OFFCURVE",
"448 676 CURVE SMOOTH",
"466 928 OFFCURVE",
"595 1081 OFFCURVE",
"754 1081 CURVE SMOOTH",
"754 1081 LINE"
);
},
{
closed = 1;
nodes = (
"1033 1429 LINE",
"1127 1634 LINE",
"602 1896 LINE",
"477 1615 LINE"
);
}
);
width = 1312;
}
);
unicode = 00D2;
},
{
glyphname = Oacute;
lastChange = "2019-05-24 19:57:20 +0000";
layers = (
{
layerId = "AD226DB4-BE97-401A-8A1F-FC26A063DFB1";
paths = (
{
closed = 1;
nodes = (
"413 1232 OFFCURVE",
"196 1023 OFFCURVE",
"159 604 CURVE",
"119 181 OFFCURVE",
"294 -15 OFFCURVE",
"543 -15 CURVE SMOOTH",
"788 -15 OFFCURVE",
"1008 179 OFFCURVE",
"1052 604 CURVE",
"1089 1025 OFFCURVE",
"910 1232 OFFCURVE",
"663 1232 CURVE SMOOTH",
"663 1232 LINE"
);
},
{
closed = 1;
nodes = (
"887 1166 OFFCURVE",
"1018 967 OFFCURVE",
"982 602 CURVE SMOOTH",
"945 237 OFFCURVE",
"782 53 OFFCURVE",
"551 53 CURVE SMOOTH",
"317 53 OFFCURVE",
"190 237 OFFCURVE",
"224 604 CURVE SMOOTH",
"263 967 OFFCURVE",
"417 1166 OFFCURVE",
"655 1166 CURVE SMOOTH",
"655 1166 LINE"
);
},
{
closed = 1;
nodes = (
"499 1317 LINE",
"474 1365 LINE",
"859 1633 LINE",
"896 1563 LINE"
);
}
);
width = 1088;
},
{
layerId = "2146CDF3-509B-498B-BCC4-8BA41979C9D7";
paths = (
{
closed = 1;
nodes = (
"433 1377 OFFCURVE",
"183 1154 OFFCURVE",
"139 676 CURVE",
"92 214 OFFCURVE",
"300 -35 OFFCURVE",
"648 -35 CURVE SMOOTH",
"1005 -35 OFFCURVE",
"1251 206 OFFCURVE",
"1295 676 CURVE",
"1339 1137 OFFCURVE",
"1134 1377 OFFCURVE",
"781 1377 CURVE SMOOTH",
"781 1377 LINE"
);
},
{
closed = 1;
nodes = (
"920 1081 OFFCURVE",
"1012 928 OFFCURVE",
"988 681 CURVE SMOOTH",
"965 415 OFFCURVE",
"842 263 OFFCURVE",
"676 263 CURVE SMOOTH",
"514 263 OFFCURVE",
"420 415 OFFCURVE",
"448 676 CURVE SMOOTH",
"466 928 OFFCURVE",
"595 1081 OFFCURVE",
"754 1081 CURVE SMOOTH",
"754 1081 LINE"
);
},
{
closed = 1;
nodes = (
"526 1429 LINE",
"480 1634 LINE",
"1056 1896 LINE",
"1120 1615 LINE"
);
}
);
width = 1312;
}
);
unicode = 00D3;
},
{
glyphname = Ugrave;
lastChange = "2019-05-24 19:57:20 +0000";
layers = (
{
layerId = "AD226DB4-BE97-401A-8A1F-FC26A063DFB1";
paths = (
{
closed = 1;
nodes = (
"202 415 LINE",
"177 116 OFFCURVE",
"318 -15 OFFCURVE",
"545 -15 CURVE SMOOTH",
"766 -15 OFFCURVE",
"943 116 OFFCURVE",
"967 415 CURVE",
"1047 1215 LINE",
"981 1215 LINE",
"903 415 LINE SMOOTH",
"879 159 OFFCURVE",
"746 48 OFFCURVE",
"555 48 CURVE SMOOTH",
"357 48 OFFCURVE",
"244 159 OFFCURVE",
"268 415 CURVE SMOOTH",
"346 1215 LINE",
"280 1215 LINE"
);
},
{
closed = 1;
nodes = (
"853 1317 LINE",
"881 1365 LINE",
"546 1633 LINE",
"500 1563 LINE"
);
}
);
width = 1109;
},
{
layerId = "2146CDF3-509B-498B-BCC4-8BA41979C9D7";
paths = (
{
closed = 1;
nodes = (
"189 533 LINE",
"157 188 OFFCURVE",
"324 -35 OFFCURVE",
"663 -35 CURVE SMOOTH",
"1002 -35 OFFCURVE",
"1206 188 OFFCURVE",
"1243 533 CURVE",
"1316 1346 LINE",
"1020 1346 LINE",
"942 533 LINE SMOOTH",
"925 343 OFFCURVE",
"818 272 OFFCURVE",
"686 272 CURVE SMOOTH",
"560 272 OFFCURVE",
"468 343 OFFCURVE",
"485 533 CURVE SMOOTH",
"563 1346 LINE",
"267 1346 LINE"
);
},
{
closed = 1;
nodes = (
"1044 1429 LINE",
"1138 1634 LINE",
"612 1896 LINE",
"487 1615 LINE"
);
}
);
width = 1319;
}
);
unicode = 00D9;
},
{
glyphname = Uacute;
lastChange = "2019-05-24 19:57:20 +0000";
layers = (
{
layerId = "AD226DB4-BE97-401A-8A1F-FC26A063DFB1";
paths = (
{
closed = 1;
nodes = (
"202 415 LINE",
"177 116 OFFCURVE",
"318 -15 OFFCURVE",
"545 -15 CURVE SMOOTH",
"766 -15 OFFCURVE",
"943 116 OFFCURVE",
"967 415 CURVE",
"1047 1215 LINE",
"981 1215 LINE",
"903 415 LINE SMOOTH",
"879 159 OFFCURVE",
"746 48 OFFCURVE",
"555 48 CURVE SMOOTH",
"357 48 OFFCURVE",
"244 159 OFFCURVE",
"268 415 CURVE SMOOTH",
"346 1215 LINE",
"280 1215 LINE"
);
},
{
closed = 1;
nodes = (
"503 1317 LINE",
"478 1365 LINE",
"863 1633 LINE",
"900 1563 LINE"
);
}
);
width = 1109;
},
{
layerId = "2146CDF3-509B-498B-BCC4-8BA41979C9D7";
paths = (
{
closed = 1;
nodes = (
"189 533 LINE",
"157 188 OFFCURVE",
"324 -35 OFFCURVE",
"663 -35 CURVE SMOOTH",
"1002 -35 OFFCURVE",
"1206 188 OFFCURVE",
"1243 533 CURVE",
"1316 1346 LINE",
"1020 1346 LINE",
"942 533 LINE SMOOTH",
"925 343 OFFCURVE",
"818 272 OFFCURVE",
"686 272 CURVE SMOOTH",
"560 272 OFFCURVE",
"468 343 OFFCURVE",
"485 533 CURVE SMOOTH",
"563 1346 LINE",
"267 1346 LINE"
);
},
{
closed = 1;
nodes = (
"536 1429 LINE",
"491 1634 LINE",
"1066 1896 LINE",
"1130 1615 LINE"
);
}
);
width = 1319;
}
);
unicode = 00DA;
},
{
glyphname = circumflex;
lastChange = "2019-05-24 19:57:20 +0000";
layers = (
{
anchors = (
{
name = _above;
position = "{368, 1270}";
}
);
layerId = "AD226DB4-BE97-401A-8A1F-FC26A063DFB1";
paths = (
{
closed = 1;
nodes = (
"169 1354 LINE",
"208 1319 LINE",
"455 1550 LINE",
"663 1319 LINE",
"702 1354 LINE",
"465 1655 LINE"
);
}
);
width = 619;
},
{
anchors = (
{
name = _above;
position = "{368, 1270}";
}
);
layerId = "2146CDF3-509B-498B-BCC4-8BA41979C9D7";
paths = (
{
closed = 1;
nodes = (
"196 1590 LINE",
"366 1424 LINE",
"633 1610 LINE",
"860 1424 LINE",
"1071 1590 LINE",
"662 1924 LINE"
);
}
);
width = 961;
}
);
unicode = 02C6;
},
{
glyphname = acircumflex;
lastChange = "2019-05-24 19:57:14 +0000";
layers = (
{
layerId = "AD226DB4-BE97-401A-8A1F-FC26A063DFB1";
paths = (
{
closed = 1;
nodes = (
"772 820 OFFCURVE",
"699 901 OFFCURVE",
"547 901 CURVE SMOOTH",
"425 901 OFFCURVE",
"309 849 OFFCURVE",
"299 701 CURVE",
"221 701 LINE",
"239 896 OFFCURVE",
"397 960 OFFCURVE",
"551 960 CURVE SMOOTH",
"721 960 OFFCURVE",
"840 867 OFFCURVE",
"816 614 CURVE SMOOTH",
"758 0 LINE",
"703 0 LINE",
"705 65 OFFCURVE",
"709 126 OFFCURVE",
"712 190 CURVE",
"643 44 OFFCURVE",
"520 -15 OFFCURVE",
"373 -15 CURVE SMOOTH",
"227 -15 OFFCURVE",
"129 122 OFFCURVE",
"145 251 CURVE",
"165 447 OFFCURVE",
"326 530 OFFCURVE",
"475 530 CURVE SMOOTH",
"565 530 OFFCURVE",
"657 510 OFFCURVE",
"740 463 CURVE",
"754 613 LINE"
);
},
{
closed = 1;
nodes = (
"314 1111 LINE",
"352 1076 LINE",
"600 1308 LINE",
"807 1076 LINE",
"847 1111 LINE",
"609 1412 LINE"
);
},
{
closed = 1;
nodes = (
"338 466 OFFCURVE",
"229 414 OFFCURVE",
"212 251 CURVE SMOOTH",
"202 133 OFFCURVE",
"238 44 OFFCURVE",
"396 44 CURVE SMOOTH",
"533 44 OFFCURVE",
"747 183 OFFCURVE",
"734 418 CURVE",
"643 448 OFFCURVE",
"554 466 OFFCURVE",
"473 466 CURVE SMOOTH",
"473 466 LINE"
);
}
);
width = 927;
},
{
layerId = "2146CDF3-509B-498B-BCC4-8BA41979C9D7";
paths = (
{
closed = 1;
nodes = (
"766 729 OFFCURVE",
"745 783 OFFCURVE",
"646 783 CURVE SMOOTH",
"556 783 OFFCURVE",
"512 731 OFFCURVE",
"502 674 CURVE",
"182 674 LINE",
"206 909 OFFCURVE",
"364 1020 OFFCURVE",
"669 1020 CURVE SMOOTH",
"931 1020 OFFCURVE",
"1076 887 OFFCURVE",
"1052 620 CURVE SMOOTH",
"994 0 LINE",
"736 0 LINE",
"732 32 OFFCURVE",
"729 66 OFFCURVE",
"725 99 CURVE",
"670 31 OFFCURVE",
"599 -35 OFFCURVE",
"485 -35 CURVE SMOOTH",
"200 -35 OFFCURVE",
"96 116 OFFCURVE",
"112 303 CURVE",
"126 480 OFFCURVE",
"266 590 OFFCURVE",
"527 590 CURVE SMOOTH",
"611 590 OFFCURVE",
"677 576 OFFCURVE",
"746 568 CURVE",
"754 633 LINE"
);
},
{
closed = 1;
nodes = (
"254 1302 LINE",
"424 1136 LINE",
"691 1321 LINE",
"919 1136 LINE",
"1129 1302 LINE",
"721 1636 LINE"
);
},
{
closed = 1;
nodes = (
"496 381 OFFCURVE",
"432 354 OFFCURVE",
"429 303 CURVE SMOOTH",
"426 258 OFFCURVE",
"481 214 OFFCURVE",
"566 214 CURVE SMOOTH",
"664 214 OFFCURVE",
"701 288 OFFCURVE",
"728 358 CURVE",
"689 369 OFFCURVE",
"620 381 OFFCURVE",
"572 381 CURVE SMOOTH",
"572 381 LINE"
);
}
);
width = 1124;
}
);
unicode = 00E2;
},
{
glyphname = ecircumflex;
lastChange = "2019-05-24 19:57:20 +0000";
layers = (
{
layerId = "AD226DB4-BE97-401A-8A1F-FC26A063DFB1";
paths = (
{
closed = 1;
nodes = (
"837 518 OFFCURVE",
"843 581 OFFCURVE",
"842 634 CURVE SMOOTH",
"835 834 OFFCURVE",
"741 960 OFFCURVE",
"554 960 CURVE SMOOTH",
"332 960 OFFCURVE",
"172 773 OFFCURVE",
"142 465 CURVE SMOOTH",
"112 155 OFFCURVE",
"240 -15 OFFCURVE",
"462 -15 CURVE SMOOTH",
"633 -15 OFFCURVE",
"768 77 OFFCURVE",
"816 269 CURVE",
"744 269 LINE",
"712 121 OFFCURVE",
"615 45 OFFCURVE",
"468 45 CURVE SMOOTH",
"269 45 OFFCURVE",
"192 226 OFFCURVE",
"208 461 CURVE",
"824 461 LINE"
);
},
{
closed = 1;
nodes = (
"288 1110 LINE",
"327 1076 LINE",
"574 1307 LINE",
"782 1076 LINE",
"821 1110 LINE",
"584 1411 LINE"
);
},
{
closed = 1;
nodes = (
"745 902 OFFCURVE",
"792 734 OFFCURVE",
"774 549 CURVE",
"220 549 LINE",
"253 733 OFFCURVE",
"366 902 OFFCURVE",
"551 902 CURVE SMOOTH",
"551 902 LINE"
);
}
);
width = 896;
},
{
layerId = "2146CDF3-509B-498B-BCC4-8BA41979C9D7";
paths = (
{
closed = 1;
nodes = (
"968 433 OFFCURVE",
"974 450 OFFCURVE",
"981 476 CURVE SMOOTH",
"1019 743 OFFCURVE",
"919 1020 OFFCURVE",
"626 1020 CURVE SMOOTH",
"398 1020 OFFCURVE",
"172 825 OFFCURVE",
"142 498 CURVE SMOOTH",
"112 188 OFFCURVE",
"300 -35 OFFCURVE",
"528 -35 CURVE SMOOTH",
"745 -35 OFFCURVE",
"913 116 OFFCURVE",
"955 302 CURVE",
"659 302 LINE",
"640 252 OFFCURVE",
"595 229 OFFCURVE",
"553 229 CURVE SMOOTH",
"460 229 OFFCURVE",
"416 298 OFFCURVE",
"425 409 CURVE",
"963 409 LINE"
);
},
{
closed = 1;
nodes = (
"197 1334 LINE",
"366 1167 LINE",
"634 1353 LINE",
"861 1167 LINE",
"1071 1334 LINE",
"663 1668 LINE"
);
},
{
closed = 1;
nodes = (
"699 757 OFFCURVE",
"720 674 OFFCURVE",
"714 595 CURVE",
"444 595 LINE",
"463 700 OFFCURVE",
"524 757 OFFCURVE",
"603 757 CURVE SMOOTH",
"603 757 LINE"
);
}
);
width = 988;
}
);
unicode = 00EA;
},
{
glyphname = ocircumflex;
lastChange = "2019-05-24 19:57:20 +0000";
layers = (
{
layerId = "AD226DB4-BE97-401A-8A1F-FC26A063DFB1";
paths = (
{
closed = 1;
nodes = (
"337 960 OFFCURVE",
"175 782 OFFCURVE",
"143 471 CURVE SMOOTH",
"111 159 OFFCURVE",
"247 -15 OFFCURVE",
"470 -15 CURVE SMOOTH",
"700 -15 OFFCURVE",
"865 159 OFFCURVE",
"897 471 CURVE",
"922 782 OFFCURVE",
"796 960 OFFCURVE",
"566 960 CURVE SMOOTH",
"566 960 LINE"
);
},
{
closed = 1;
nodes = (
"768 898 OFFCURVE",
"853 723 OFFCURVE",
"829 471 CURVE SMOOTH",
"804 219 OFFCURVE",
"684 45 OFFCURVE",
"474 45 CURVE SMOOTH",
"265 45 OFFCURVE",
"195 219 OFFCURVE",
"215 471 CURVE SMOOTH",
"239 723 OFFCURVE",
"347 898 OFFCURVE",
"559 898 CURVE SMOOTH",
"559 898 LINE"
);
},
{
closed = 1;
nodes = (
"308 1111 LINE",
"347 1076 LINE",
"594 1308 LINE",
"802 1076 LINE",
"841 1111 LINE",
"604 1412 LINE"
);
}
);
width = 947;
},
{
layerId = "2146CDF3-509B-498B-BCC4-8BA41979C9D7";
paths = (
{
closed = 1;
nodes = (
"383 1020 OFFCURVE",
"155 861 OFFCURVE",
"123 491 CURVE SMOOTH",
"91 132 OFFCURVE",
"280 -35 OFFCURVE",
"530 -35 CURVE SMOOTH",
"766 -35 OFFCURVE",
"996 132 OFFCURVE",
"1028 491 CURVE",
"1067 861 OFFCURVE",
"862 1020 OFFCURVE",
"626 1020 CURVE SMOOTH",
"626 1020 LINE"
);
},
{
closed = 1;
nodes = (
"689 734 OFFCURVE",
"748 671 OFFCURVE",
"730 491 CURVE SMOOTH",
"713 318 OFFCURVE",
"624 255 OFFCURVE",
"546 255 CURVE SMOOTH",
"468 255 OFFCURVE",
"398 318 OFFCURVE",
"418 491 CURVE SMOOTH",
"436 671 OFFCURVE",
"531 734 OFFCURVE",
"611 734 CURVE SMOOTH",
"611 734 LINE"
);
},
{
closed = 1;
nodes = (
"217 1302 LINE",
"386 1136 LINE",
"654 1321 LINE",
"881 1136 LINE",
"1091 1302 LINE",
"683 1636 LINE"
);
}
);
width = 1059;
}
);
unicode = 00F4;
},
{
glyphname = ucircumflex;
lastChange = "2019-05-24 19:57:20 +0000";
layers = (
{
layerId = "AD226DB4-BE97-401A-8A1F-FC26A063DFB1";
paths = (
{
closed = 1;
nodes = (
"195 346 LINE",
"177 115 OFFCURVE",
"273 -18 OFFCURVE",
"476 -18 CURVE SMOOTH",
"617 -18 OFFCURVE",
"734 69 OFFCURVE",
"806 207 CURVE",
"786 0 LINE",
"849 0 LINE",
"939 941 LINE",
"873 941 LINE",
"829 472 LINE SMOOTH",
"809 252 OFFCURVE",
"683 46 OFFCURVE",
"486 46 CURVE SMOOTH",
"317 46 OFFCURVE",
"240 148 OFFCURVE",
"263 345 CURVE SMOOTH",
"316 941 LINE",
"250 941 LINE"
);
},
{
closed = 1;
nodes = (
"364 1226 LINE",
"403 1192 LINE",
"650 1423 LINE",
"858 1192 LINE",
"897 1226 LINE",
"660 1527 LINE"
);
}
);
width = 1049;
},
{
layerId = "2146CDF3-509B-498B-BCC4-8BA41979C9D7";
paths = (
{
closed = 1;
nodes = (
"175 359 LINE",
"144 69 OFFCURVE",
"306 -18 OFFCURVE",
"482 -18 CURVE SMOOTH",
"584 -18 OFFCURVE",
"674 30 OFFCURVE",
"740 155 CURVE",
"726 0 LINE",
"1027 0 LINE",
"1117 993 LINE",
"821 993 LINE",
"777 532 LINE SMOOTH",
"757 324 OFFCURVE",
"650 270 OFFCURVE",
"565 270 CURVE SMOOTH",
"508 270 OFFCURVE",
"470 312 OFFCURVE",
"473 397 CURVE SMOOTH",
"533 993 LINE",
"237 993 LINE"
);
},
{
closed = 1;
nodes = (
"273 1298 LINE",
"442 1132 LINE",
"710 1318 LINE",
"937 1132 LINE",
"1147 1298 LINE",
"739 1632 LINE"
);
}
);
width = 1174;
}
);
unicode = 00FB;
},
{
glyphname = Acircumflex;
lastChange = "2019-05-24 19:57:20 +0000";
layers = (
{
layerId = "AD226DB4-BE97-401A-8A1F-FC26A063DFB1";
paths = (
{
closed = 1;
nodes = (
"122 0 LINE",
"270 363 LINE",
"739 363 LINE",
"816 0 LINE",
"879 0 LINE",
"622 1215 LINE",
"547 1215 LINE",
"53 0 LINE"
);
},
{
closed = 1;
nodes = (
"574 1118 LINE",
"722 429 LINE",
"294 429 LINE"
);
},
{
closed = 1;
nodes = (
"614 1550 LINE",
"821 1319 LINE",
"861 1354 LINE",
"623 1655 LINE",
"328 1354 LINE",
"366 1319 LINE"
);
}
);
width = 934;
},
{
layerId = "2146CDF3-509B-498B-BCC4-8BA41979C9D7";
paths = (
{
closed = 1;
nodes = (
"346 0 LINE",
"434 232 LINE",
"844 232 LINE",
"888 0 LINE",
"1208 0 LINE",
"943 1346 LINE",
"567 1346 LINE",
"33 0 LINE"
);
},
{
closed = 1;
nodes = (
"713 960 LINE",
"801 475 LINE",
"530 475 LINE"
);
},
{
closed = 1;
nodes = (
"778 1610 LINE",
"1005 1424 LINE",
"1216 1590 LINE",
"807 1924 LINE",
"341 1590 LINE",
"511 1424 LINE"
);
}
);
width = 1236;
}
);
unicode = 00C2;
},
{
glyphname = Ecircumflex;
lastChange = "2019-05-24 19:57:20 +0000";
layers = (
{
layerId = "AD226DB4-BE97-401A-8A1F-FC26A063DFB1";
paths = (
{
closed = 1;
nodes = (
"828 0 LINE",
"837 64 LINE",
"264 64 LINE",
"313 586 LINE",
"852 586 LINE",
"855 644 LINE",
"316 644 LINE",
"365 1152 LINE",
"934 1152 LINE",
"945 1215 LINE",
"306 1215 LINE",
"192 0 LINE"
);
},
{
closed = 1;
nodes = (
"374 1354 LINE",
"412 1319 LINE",
"660 1550 LINE",
"867 1319 LINE",
"907 1354 LINE",
"669 1655 LINE"
);
}
);
width = 970;
},
{
layerId = "2146CDF3-509B-498B-BCC4-8BA41979C9D7";
paths = (
{
closed = 1;
nodes = (
"998 0 LINE",
"1021 288 LINE",
"500 288 LINE",
"523 526 LINE",
"1010 526 LINE",
"1039 814 LINE",
"552 814 LINE",
"575 1061 LINE",
"1098 1061 LINE",
"1123 1346 LINE",
"306 1346 LINE",
"179 0 LINE"
);
},
{
closed = 1;
nodes = (
"302 1590 LINE",
"472 1424 LINE",
"739 1610 LINE",
"966 1424 LINE",
"1176 1590 LINE",
"768 1924 LINE"
);
}
);
width = 1108;
}
);
unicode = 00CA;
},
{
glyphname = Icircumflex;
lastChange = "2019-05-24 19:57:20 +0000";
layers = (
{
layerId = "AD226DB4-BE97-401A-8A1F-FC26A063DFB1";
paths = (
{
closed = 1;
nodes = (
"263 0 LINE",
"377 1215 LINE",
"311 1215 LINE",
"197 0 LINE"
);
},
{
closed = 1;
nodes = (
"88 1354 LINE",
"126 1319 LINE",
"374 1550 LINE",
"581 1319 LINE",
"621 1354 LINE",
"383 1655 LINE"
);
}
);
width = 456;
},
{
layerId = "2146CDF3-509B-498B-BCC4-8BA41979C9D7";
paths = (
{
closed = 1;
nodes = (
"447 0 LINE",
"574 1346 LINE",
"278 1346 LINE",
"151 0 LINE"
);
},
{
closed = 1;
nodes = (
"16 1590 LINE",
"186 1424 LINE",
"453 1610 LINE",
"680 1424 LINE",
"890 1590 LINE",
"482 1924 LINE"
);
}
);
width = 601;
}
);
unicode = 00CE;
},
{
glyphname = Ocircumflex;
lastChange = "2019-05-24 19:57:20 +0000";
layers = (
{
layerId = "AD226DB4-BE97-401A-8A1F-FC26A063DFB1";
paths = (
{
closed = 1;
nodes = (
"788 -15 OFFCURVE",
"1008 179 OFFCURVE",
"1052 604 CURVE",
"1089 1025 OFFCURVE",
"910 1232 OFFCURVE",
"663 1232 CURVE SMOOTH",
"413 1232 OFFCURVE",
"196 1023 OFFCURVE",
"159 604 CURVE",
"119 181 OFFCURVE",
"294 -15 OFFCURVE",
"543 -15 CURVE SMOOTH"
);
},
{
closed = 1;
nodes = (
"317 53 OFFCURVE",
"190 237 OFFCURVE",
"224 604 CURVE SMOOTH",
"263 967 OFFCURVE",
"417 1166 OFFCURVE",
"655 1166 CURVE SMOOTH",
"887 1166 OFFCURVE",
"1018 967 OFFCURVE",
"982 602 CURVE SMOOTH",
"945 237 OFFCURVE",
"782 53 OFFCURVE",
"551 53 CURVE SMOOTH"
);
},
{
closed = 1;
nodes = (
"691 1550 LINE",
"899 1319 LINE",
"938 1354 LINE",
"701 1655 LINE",
"405 1354 LINE",
"444 1319 LINE"
);
}
);
width = 1088;
},
{
layerId = "2146CDF3-509B-498B-BCC4-8BA41979C9D7";
paths = (
{
closed = 1;
nodes = (
"1005 -35 OFFCURVE",
"1251 206 OFFCURVE",
"1295 676 CURVE",
"1339 1137 OFFCURVE",
"1134 1377 OFFCURVE",
"781 1377 CURVE SMOOTH",
"433 1377 OFFCURVE",
"183 1154 OFFCURVE",
"139 676 CURVE",
"92 214 OFFCURVE",
"300 -35 OFFCURVE",
"648 -35 CURVE SMOOTH"
);
},
{
closed = 1;
nodes = (
"514 263 OFFCURVE",
"420 415 OFFCURVE",
"448 676 CURVE SMOOTH",
"466 928 OFFCURVE",
"595 1081 OFFCURVE",
"754 1081 CURVE SMOOTH",
"920 1081 OFFCURVE",
"1012 928 OFFCURVE",
"988 681 CURVE SMOOTH",
"965 415 OFFCURVE",
"842 263 OFFCURVE",
"676 263 CURVE SMOOTH"
);
},
{
closed = 1;
nodes = (
"803 1610 LINE",
"1030 1424 LINE",
"1240 1590 LINE",
"832 1924 LINE",
"366 1590 LINE",
"535 1424 LINE"
);
}
);
width = 1312;
}
);
unicode = 00D4;
},
{
glyphname = Ucircumflex;
lastChange = "2019-05-24 19:57:20 +0000";
layers = (
{
layerId = "AD226DB4-BE97-401A-8A1F-FC26A063DFB1";
paths = (
{
closed = 1;
nodes = (
"202 415 LINE",
"177 116 OFFCURVE",
"318 -15 OFFCURVE",
"545 -15 CURVE SMOOTH",
"766 -15 OFFCURVE",
"943 116 OFFCURVE",
"967 415 CURVE",
"1047 1215 LINE",
"981 1215 LINE",
"903 415 LINE SMOOTH",
"879 159 OFFCURVE",
"746 48 OFFCURVE",
"555 48 CURVE SMOOTH",
"357 48 OFFCURVE",
"244 159 OFFCURVE",
"268 415 CURVE SMOOTH",
"346 1215 LINE",
"280 1215 LINE"
);
},
{
closed = 1;
nodes = (
"407 1354 LINE",
"445 1319 LINE",
"693 1550 LINE",
"900 1319 LINE",
"940 1354 LINE",
"702 1655 LINE"
);
}
);
width = 1109;
},
{
layerId = "2146CDF3-509B-498B-BCC4-8BA41979C9D7";
paths = (
{
closed = 1;
nodes = (
"189 533 LINE",
"157 188 OFFCURVE",
"324 -35 OFFCURVE",
"663 -35 CURVE SMOOTH",
"1002 -35 OFFCURVE",
"1206 188 OFFCURVE",
"1243 533 CURVE",
"1316 1346 LINE",
"1020 1346 LINE",
"942 533 LINE SMOOTH",
"925 343 OFFCURVE",
"818 272 OFFCURVE",
"686 272 CURVE SMOOTH",
"560 272 OFFCURVE",
"468 343 OFFCURVE",
"485 533 CURVE SMOOTH",
"563 1346 LINE",
"267 1346 LINE"
);
},
{
closed = 1;
nodes = (
"380 1590 LINE",
"550 1424 LINE",
"818 1610 LINE",
"1045 1424 LINE",
"1255 1590 LINE",
"847 1924 LINE"
);
}
);
width = 1319;
}
);
unicode = 00DB;
},
{
glyphname = tilde;
lastChange = "2019-05-24 19:57:20 +0000";
layers = (
{
anchors = (
{
name = _above;
position = "{326, 1270}";
}
);
layerId = "AD226DB4-BE97-401A-8A1F-FC26A063DFB1";
paths = (
{
closed = 1;
nodes = (
"241 1490 OFFCURVE",
"275 1516 OFFCURVE",
"307 1516 CURVE SMOOTH",
"331 1516 OFFCURVE",
"345 1510 OFFCURVE",
"420 1472 CURVE",
"502 1417 OFFCURVE",
"528 1412 OFFCURVE",
"557 1412 CURVE SMOOTH",
"608 1412 OFFCURVE",
"661 1456 OFFCURVE",
"699 1562 CURVE",
"667 1586 LINE",
"635 1510 OFFCURVE",
"601 1476 OFFCURVE",
"563 1476 CURVE SMOOTH",
"537 1476 OFFCURVE",
"526 1479 OFFCURVE",
"440 1530 CURVE SMOOTH",
"358 1578 OFFCURVE",
"340 1586 OFFCURVE",
"314 1586 CURVE SMOOTH",
"260 1586 OFFCURVE",
"215 1538 OFFCURVE",
"176 1430 CURVE",
"204 1412 LINE"
);
}
);
width = 602;
},
{
anchors = (
{
name = _above;
position = "{326, 1270}";
}
);
layerId = "2146CDF3-509B-498B-BCC4-8BA41979C9D7";
paths = (
{
closed = 1;
nodes = (
"340 1569 OFFCURVE",
"380 1588 OFFCURVE",
"425 1588 CURVE SMOOTH",
"449 1588 OFFCURVE",
"470 1576 OFFCURVE",
"511 1544 CURVE",
"568 1516 OFFCURVE",
"607 1491 OFFCURVE",
"656 1491 CURVE SMOOTH",
"747 1491 OFFCURVE",
"858 1626 OFFCURVE",
"896 1792 CURVE",
"785 1882 LINE",
"753 1819 OFFCURVE",
"713 1791 OFFCURVE",
"681 1791 CURVE SMOOTH",
"649 1791 OFFCURVE",
"617 1814 OFFCURVE",
"579 1839 CURVE SMOOTH",
"528 1868 OFFCURVE",
"491 1882 OFFCURVE",
"453 1882 CURVE SMOOTH",
"339 1882 OFFCURVE",
"235 1762 OFFCURVE",
"189 1569 CURVE",
"295 1491 LINE"
);
}
);
width = 772;
}
);
unicode = 02DC;
},
{
glyphname = ampersand;
lastChange = "2019-05-24 19:57:20 +0000";
layers = (
{
layerId = "AD226DB4-BE97-401A-8A1F-FC26A063DFB1";
paths = (
{
closed = 1;
nodes = (
"729 -15 OFFCURVE",
"873 59 OFFCURVE",
"993 182 CURVE",
"1150 41 OFFCURVE",
"1154 -15 OFFCURVE",
"1275 -15 CURVE SMOOTH",
"1396 -15 OFFCURVE",
"1473 64 OFFCURVE",
"1503 228 CURVE",
"1432 228 LINE",
"1410 95 OFFCURVE",
"1345 47 OFFCURVE",
"1285 47 CURVE SMOOTH",
"1225 47 OFFCURVE",
"1197 64 OFFCURVE",
"1151 115 CURVE SMOOTH",
"1035 236 LINE",
"1144 363 OFFCURVE",
"1228 532 OFFCURVE",
"1294 713 CURVE",
"1246 743 LINE",
"1177 567 OFFCURVE",
"1097 402 OFFCURVE",
"992 277 CURVE",
"674 609 LINE",
"905 724 OFFCURVE",
"990 829 OFFCURVE",
"1001 962 CURVE SMOOTH",
"1015 1117 OFFCURVE",
"906 1232 OFFCURVE",
"750 1232 CURVE SMOOTH",
"569 1232 OFFCURVE",
"433 1122 OFFCURVE",
"417 962 CURVE SMOOTH",
"407 850 OFFCURVE",
"445 752 OFFCURVE",
"540 660 CURVE SMOOTH",
"562 638 LINE",
"325 596 OFFCURVE",
"203 504 OFFCURVE",
"183 324 CURVE SMOOTH",
"165 136 OFFCURVE",
"311 -15 OFFCURVE",
"556 -15 CURVE SMOOTH"
);
},
{
closed = 1;
nodes = (
"341 44 OFFCURVE",
"236 170 OFFCURVE",
"252 321 CURVE SMOOTH",
"267 476 OFFCURVE",
"385 561 OFFCURVE",
"610 589 CURVE",
"953 224 LINE",
"842 110 OFFCURVE",
"714 44 OFFCURVE",
"566 44 CURVE SMOOTH"
);
},
{
closed = 1;
nodes = (
"580 704 LINE SMOOTH",
"503 789 OFFCURVE",
"481 866 OFFCURVE",
"489 949 CURVE SMOOTH",
"497 1067 OFFCURVE",
"586 1174 OFFCURVE",
"744 1174 CURVE SMOOTH",
"868 1174 OFFCURVE",
"947 1087 OFFCURVE",
"936 974 CURVE SMOOTH",
"924 867 OFFCURVE",
"883 772 OFFCURVE",
"635 645 CURVE"
);
}
);
width = 1552;
},
{
layerId = "2146CDF3-509B-498B-BCC4-8BA41979C9D7";
paths = (
{
closed = 1;
nodes = (
"834 -35 OFFCURVE",
"972 13 OFFCURVE",
"1098 103 CURVE",
"1150 21 OFFCURVE",
"1299 -35 OFFCURVE",
"1406 -35 CURVE SMOOTH",
"1620 -35 OFFCURVE",
"1742 136 OFFCURVE",
"1766 386 CURVE",
"1504 386 LINE",
"1495 298 OFFCURVE",
"1450 257 OFFCURVE",
"1397 257 CURVE SMOOTH",
"1343 257 OFFCURVE",
"1309 281 OFFCURVE",
"1276 318 CURVE SMOOTH",
"1298 296 LINE",
"1380 402 OFFCURVE",
"1458 526 OFFCURVE",
"1524 674 CURVE",
"1337 795 LINE",
"1276 672 OFFCURVE",
"1202 572 OFFCURVE",
"1131 487 CURVE",
"989 655 LINE",
"1187 724 OFFCURVE",
"1311 849 OFFCURVE",
"1330 1034 CURVE SMOOTH",
"1350 1216 OFFCURVE",
"1208 1371 OFFCURVE",
"914 1371 CURVE SMOOTH",
"621 1371 OFFCURVE",
"453 1213 OFFCURVE",
"437 1028 CURVE SMOOTH",
"427 922 OFFCURVE",
"478 818 OFFCURVE",
"527 751 CURVE SMOOTH",
"556 717 LINE",
"358 681 OFFCURVE",
"223 576 OFFCURVE",
"210 396 CURVE SMOOTH",
"185 149 OFFCURVE",
"416 -35 OFFCURVE",
"695 -35 CURVE SMOOTH"
);
},
{
closed = 1;
nodes = (
"604 268 OFFCURVE",
"532 334 OFFCURVE",
"542 420 CURVE SMOOTH",
"543 482 OFFCURVE",
"588 534 OFFCURVE",
"701 556 CURVE",
"920 303 LINE",
"855 280 OFFCURVE",
"786 268 OFFCURVE",
"724 268 CURVE SMOOTH"
);
},
{
closed = 1;
nodes = (
"816 855 LINE SMOOTH",
"779 894 OFFCURVE",
"750 932 OFFCURVE",
"758 982 CURVE SMOOTH",
"766 1040 OFFCURVE",
"816 1083 OFFCURVE",
"889 1083 CURVE SMOOTH",
"959 1083 OFFCURVE",
"999 1041 OFFCURVE",
"996 980 CURVE SMOOTH",
"984 894 OFFCURVE",
"910 844 OFFCURVE",
"845 823 CURVE"
);
}
);
width = 1842;
}
);
unicode = 0026;
},
{
glyphname = at;
lastChange = "2019-05-24 19:57:20 +0000";
layers = (
{
layerId = "AD226DB4-BE97-401A-8A1F-FC26A063DFB1";
paths = (
{
closed = 1;
nodes = (
"912 -225 LINE",
"462 -225 OFFCURVE",
"194 47 OFFCURVE",
"239 475 CURVE SMOOTH",
"272 837 OFFCURVE",
"545 1166 OFFCURVE",
"933 1166 CURVE SMOOTH",
"1260 1166 OFFCURVE",
"1459 928 OFFCURVE",
"1433 599 CURVE",
"1401 331 OFFCURVE",
"1245 148 OFFCURVE",
"1123 148 CURVE SMOOTH",
"1068 148 OFFCURVE",
"1048 180 OFFCURVE",
"1052 250 CURVE SMOOTH",
"1086 600 LINE SMOOTH",
"1102 774 OFFCURVE",
"1031 859 OFFCURVE",
"909 859 CURVE SMOOTH",
"718 859 OFFCURVE",
"530 677 OFFCURVE",
"504 422 CURVE SMOOTH",
"486 222 OFFCURVE",
"601 104 OFFCURVE",
"741 104 CURVE SMOOTH",
"861 104 OFFCURVE",
"941 182 OFFCURVE",
"989 282 CURVE",
"991 250 LINE",
"981 154 OFFCURVE",
"1031 104 OFFCURVE",
"1122 104 CURVE SMOOTH",
"1296 104 OFFCURVE",
"1476 310 OFFCURVE",
"1505 599 CURVE SMOOTH",
"1537 944 OFFCURVE",
"1309 1232 OFFCURVE",
"940 1232 CURVE SMOOTH",
"522 1232 OFFCURVE",
"202 902 OFFCURVE",
"164 478 CURVE SMOOTH",
"122 25 OFFCURVE",
"415 -282 OFFCURVE",
"903 -282 CURVE"
);
},
{
closed = 1;
nodes = (
"633 158 OFFCURVE",
"552 257 OFFCURVE",
"575 421 CURVE",
"593 655 OFFCURVE",
"774 798 OFFCURVE",
"905 798 CURVE SMOOTH",
"1000 798 OFFCURVE",
"1039 746 OFFCURVE",
"1023 598 CURVE",
"1007 373 LINE",
"928 235 OFFCURVE",
"857 158 OFFCURVE",
"751 158 CURVE SMOOTH"
);
}
);
width = 1523;
},
{
layerId = "2146CDF3-509B-498B-BCC4-8BA41979C9D7";
paths = (
{
closed = 1;
nodes = (
"1051 -252 LINE",
"613 -252 OFFCURVE",
"418 14 OFFCURVE",
"449 363 CURVE SMOOTH",
"489 785 OFFCURVE",
"808 1081 OFFCURVE",
"1215 1081 CURVE SMOOTH",
"1569 1081 OFFCURVE",
"1722 856 OFFCURVE",
"1690 579 CURVE",
"1670 292 OFFCURVE",
"1527 227 OFFCURVE",
"1478 227 CURVE SMOOTH",
"1443 227 OFFCURVE",
"1423 252 OFFCURVE",
"1433 329 CURVE SMOOTH",
"1455 540 LINE SMOOTH",
"1477 774 OFFCURVE",
"1373 892 OFFCURVE",
"1191 892 CURVE SMOOTH",
"935 892 OFFCURVE",
"694 657 OFFCURVE",
"668 362 CURVE SMOOTH",
"644 137 OFFCURVE",
"785 -41 OFFCURVE",
"944 -41 CURVE SMOOTH",
"1071 -41 OFFCURVE",
"1132 18 OFFCURVE",
"1192 118 CURVE",
"1201 86 LINE",
"1231 9 OFFCURVE",
"1313 -41 OFFCURVE",
"1437 -41 CURVE SMOOTH",
"1677 -41 OFFCURVE",
"1949 165 OFFCURVE",
"1985 579 CURVE SMOOTH",
"2030 1029 OFFCURVE",
"1736 1377 OFFCURVE",
"1242 1377 CURVE SMOOTH",
"680 1377 OFFCURVE",
"215 993 OFFCURVE",
"158 387 CURVE SMOOTH",
"109 -106 OFFCURVE",
"448 -525 OFFCURVE",
"1028 -525 CURVE"
);
},
{
closed = 1;
nodes = (
"968 230 OFFCURVE",
"927 277 OFFCURVE",
"930 369 CURVE",
"948 537 OFFCURVE",
"1070 640 OFFCURVE",
"1155 640 CURVE SMOOTH",
"1217 640 OFFCURVE",
"1223 582 OFFCURVE",
"1220 538 CURVE",
"1198 353 LINE",
"1152 268 OFFCURVE",
"1107 230 OFFCURVE",
"1033 230 CURVE SMOOTH"
);
}
);
width = 2035;
}
);
unicode = 0040;
},
{
glyphname = dieresis;
lastChange = "2019-05-24 19:57:20 +0000";
layers = (
{
anchors = (
{
name = _above;
position = "{290, 1360}";
}
);
layerId = "AD226DB4-BE97-401A-8A1F-FC26A063DFB1";
paths = (
{
closed = 1;
nodes = (
"196 1609 OFFCURVE",
"215 1578 OFFCURVE",
"247 1578 CURVE SMOOTH",
"286 1578 OFFCURVE",
"321 1609 OFFCURVE",
"321 1641 CURVE SMOOTH",
"327 1677 OFFCURVE",
"299 1708 OFFCURVE",
"263 1708 CURVE SMOOTH",
"231 1708 OFFCURVE",
"206 1677 OFFCURVE",
"200 1641 CURVE SMOOTH"
);
},
{
closed = 1;
nodes = (
"448 1609 OFFCURVE",
"469 1575 OFFCURVE",
"499 1575 CURVE SMOOTH",
"536 1575 OFFCURVE",
"573 1609 OFFCURVE",
"575 1639 CURVE SMOOTH",
"579 1677 OFFCURVE",
"551 1706 OFFCURVE",
"515 1706 CURVE SMOOTH",
"485 1706 OFFCURVE",
"458 1677 OFFCURVE",
"452 1639 CURVE SMOOTH"
);
}
);
width = 467;
},
{
anchors = (
{
name = _above;
position = "{290, 1360}";
}
);
layerId = "2146CDF3-509B-498B-BCC4-8BA41979C9D7";
paths = (
{
closed = 1;
nodes = (
"190 1589 OFFCURVE",
"254 1518 OFFCURVE",
"352 1518 CURVE SMOOTH",
"444 1518 OFFCURVE",
"518 1589 OFFCURVE",
"531 1687 CURVE SMOOTH",
"537 1789 OFFCURVE",
"477 1859 OFFCURVE",
"381 1859 CURVE SMOOTH",
"283 1859 OFFCURVE",
"206 1789 OFFCURVE",
"200 1687 CURVE SMOOTH"
);
},
{
closed = 1;
nodes = (
"593 1589 OFFCURVE",
"660 1523 OFFCURVE",
"756 1523 CURVE SMOOTH",
"851 1523 OFFCURVE",
"921 1589 OFFCURVE",
"930 1691 CURVE SMOOTH",
"940 1789 OFFCURVE",
"880 1864 OFFCURVE",
"784 1864 CURVE SMOOTH",
"688 1864 OFFCURVE",
"609 1789 OFFCURVE",
"603 1691 CURVE SMOOTH"
);
}
);
width = 815;
}
);
unicode = 00A8;
},
{
glyphname = adieresis;
lastChange = "2019-05-24 19:57:14 +0000";
layers = (
{
layerId = "AD226DB4-BE97-401A-8A1F-FC26A063DFB1";
paths = (
{
closed = 1;
nodes = (
"520 -15 OFFCURVE",
"643 44 OFFCURVE",
"712 190 CURVE",
"709 126 OFFCURVE",
"705 65 OFFCURVE",
"703 0 CURVE",
"758 0 LINE",
"816 614 LINE SMOOTH",
"840 867 OFFCURVE",
"721 960 OFFCURVE",
"551 960 CURVE SMOOTH",
"397 960 OFFCURVE",
"239 896 OFFCURVE",
"221 701 CURVE",
"299 701 LINE",
"309 849 OFFCURVE",
"425 901 OFFCURVE",
"547 901 CURVE SMOOTH",
"699 901 OFFCURVE",
"772 820 OFFCURVE",
"754 613 CURVE",
"740 463 LINE",
"657 510 OFFCURVE",
"565 530 OFFCURVE",
"475 530 CURVE SMOOTH",
"326 530 OFFCURVE",
"165 447 OFFCURVE",
"145 251 CURVE",
"129 122 OFFCURVE",
"227 -15 OFFCURVE",
"373 -15 CURVE SMOOTH"
);
},
{
closed = 1;
nodes = (
"238 44 OFFCURVE",
"202 133 OFFCURVE",
"212 251 CURVE SMOOTH",
"229 414 OFFCURVE",
"338 466 OFFCURVE",
"473 466 CURVE SMOOTH",
"554 466 OFFCURVE",
"643 448 OFFCURVE",
"734 418 CURVE",
"747 183 OFFCURVE",
"533 44 OFFCURVE",
"396 44 CURVE SMOOTH"
);
},
{
closed = 1;
nodes = (
"496 1193 OFFCURVE",
"529 1224 OFFCURVE",
"528 1256 CURVE SMOOTH",
"534 1292 OFFCURVE",
"509 1323 OFFCURVE",
"471 1323 CURVE SMOOTH",
"439 1323 OFFCURVE",
"414 1292 OFFCURVE",
"408 1256 CURVE SMOOTH",
"404 1224 OFFCURVE",
"423 1193 OFFCURVE",
"455 1193 CURVE SMOOTH"
);
},
{
closed = 1;
nodes = (
"744 1190 OFFCURVE",
"783 1224 OFFCURVE",
"783 1254 CURVE SMOOTH",
"789 1292 OFFCURVE",
"759 1321 OFFCURVE",
"723 1321 CURVE SMOOTH",
"693 1321 OFFCURVE",
"666 1292 OFFCURVE",
"660 1254 CURVE SMOOTH",
"656 1224 OFFCURVE",
"677 1190 OFFCURVE",
"707 1190 CURVE SMOOTH"
);
}
);
width = 927;
},
{
layerId = "2146CDF3-509B-498B-BCC4-8BA41979C9D7";
paths = (
{
closed = 1;
nodes = (
"599 -35 OFFCURVE",
"670 31 OFFCURVE",
"725 99 CURVE",
"729 66 OFFCURVE",
"732 32 OFFCURVE",
"736 0 CURVE",
"994 0 LINE",
"1052 620 LINE SMOOTH",
"1076 887 OFFCURVE",
"931 1020 OFFCURVE",
"669 1020 CURVE SMOOTH",
"364 1020 OFFCURVE",
"206 909 OFFCURVE",
"182 674 CURVE",
"502 674 LINE",
"512 731 OFFCURVE",
"556 783 OFFCURVE",
"646 783 CURVE SMOOTH",
"745 783 OFFCURVE",
"766 729 OFFCURVE",
"754 633 CURVE",
"746 568 LINE",
"677 576 OFFCURVE",
"611 590 OFFCURVE",
"527 590 CURVE SMOOTH",
"266 590 OFFCURVE",
"126 480 OFFCURVE",
"112 303 CURVE",
"96 116 OFFCURVE",
"200 -35 OFFCURVE",
"485 -35 CURVE SMOOTH"
);
},
{
closed = 1;
nodes = (
"481 214 OFFCURVE",
"426 258 OFFCURVE",
"429 303 CURVE SMOOTH",
"432 354 OFFCURVE",
"496 381 OFFCURVE",
"572 381 CURVE SMOOTH",
"620 381 OFFCURVE",
"689 369 OFFCURVE",
"728 358 CURVE",
"701 288 OFFCURVE",
"664 214 OFFCURVE",
"566 214 CURVE SMOOTH"
);
},
{
closed = 1;
nodes = (
"575 1245 OFFCURVE",
"654 1315 OFFCURVE",
"667 1414 CURVE SMOOTH",
"673 1516 OFFCURVE",
"608 1586 OFFCURVE",
"517 1586 CURVE SMOOTH",
"419 1586 OFFCURVE",
"342 1516 OFFCURVE",
"336 1414 CURVE SMOOTH",
"325 1315 OFFCURVE",
"390 1245 OFFCURVE",
"488 1245 CURVE SMOOTH"
);
},
{
closed = 1;
nodes = (
"987 1250 OFFCURVE",
"1052 1315 OFFCURVE",
"1065 1418 CURVE SMOOTH",
"1071 1516 OFFCURVE",
"1016 1590 OFFCURVE",
"920 1590 CURVE SMOOTH",
"824 1590 OFFCURVE",
"745 1516 OFFCURVE",
"739 1418 CURVE SMOOTH",
"728 1315 OFFCURVE",
"795 1250 OFFCURVE",
"891 1250 CURVE SMOOTH"
);
}
);
width = 1124;
}
);
unicode = 00E4;
},
{
glyphname = edieresis;
lastChange = "2019-05-24 19:57:20 +0000";
layers = (
{
components = (
{
name = e;
}
);
layerId = "AD226DB4-BE97-401A-8A1F-FC26A063DFB1";
paths = (
{
closed = 1;
nodes = (
"475 1193 OFFCURVE",
"508 1224 OFFCURVE",
"508 1256 CURVE SMOOTH",
"514 1292 OFFCURVE",
"489 1323 OFFCURVE",
"450 1323 CURVE SMOOTH",
"418 1323 OFFCURVE",
"393 1292 OFFCURVE",
"387 1256 CURVE SMOOTH",
"384 1224 OFFCURVE",
"402 1193 OFFCURVE",
"435 1193 CURVE SMOOTH"
);
},
{
closed = 1;
nodes = (
"723 1190 OFFCURVE",
"763 1224 OFFCURVE",
"762 1254 CURVE SMOOTH",
"768 1292 OFFCURVE",
"739 1321 OFFCURVE",
"702 1321 CURVE SMOOTH",
"672 1321 OFFCURVE",
"645 1292 OFFCURVE",
"639 1254 CURVE SMOOTH",
"636 1224 OFFCURVE",
"656 1190 OFFCURVE",
"687 1190 CURVE SMOOTH"
);
}
);
width = 896;
},
{
components = (
{
alignment = -1;
name = e;
}
);
layerId = "2146CDF3-509B-498B-BCC4-8BA41979C9D7";
paths = (
{
closed = 1;
nodes = (
"495 1245 OFFCURVE",
"574 1315 OFFCURVE",
"587 1414 CURVE SMOOTH",
"593 1516 OFFCURVE",
"528 1586 OFFCURVE",
"437 1586 CURVE SMOOTH",
"339 1586 OFFCURVE",
"262 1516 OFFCURVE",
"256 1414 CURVE SMOOTH",
"245 1315 OFFCURVE",
"311 1245 OFFCURVE",
"408 1245 CURVE SMOOTH"
);
},
{
closed = 1;
nodes = (
"907 1250 OFFCURVE",
"973 1315 OFFCURVE",
"986 1418 CURVE SMOOTH",
"992 1516 OFFCURVE",
"936 1590 OFFCURVE",
"841 1590 CURVE SMOOTH",
"744 1590 OFFCURVE",
"665 1516 OFFCURVE",
"659 1418 CURVE SMOOTH",
"649 1315 OFFCURVE",
"716 1250 OFFCURVE",
"812 1250 CURVE SMOOTH"
);
}
);
width = 988;
}
);
unicode = 00EB;
},
{
glyphname = odieresis;
lastChange = "2019-05-24 19:57:20 +0000";
layers = (
{
layerId = "AD226DB4-BE97-401A-8A1F-FC26A063DFB1";
paths = (
{
closed = 1;
nodes = (
"698 -15 OFFCURVE",
"867 159 OFFCURVE",
"897 471 CURVE",
"924 782 OFFCURVE",
"794 960 OFFCURVE",
"566 960 CURVE SMOOTH",
"337 960 OFFCURVE",
"175 782 OFFCURVE",
"143 471 CURVE SMOOTH",
"111 159 OFFCURVE",
"247 -15 OFFCURVE",
"470 -15 CURVE SMOOTH"
);
},
{
closed = 1;
nodes = (
"265 45 OFFCURVE",
"195 219 OFFCURVE",
"215 471 CURVE SMOOTH",
"239 723 OFFCURVE",
"347 898 OFFCURVE",
"559 898 CURVE SMOOTH",
"768 898 OFFCURVE",
"853 723 OFFCURVE",
"829 471 CURVE SMOOTH",
"804 219 OFFCURVE",
"684 45 OFFCURVE",
"474 45 CURVE SMOOTH"
);
},
{
closed = 1;
nodes = (
"493 1193 OFFCURVE",
"528 1224 OFFCURVE",
"527 1256 CURVE SMOOTH",
"533 1292 OFFCURVE",
"506 1323 OFFCURVE",
"470 1323 CURVE SMOOTH",
"438 1323 OFFCURVE",
"413 1292 OFFCURVE",
"407 1256 CURVE SMOOTH",
"403 1224 OFFCURVE",
"422 1193 OFFCURVE",
"454 1193 CURVE SMOOTH"
);
},
{
closed = 1;
nodes = (
"743 1190 OFFCURVE",
"780 1224 OFFCURVE",
"782 1254 CURVE SMOOTH",
"785 1292 OFFCURVE",
"758 1321 OFFCURVE",
"722 1321 CURVE SMOOTH",
"692 1321 OFFCURVE",
"665 1292 OFFCURVE",
"659 1254 CURVE SMOOTH",
"655 1224 OFFCURVE",
"676 1190 OFFCURVE",
"706 1190 CURVE SMOOTH"
);
}
);
width = 947;
},
{
layerId = "2146CDF3-509B-498B-BCC4-8BA41979C9D7";
paths = (
{
closed = 1;
nodes = (
"770 -35 OFFCURVE",
"992 132 OFFCURVE",
"1028 491 CURVE",
"1063 861 OFFCURVE",
"866 1020 OFFCURVE",
"626 1020 CURVE SMOOTH",
"383 1020 OFFCURVE",
"155 861 OFFCURVE",
"123 491 CURVE SMOOTH",
"91 132 OFFCURVE",
"280 -35 OFFCURVE",
"530 -35 CURVE SMOOTH"
);
},
{
closed = 1;
nodes = (
"468 255 OFFCURVE",
"398 318 OFFCURVE",
"418 491 CURVE SMOOTH",
"436 671 OFFCURVE",
"531 734 OFFCURVE",
"611 734 CURVE SMOOTH",
"689 734 OFFCURVE",
"748 671 OFFCURVE",
"730 491 CURVE SMOOTH",
"713 318 OFFCURVE",
"624 255 OFFCURVE",
"546 255 CURVE SMOOTH"
);
},
{
closed = 1;
nodes = (
"539 1245 OFFCURVE",
"613 1315 OFFCURVE",
"626 1414 CURVE SMOOTH",
"632 1516 OFFCURVE",
"572 1586 OFFCURVE",
"476 1586 CURVE SMOOTH",
"378 1586 OFFCURVE",
"301 1516 OFFCURVE",
"295 1414 CURVE SMOOTH",
"285 1315 OFFCURVE",
"350 1245 OFFCURVE",
"448 1245 CURVE SMOOTH"
);
},
{
closed = 1;
nodes = (
"946 1250 OFFCURVE",
"1016 1315 OFFCURVE",
"1025 1418 CURVE SMOOTH",
"1035 1516 OFFCURVE",
"975 1590 OFFCURVE",
"880 1590 CURVE SMOOTH",
"783 1590 OFFCURVE",
"704 1516 OFFCURVE",
"698 1418 CURVE SMOOTH",
"688 1315 OFFCURVE",
"755 1250 OFFCURVE",
"851 1250 CURVE SMOOTH"
);
}
);
width = 1059;
}
);
unicode = 00F6;
},
{
glyphname = udieresis;
lastChange = "2019-05-24 19:57:20 +0000";
layers = (
{
layerId = "AD226DB4-BE97-401A-8A1F-FC26A063DFB1";
paths = (
{
closed = 1;
nodes = (
"617 -18 OFFCURVE",
"734 69 OFFCURVE",
"806 207 CURVE",
"786 0 LINE",
"849 0 LINE",
"939 941 LINE",
"873 941 LINE",
"829 472 LINE SMOOTH",
"809 252 OFFCURVE",
"683 46 OFFCURVE",
"486 46 CURVE SMOOTH",
"317 46 OFFCURVE",
"240 148 OFFCURVE",
"263 345 CURVE SMOOTH",
"316 941 LINE",
"250 941 LINE",
"195 346 LINE",
"177 115 OFFCURVE",
"273 -18 OFFCURVE",
"476 -18 CURVE SMOOTH"
);
},
{
closed = 1;
nodes = (
"536 1193 OFFCURVE",
"571 1224 OFFCURVE",
"571 1256 CURVE SMOOTH",
"577 1292 OFFCURVE",
"550 1323 OFFCURVE",
"513 1323 CURVE SMOOTH",
"481 1323 OFFCURVE",
"457 1292 OFFCURVE",
"451 1256 CURVE SMOOTH",
"447 1224 OFFCURVE",
"466 1193 OFFCURVE",
"498 1193 CURVE SMOOTH"
);
},
{
closed = 1;
nodes = (
"786 1190 OFFCURVE",
"823 1224 OFFCURVE",
"825 1254 CURVE SMOOTH",
"829 1292 OFFCURVE",
"802 1321 OFFCURVE",
"766 1321 CURVE SMOOTH",
"735 1321 OFFCURVE",
"709 1292 OFFCURVE",
"703 1254 CURVE SMOOTH",
"699 1224 OFFCURVE",
"720 1190 OFFCURVE",
"750 1190 CURVE SMOOTH"
);
}
);
width = 1049;
},
{
layerId = "2146CDF3-509B-498B-BCC4-8BA41979C9D7";
paths = (
{
closed = 1;
nodes = (
"584 -18 OFFCURVE",
"674 30 OFFCURVE",
"740 155 CURVE",
"726 0 LINE",
"1027 0 LINE",
"1117 993 LINE",
"821 993 LINE",
"777 532 LINE SMOOTH",
"757 324 OFFCURVE",
"650 270 OFFCURVE",
"565 270 CURVE SMOOTH",
"508 270 OFFCURVE",
"470 312 OFFCURVE",
"473 397 CURVE SMOOTH",
"533 993 LINE",
"237 993 LINE",
"175 359 LINE",
"144 69 OFFCURVE",
"306 -18 OFFCURVE",
"482 -18 CURVE SMOOTH"
);
},
{
closed = 1;
nodes = (
"596 1245 OFFCURVE",
"670 1315 OFFCURVE",
"683 1414 CURVE SMOOTH",
"689 1516 OFFCURVE",
"629 1586 OFFCURVE",
"533 1586 CURVE SMOOTH",
"435 1586 OFFCURVE",
"358 1516 OFFCURVE",
"352 1414 CURVE SMOOTH",
"342 1315 OFFCURVE",
"406 1245 OFFCURVE",
"504 1245 CURVE SMOOTH"
);
},
{
closed = 1;
nodes = (
"1003 1250 OFFCURVE",
"1073 1315 OFFCURVE",
"1082 1418 CURVE SMOOTH",
"1092 1516 OFFCURVE",
"1032 1590 OFFCURVE",
"936 1590 CURVE SMOOTH",
"840 1590 OFFCURVE",
"761 1516 OFFCURVE",
"755 1418 CURVE SMOOTH",
"745 1315 OFFCURVE",
"811 1250 OFFCURVE",
"908 1250 CURVE SMOOTH"
);
}
);
width = 1174;
}
);
unicode = 00FC;
},
{
glyphname = Adieresis;
lastChange = "2019-05-24 19:57:20 +0000";
layers = (
{
layerId = "AD226DB4-BE97-401A-8A1F-FC26A063DFB1";
paths = (
{
closed = 1;
nodes = (
"122 0 LINE",
"270 363 LINE",
"739 363 LINE",
"816 0 LINE",
"879 0 LINE",
"622 1215 LINE",
"547 1215 LINE",
"53 0 LINE"
);
},
{
closed = 1;
nodes = (
"574 1118 LINE",
"722 429 LINE",
"294 429 LINE"
);
},
{
closed = 1;
nodes = (
"499 1440 OFFCURVE",
"534 1471 OFFCURVE",
"534 1503 CURVE SMOOTH",
"534 1539 OFFCURVE",
"513 1570 OFFCURVE",
"476 1570 CURVE SMOOTH",
"444 1570 OFFCURVE",
"419 1539 OFFCURVE",
"413 1503 CURVE SMOOTH",
"408 1471 OFFCURVE",
"428 1440 OFFCURVE",
"461 1440 CURVE SMOOTH"
);
},
{
closed = 1;
nodes = (
"749 1437 OFFCURVE",
"786 1471 OFFCURVE",
"788 1501 CURVE SMOOTH",
"791 1539 OFFCURVE",
"765 1568 OFFCURVE",
"728 1568 CURVE SMOOTH",
"698 1568 OFFCURVE",
"671 1539 OFFCURVE",
"665 1501 CURVE SMOOTH",
"660 1471 OFFCURVE",
"682 1437 OFFCURVE",
"713 1437 CURVE SMOOTH"
);
}
);
width = 934;
},
{
layerId = "2146CDF3-509B-498B-BCC4-8BA41979C9D7";
paths = (
{
closed = 1;
nodes = (
"346 0 LINE",
"434 232 LINE",
"844 232 LINE",
"888 0 LINE",
"1208 0 LINE",
"943 1346 LINE",
"567 1346 LINE",
"33 0 LINE"
);
},
{
closed = 1;
nodes = (
"713 960 LINE",
"801 475 LINE",
"530 475 LINE"
);
},
{
closed = 1;
nodes = (
"642 1531 OFFCURVE",
"716 1602 OFFCURVE",
"729 1700 CURVE SMOOTH",
"736 1802 OFFCURVE",
"675 1872 OFFCURVE",
"579 1872 CURVE SMOOTH",
"481 1872 OFFCURVE",
"404 1802 OFFCURVE",
"398 1700 CURVE SMOOTH",
"388 1602 OFFCURVE",
"452 1531 OFFCURVE",
"550 1531 CURVE SMOOTH"
);
},
{
closed = 1;
nodes = (
"1049 1536 OFFCURVE",
"1119 1602 OFFCURVE",
"1128 1704 CURVE SMOOTH",
"1138 1802 OFFCURVE",
"1078 1877 OFFCURVE",
"982 1877 CURVE SMOOTH",
"886 1877 OFFCURVE",
"807 1802 OFFCURVE",
"801 1704 CURVE SMOOTH",
"791 1602 OFFCURVE",
"858 1536 OFFCURVE",
"953 1536 CURVE SMOOTH"
);
}
);
width = 1236;
}
);
unicode = 00C4;
},
{
glyphname = Edieresis;
lastChange = "2019-05-24 19:57:20 +0000";
layers = (
{
layerId = "AD226DB4-BE97-401A-8A1F-FC26A063DFB1";
paths = (
{
closed = 1;
nodes = (
"830 0 LINE",
"840 64 LINE",
"267 64 LINE",
"315 586 LINE",
"855 586 LINE",
"858 644 LINE",
"319 644 LINE",
"367 1152 LINE",
"937 1152 LINE",
"948 1215 LINE",
"309 1215 LINE",
"195 0 LINE"
);
},
{
closed = 1;
nodes = (
"559 1440 OFFCURVE",
"594 1471 OFFCURVE",
"594 1503 CURVE SMOOTH",
"600 1539 OFFCURVE",
"573 1570 OFFCURVE",
"536 1570 CURVE SMOOTH",
"504 1570 OFFCURVE",
"479 1539 OFFCURVE",
"473 1503 CURVE SMOOTH",
"469 1471 OFFCURVE",
"488 1440 OFFCURVE",
"521 1440 CURVE SMOOTH"
);
},
{
closed = 1;
nodes = (
"809 1437 OFFCURVE",
"846 1471 OFFCURVE",
"848 1501 CURVE SMOOTH",
"852 1539 OFFCURVE",
"825 1568 OFFCURVE",
"788 1568 CURVE SMOOTH",
"758 1568 OFFCURVE",
"731 1539 OFFCURVE",
"725 1501 CURVE SMOOTH",
"721 1471 OFFCURVE",
"742 1437 OFFCURVE",
"773 1437 CURVE SMOOTH"
);
}
);
width = 970;
},
{
layerId = "2146CDF3-509B-498B-BCC4-8BA41979C9D7";
paths = (
{
closed = 1;
nodes = (
"969 0 LINE",
"991 288 LINE",
"470 288 LINE",
"493 526 LINE",
"980 526 LINE",
"1009 814 LINE",
"522 814 LINE",
"545 1061 LINE",
"1068 1061 LINE",
"1093 1346 LINE",
"276 1346 LINE",
"149 0 LINE"
);
},
{
closed = 1;
nodes = (
"592 1531 OFFCURVE",
"666 1602 OFFCURVE",
"679 1700 CURVE SMOOTH",
"685 1802 OFFCURVE",
"625 1872 OFFCURVE",
"530 1872 CURVE SMOOTH",
"432 1872 OFFCURVE",
"354 1802 OFFCURVE",
"348 1700 CURVE SMOOTH",
"338 1602 OFFCURVE",
"403 1531 OFFCURVE",
"501 1531 CURVE SMOOTH"
);
},
{
closed = 1;
nodes = (
"1000 1536 OFFCURVE",
"1070 1602 OFFCURVE",
"1078 1704 CURVE SMOOTH",
"1088 1802 OFFCURVE",
"1028 1877 OFFCURVE",
"933 1877 CURVE SMOOTH",
"837 1877 OFFCURVE",
"758 1802 OFFCURVE",
"752 1704 CURVE SMOOTH",
"741 1602 OFFCURVE",
"808 1536 OFFCURVE",
"904 1536 CURVE SMOOTH"
);
}
);
width = 1108;
}
);
unicode = 00CB;
},
{
glyphname = Idieresis;
lastChange = "2019-05-24 19:57:20 +0000";
layers = (
{
layerId = "AD226DB4-BE97-401A-8A1F-FC26A063DFB1";
paths = (
{
closed = 1;
nodes = (
"263 0 LINE",
"377 1215 LINE",
"311 1215 LINE",
"197 0 LINE"
);
},
{
closed = 1;
nodes = (
"272 1440 OFFCURVE",
"307 1471 OFFCURVE",
"307 1503 CURVE SMOOTH",
"313 1539 OFFCURVE",
"286 1570 OFFCURVE",
"249 1570 CURVE SMOOTH",
"217 1570 OFFCURVE",
"192 1539 OFFCURVE",
"186 1503 CURVE SMOOTH",
"183 1471 OFFCURVE",
"201 1440 OFFCURVE",
"234 1440 CURVE SMOOTH"
);
},
{
closed = 1;
nodes = (
"522 1437 OFFCURVE",
"559 1471 OFFCURVE",
"561 1501 CURVE SMOOTH",
"565 1539 OFFCURVE",
"538 1568 OFFCURVE",
"501 1568 CURVE SMOOTH",
"471 1568 OFFCURVE",
"444 1539 OFFCURVE",
"438 1501 CURVE SMOOTH",
"435 1471 OFFCURVE",
"455 1437 OFFCURVE",
"486 1437 CURVE SMOOTH"
);
}
);
width = 456;
},
{
layerId = "2146CDF3-509B-498B-BCC4-8BA41979C9D7";
paths = (
{
closed = 1;
nodes = (
"447 0 LINE",
"574 1346 LINE",
"278 1346 LINE",
"151 0 LINE"
);
},
{
closed = 1;
nodes = (
"338 1531 OFFCURVE",
"412 1602 OFFCURVE",
"425 1700 CURVE SMOOTH",
"431 1802 OFFCURVE",
"371 1872 OFFCURVE",
"276 1872 CURVE SMOOTH",
"178 1872 OFFCURVE",
"101 1802 OFFCURVE",
"95 1700 CURVE SMOOTH",
"84 1602 OFFCURVE",
"149 1531 OFFCURVE",
"247 1531 CURVE SMOOTH"
);
},
{
closed = 1;
nodes = (
"746 1536 OFFCURVE",
"816 1602 OFFCURVE",
"824 1704 CURVE SMOOTH",
"834 1802 OFFCURVE",
"774 1877 OFFCURVE",
"679 1877 CURVE SMOOTH",
"583 1877 OFFCURVE",
"504 1802 OFFCURVE",
"498 1704 CURVE SMOOTH",
"487 1602 OFFCURVE",
"554 1536 OFFCURVE",
"650 1536 CURVE SMOOTH"
);
}
);
width = 601;
}
);
unicode = 00CF;
},
{
glyphname = Odieresis;
lastChange = "2019-05-24 19:57:20 +0000";
layers = (
{
layerId = "AD226DB4-BE97-401A-8A1F-FC26A063DFB1";
paths = (
{
closed = 1;
nodes = (
"788 -15 OFFCURVE",
"1008 179 OFFCURVE",
"1052 604 CURVE",
"1089 1025 OFFCURVE",
"910 1232 OFFCURVE",
"663 1232 CURVE SMOOTH",
"413 1232 OFFCURVE",
"196 1023 OFFCURVE",
"159 604 CURVE",
"119 181 OFFCURVE",
"294 -15 OFFCURVE",
"543 -15 CURVE SMOOTH"
);
},
{
closed = 1;
nodes = (
"317 53 OFFCURVE",
"190 237 OFFCURVE",
"224 604 CURVE SMOOTH",
"263 967 OFFCURVE",
"417 1166 OFFCURVE",
"655 1166 CURVE SMOOTH",
"887 1166 OFFCURVE",
"1018 967 OFFCURVE",
"982 602 CURVE SMOOTH",
"945 237 OFFCURVE",
"782 53 OFFCURVE",
"551 53 CURVE SMOOTH"
);
},
{
closed = 1;
nodes = (
"587 1440 OFFCURVE",
"622 1471 OFFCURVE",
"622 1503 CURVE SMOOTH",
"628 1539 OFFCURVE",
"601 1570 OFFCURVE",
"564 1570 CURVE SMOOTH",
"532 1570 OFFCURVE",
"508 1539 OFFCURVE",
"502 1503 CURVE SMOOTH",
"498 1471 OFFCURVE",
"517 1440 OFFCURVE",
"549 1440 CURVE SMOOTH"
);
},
{
closed = 1;
nodes = (
"837 1437 OFFCURVE",
"874 1471 OFFCURVE",
"876 1501 CURVE SMOOTH",
"880 1539 OFFCURVE",
"853 1568 OFFCURVE",
"817 1568 CURVE SMOOTH",
"786 1568 OFFCURVE",
"760 1539 OFFCURVE",
"754 1501 CURVE SMOOTH",
"750 1471 OFFCURVE",
"771 1437 OFFCURVE",
"801 1437 CURVE SMOOTH"
);
}
);
width = 1088;
},
{
layerId = "2146CDF3-509B-498B-BCC4-8BA41979C9D7";
paths = (
{
closed = 1;
nodes = (
"1005 -35 OFFCURVE",
"1251 206 OFFCURVE",
"1295 676 CURVE",
"1339 1137 OFFCURVE",
"1134 1377 OFFCURVE",
"781 1377 CURVE SMOOTH",
"433 1377 OFFCURVE",
"183 1154 OFFCURVE",
"139 676 CURVE",
"92 214 OFFCURVE",
"300 -35 OFFCURVE",
"648 -35 CURVE SMOOTH"
);
},
{
closed = 1;
nodes = (
"514 263 OFFCURVE",
"420 415 OFFCURVE",
"448 676 CURVE SMOOTH",
"466 928 OFFCURVE",
"595 1081 OFFCURVE",
"754 1081 CURVE SMOOTH",
"920 1081 OFFCURVE",
"1012 928 OFFCURVE",
"988 681 CURVE SMOOTH",
"965 415 OFFCURVE",
"842 263 OFFCURVE",
"676 263 CURVE SMOOTH"
);
},
{
closed = 1;
nodes = (
"686 1531 OFFCURVE",
"761 1602 OFFCURVE",
"773 1700 CURVE SMOOTH",
"779 1802 OFFCURVE",
"719 1872 OFFCURVE",
"624 1872 CURVE SMOOTH",
"526 1872 OFFCURVE",
"448 1802 OFFCURVE",
"442 1700 CURVE SMOOTH",
"432 1602 OFFCURVE",
"497 1531 OFFCURVE",
"595 1531 CURVE SMOOTH"
);
},
{
closed = 1;
nodes = (
"1094 1536 OFFCURVE",
"1164 1602 OFFCURVE",
"1172 1704 CURVE SMOOTH",
"1182 1802 OFFCURVE",
"1122 1877 OFFCURVE",
"1027 1877 CURVE SMOOTH",
"931 1877 OFFCURVE",
"851 1802 OFFCURVE",
"845 1704 CURVE SMOOTH",
"835 1602 OFFCURVE",
"902 1536 OFFCURVE",
"998 1536 CURVE SMOOTH"
);
}
);
width = 1312;
}
);
unicode = 00D6;
},
{
glyphname = Udieresis;
lastChange = "2019-05-24 19:57:20 +0000";
layers = (
{
layerId = "AD226DB4-BE97-401A-8A1F-FC26A063DFB1";
paths = (
{
closed = 1;
nodes = (
"766 -15 OFFCURVE",
"943 116 OFFCURVE",
"967 415 CURVE",
"1047 1215 LINE",
"981 1215 LINE",
"903 415 LINE SMOOTH",
"879 159 OFFCURVE",
"746 48 OFFCURVE",
"555 48 CURVE SMOOTH",
"357 48 OFFCURVE",
"244 159 OFFCURVE",
"268 415 CURVE SMOOTH",
"346 1215 LINE",
"280 1215 LINE",
"202 415 LINE",
"177 116 OFFCURVE",
"318 -15 OFFCURVE",
"545 -15 CURVE SMOOTH"
);
},
{
closed = 1;
nodes = (
"587 1440 OFFCURVE",
"622 1471 OFFCURVE",
"622 1503 CURVE SMOOTH",
"628 1539 OFFCURVE",
"600 1570 OFFCURVE",
"564 1570 CURVE SMOOTH",
"532 1570 OFFCURVE",
"507 1539 OFFCURVE",
"501 1503 CURVE SMOOTH",
"497 1471 OFFCURVE",
"516 1440 OFFCURVE",
"548 1440 CURVE SMOOTH"
);
},
{
closed = 1;
nodes = (
"837 1437 OFFCURVE",
"874 1471 OFFCURVE",
"876 1501 CURVE SMOOTH",
"880 1539 OFFCURVE",
"852 1568 OFFCURVE",
"816 1568 CURVE SMOOTH",
"786 1568 OFFCURVE",
"759 1539 OFFCURVE",
"753 1501 CURVE SMOOTH",
"749 1471 OFFCURVE",
"770 1437 OFFCURVE",
"800 1437 CURVE SMOOTH"
);
}
);
width = 1109;
},
{
layerId = "2146CDF3-509B-498B-BCC4-8BA41979C9D7";
paths = (
{
closed = 1;
nodes = (
"1002 -35 OFFCURVE",
"1206 188 OFFCURVE",
"1243 533 CURVE",
"1316 1346 LINE",
"1020 1346 LINE",
"942 533 LINE SMOOTH",
"925 343 OFFCURVE",
"818 272 OFFCURVE",
"686 272 CURVE SMOOTH",
"560 272 OFFCURVE",
"468 343 OFFCURVE",
"485 533 CURVE SMOOTH",
"563 1346 LINE",
"267 1346 LINE",
"189 533 LINE",
"157 188 OFFCURVE",
"324 -35 OFFCURVE",
"663 -35 CURVE SMOOTH"
);
},
{
closed = 1;
nodes = (
"705 1531 OFFCURVE",
"780 1602 OFFCURVE",
"792 1700 CURVE SMOOTH",
"798 1802 OFFCURVE",
"739 1872 OFFCURVE",
"643 1872 CURVE SMOOTH",
"545 1872 OFFCURVE",
"468 1802 OFFCURVE",
"462 1700 CURVE SMOOTH",
"451 1602 OFFCURVE",
"516 1531 OFFCURVE",
"614 1531 CURVE SMOOTH"
);
},
{
closed = 1;
nodes = (
"1113 1536 OFFCURVE",
"1183 1602 OFFCURVE",
"1191 1704 CURVE SMOOTH",
"1201 1802 OFFCURVE",
"1142 1877 OFFCURVE",
"1046 1877 CURVE SMOOTH",
"950 1877 OFFCURVE",
"871 1802 OFFCURVE",
"865 1704 CURVE SMOOTH",
"854 1602 OFFCURVE",
"921 1536 OFFCURVE",
"1017 1536 CURVE SMOOTH"
);
}
);
width = 1319;
}
);
unicode = 00DC;
},
{
glyphname = dotlessi;
lastChange = "2019-05-24 19:57:20 +0000";
layers = (
{
anchors = (
{
name = above;
position = "{254, 1014}";
}
);
layerId = "AD226DB4-BE97-401A-8A1F-FC26A063DFB1";
paths = (
{
closed = 1;
nodes = (
"263 0 LINE",
"351 941 LINE",
"285 941 LINE",
"197 0 LINE"
);
}
);
width = 456;
},
{
anchors = (
{
name = above;
position = "{254, 1014}";
}
);
layerId = "2146CDF3-509B-498B-BCC4-8BA41979C9D7";
paths = (
{
closed = 1;
nodes = (
"447 0 LINE",
"542 993 LINE",
"246 993 LINE",
"151 0 LINE"
);
}
);
width = 601;
}
);
unicode = 0131;
},
{
glyphname = igrave;
lastChange = "2019-05-24 19:57:20 +0000";
layers = (
{
layerId = "AD226DB4-BE97-401A-8A1F-FC26A063DFB1";
paths = (
{
closed = 1;
nodes = (
"260 0 LINE",
"348 941 LINE",
"282 941 LINE",
"194 0 LINE"
);
},
{
closed = 1;
nodes = (
"507 1074 LINE",
"536 1122 LINE",
"201 1390 LINE",
"155 1320 LINE"
);
}
);
width = 482;
},
{
layerId = "2146CDF3-509B-498B-BCC4-8BA41979C9D7";
paths = (
{
closed = 1;
nodes = (
"477 0 LINE",
"572 993 LINE",
"276 993 LINE",
"181 0 LINE"
);
},
{
closed = 1;
nodes = (
"685 1140 LINE",
"779 1346 LINE",
"253 1607 LINE",
"128 1326 LINE"
);
}
);
width = 652;
}
);
unicode = 00EC;
},
{
glyphname = iacute;
lastChange = "2019-05-24 19:57:20 +0000";
layers = (
{
layerId = "AD226DB4-BE97-401A-8A1F-FC26A063DFB1";
paths = (
{
closed = 1;
nodes = (
"260 0 LINE",
"348 941 LINE",
"282 941 LINE",
"194 0 LINE"
);
},
{
closed = 1;
nodes = (
"157 1074 LINE",
"132 1122 LINE",
"517 1390 LINE",
"554 1320 LINE"
);
}
);
width = 482;
},
{
layerId = "2146CDF3-509B-498B-BCC4-8BA41979C9D7";
paths = (
{
closed = 1;
nodes = (
"477 0 LINE",
"572 993 LINE",
"276 993 LINE",
"181 0 LINE"
);
},
{
closed = 1;
nodes = (
"177 1140 LINE",
"132 1346 LINE",
"708 1607 LINE",
"771 1326 LINE"
);
}
);
width = 652;
}
);
unicode = 00ED;
},
{
glyphname = icircumflex;
lastChange = "2019-05-24 19:57:20 +0000";
layers = (
{
layerId = "AD226DB4-BE97-401A-8A1F-FC26A063DFB1";
paths = (
{
closed = 1;
nodes = (
"260 0 LINE",
"348 941 LINE",
"282 941 LINE",
"194 0 LINE"
);
},
{
closed = 1;
nodes = (
"70 1111 LINE",
"108 1076 LINE",
"356 1308 LINE",
"563 1076 LINE",
"603 1111 LINE",
"365 1412 LINE"
);
}
);
width = 482;
},
{
layerId = "2146CDF3-509B-498B-BCC4-8BA41979C9D7";
paths = (
{
closed = 1;
nodes = (
"477 0 LINE",
"572 993 LINE",
"276 993 LINE",
"181 0 LINE"
);
},
{
closed = 1;
nodes = (
"10 1302 LINE",
"180 1136 LINE",
"447 1321 LINE",
"675 1136 LINE",
"885 1302 LINE",
"477 1636 LINE"
);
}
);
width = 652;
}
);
unicode = 00EE;
},
{
glyphname = idieresis;
lastChange = "2019-05-24 19:57:20 +0000";
layers = (
{
layerId = "AD226DB4-BE97-401A-8A1F-FC26A063DFB1";
paths = (
{
closed = 1;
nodes = (
"260 0 LINE",
"348 941 LINE",
"282 941 LINE",
"194 0 LINE"
);
},
{
closed = 1;
nodes = (
"250 1193 OFFCURVE",
"285 1224 OFFCURVE",
"284 1256 CURVE SMOOTH",
"290 1292 OFFCURVE",
"263 1323 OFFCURVE",
"227 1323 CURVE SMOOTH",
"195 1323 OFFCURVE",
"170 1292 OFFCURVE",
"164 1256 CURVE SMOOTH",
"160 1224 OFFCURVE",
"179 1193 OFFCURVE",
"211 1193 CURVE SMOOTH"
);
},
{
closed = 1;
nodes = (
"500 1190 OFFCURVE",
"537 1224 OFFCURVE",
"539 1254 CURVE SMOOTH",
"542 1292 OFFCURVE",
"515 1321 OFFCURVE",
"479 1321 CURVE SMOOTH",
"449 1321 OFFCURVE",
"422 1292 OFFCURVE",
"416 1254 CURVE SMOOTH",
"412 1224 OFFCURVE",
"433 1190 OFFCURVE",
"463 1190 CURVE SMOOTH"
);
}
);
width = 482;
},
{
layerId = "2146CDF3-509B-498B-BCC4-8BA41979C9D7";
paths = (
{
closed = 1;
nodes = (
"477 0 LINE",
"572 993 LINE",
"276 993 LINE",
"181 0 LINE"
);
},
{
closed = 1;
nodes = (
"335 1245 OFFCURVE",
"410 1315 OFFCURVE",
"423 1414 CURVE SMOOTH",
"429 1516 OFFCURVE",
"368 1586 OFFCURVE",
"273 1586 CURVE SMOOTH",
"175 1586 OFFCURVE",
"98 1516 OFFCURVE",
"92 1414 CURVE SMOOTH",
"81 1315 OFFCURVE",
"146 1245 OFFCURVE",
"244 1245 CURVE SMOOTH"
);
},
{
closed = 1;
nodes = (
"743 1250 OFFCURVE",
"813 1315 OFFCURVE",
"821 1418 CURVE SMOOTH",
"832 1516 OFFCURVE",
"772 1590 OFFCURVE",
"676 1590 CURVE SMOOTH",
"580 1590 OFFCURVE",
"501 1516 OFFCURVE",
"495 1418 CURVE SMOOTH",
"484 1315 OFFCURVE",
"551 1250 OFFCURVE",
"647 1250 CURVE SMOOTH"
);
}
);
width = 652;
}
);
unicode = 00EF;
},
{
glyphname = less;
lastChange = "2019-05-24 19:57:20 +0000";
layers = (
{
layerId = "AD226DB4-BE97-401A-8A1F-FC26A063DFB1";
paths = (
{
closed = 1;
nodes = (
"114 602 LINE",
"111 546 LINE",
"607 106 LINE",
"652 165 LINE",
"176 573 LINE",
"730 991 LINE",
"694 1046 LINE"
);
}
);
width = 725;
},
{
layerId = "2146CDF3-509B-498B-BCC4-8BA41979C9D7";
paths = (
{
closed = 1;
nodes = (
"174 838 LINE",
"144 533 LINE",
"732 27 LINE",
"954 277 LINE",
"466 685 LINE",
"1032 1090 LINE",
"858 1342 LINE"
);
}
);
width = 1007;
}
);
unicode = 003C;
},
{
glyphname = greater;
lastChange = "2019-05-24 19:57:20 +0000";
layers = (
{
layerId = "AD226DB4-BE97-401A-8A1F-FC26A063DFB1";
paths = (
{
closed = 1;
nodes = (
"713 546 LINE",
"717 602 LINE",
"228 1046 LINE",
"180 991 LINE",
"647 573 LINE",
"102 165 LINE",
"141 106 LINE"
);
}
);
width = 725;
},
{
layerId = "2146CDF3-509B-498B-BCC4-8BA41979C9D7";
paths = (
{
closed = 1;
nodes = (
"963 533 LINE",
"993 838 LINE",
"398 1342 LINE",
"180 1090 LINE",
"674 685 LINE",
"102 277 LINE",
"272 27 LINE"
);
}
);
width = 1007;
}
);
unicode = 003E;
},
{
glyphname = quotedbl;
lastChange = "2019-05-15 14:38:49 +0000";
layers = (
{
layerId = "AD226DB4-BE97-401A-8A1F-FC26A063DFB1";
paths = (
{
closed = 1;
nodes = (
"143 950 LINE",
"199 950 LINE",
"248 1351 LINE",
"169 1351 LINE"
);
},
{
closed = 1;
nodes = (
"380 950 LINE",
"436 950 LINE",
"485 1351 LINE",
"406 1351 LINE"
);
}
);
width = 398;
},
{
layerId = "2146CDF3-509B-498B-BCC4-8BA41979C9D7";
paths = (
{
closed = 1;
nodes = (
"182 865 LINE",
"396 865 LINE",
"484 1384 LINE",
"196 1384 LINE"
);
},
{
closed = 1;
nodes = (
"616 865 LINE",
"830 865 LINE",
"918 1384 LINE",
"630 1384 LINE"
);
}
);
width = 858;
}
);
unicode = 0022;
},
{
glyphname = numbersign;
lastChange = "2019-05-24 19:57:20 +0000";
layers = (
{
layerId = "AD226DB4-BE97-401A-8A1F-FC26A063DFB1";
paths = (
{
closed = 1;
nodes = (
"319 58 LINE",
"373 353 LINE",
"684 353 LINE",
"629 58 LINE",
"692 58 LINE",
"746 353 LINE",
"945 353 LINE",
"954 411 LINE",
"757 411 LINE",
"834 811 LINE",
"1035 811 LINE",
"1040 862 LINE",
"843 862 LINE",
"897 1158 LINE",
"839 1158 LINE",
"785 862 LINE",
"474 862 LINE",
"528 1158 LINE",
"466 1158 LINE",
"412 862 LINE",
"212 862 LINE",
"203 811 LINE",
"403 811 LINE",
"326 411 LINE",
"131 411 LINE",
"117 353 LINE",
"315 353 LINE",
"261 58 LINE"
);
},
{
closed = 1;
nodes = (
"465 811 LINE",
"776 811 LINE",
"699 411 LINE",
"388 411 LINE"
);
}
);
width = 1028;
},
{
layerId = "2146CDF3-509B-498B-BCC4-8BA41979C9D7";
paths = (
{
closed = 1;
nodes = (
"522 71 LINE",
"570 314 LINE",
"775 314 LINE",
"728 71 LINE",
"1007 71 LINE",
"1055 314 LINE",
"1208 314 LINE",
"1250 523 LINE",
"1092 523 LINE",
"1143 791 LINE",
"1292 791 LINE",
"1342 1007 LINE",
"1185 1007 LINE",
"1232 1243 LINE",
"951 1243 LINE",
"903 1007 LINE",
"698 1007 LINE",
"745 1243 LINE",
"466 1243 LINE",
"418 1007 LINE",
"272 1007 LINE",
"230 791 LINE",
"376 791 LINE",
"326 523 LINE",
"177 523 LINE",
"144 314 LINE",
"288 314 LINE",
"241 71 LINE"
);
},
{
closed = 1;
nodes = (
"656 791 LINE",
"861 791 LINE",
"811 523 LINE",
"605 523 LINE"
);
}
);
width = 1330;
}
);
unicode = 0023;
},
{
glyphname = asterisk;
lastChange = "2019-05-24 19:57:20 +0000";
layers = (
{
layerId = "AD226DB4-BE97-401A-8A1F-FC26A063DFB1";
paths = (
{
closed = 1;
nodes = (
"464 973 LINE",
"599 759 LINE",
"654 811 LINE",
"504 1004 LINE",
"733 1090 LINE",
"712 1161 LINE",
"494 1049 LINE",
"534 1325 LINE",
"457 1325 LINE",
"449 1049 LINE",
"258 1166 LINE",
"217 1092 LINE",
"430 1006 LINE",
"239 811 LINE",
"291 759 LINE"
);
}
);
width = 749;
},
{
layerId = "2146CDF3-509B-498B-BCC4-8BA41979C9D7";
paths = (
{
closed = 1;
nodes = (
"470 1006 LINE",
"572 811 LINE",
"720 942 LINE",
"589 1089 LINE",
"779 1156 LINE",
"725 1339 LINE",
"554 1240 LINE",
"600 1456 LINE",
"418 1456 LINE",
"422 1240 LINE",
"264 1330 LINE",
"184 1152 LINE",
"364 1085 LINE",
"206 942 LINE",
"324 811 LINE"
);
}
);
width = 729;
}
);
unicode = 002A;
},
{
glyphname = slash;
lastChange = "2019-05-24 19:57:20 +0000";
layers = (
{
layerId = "AD226DB4-BE97-401A-8A1F-FC26A063DFB1";
paths = (
{
closed = 1;
nodes = (
"158 -129 LINE",
"749 1432 LINE",
"685 1432 LINE",
"97 -129 LINE"
);
}
);
width = 700;
},
{
layerId = "2146CDF3-509B-498B-BCC4-8BA41979C9D7";
paths = (
{
closed = 1;
nodes = (
"375 -181 LINE",
"1012 1523 LINE",
"705 1523 LINE",
"70 -181 LINE"
);
}
);
width = 936;
}
);
unicode = 002F;
},
{
glyphname = percent;
lastChange = "2019-05-15 14:38:49 +0000";
layers = (
{
layerId = "AD226DB4-BE97-401A-8A1F-FC26A063DFB1";
paths = (
{
closed = 1;
nodes = (
"325 1232 OFFCURVE",
"220 1132 OFFCURVE",
"202 959 CURVE SMOOTH",
"186 789 OFFCURVE",
"275 693 OFFCURVE",
"389 693 CURVE SMOOTH",
"500 693 OFFCURVE",
"611 789 OFFCURVE",
"627 959 CURVE SMOOTH",
"643 1132 OFFCURVE",
"549 1232 OFFCURVE",
"440 1232 CURVE SMOOTH"
);
},
{
closed = 1;
nodes = (
"516 1174 OFFCURVE",
"573 1099 OFFCURVE",
"559 959 CURVE SMOOTH",
"545 822 OFFCURVE",
"475 755 OFFCURVE",
"394 755 CURVE SMOOTH",
"301 755 OFFCURVE",
"248 822 OFFCURVE",
"260 959 CURVE SMOOTH",
"274 1099 OFFCURVE",
"341 1174 OFFCURVE",
"435 1174 CURVE SMOOTH"
);
},
{
closed = 1;
nodes = (
"285 0 LINE",
"1128 1215 LINE",
"1052 1215 LINE",
"215 0 LINE"
);
},
{
closed = 1;
nodes = (
"841 522 OFFCURVE",
"730 426 OFFCURVE",
"714 249 CURVE SMOOTH",
"698 80 OFFCURVE",
"788 -15 OFFCURVE",
"895 -15 CURVE SMOOTH",
"1010 -15 OFFCURVE",
"1121 80 OFFCURVE",
"1137 249 CURVE SMOOTH",
"1155 426 OFFCURVE",
"1062 522 OFFCURVE",
"948 522 CURVE SMOOTH"
);
},
{
closed = 1;
nodes = (
"1030 463 OFFCURVE",
"1085 390 OFFCURVE",
"1069 249 CURVE SMOOTH",
"1059 112 OFFCURVE",
"992 45 OFFCURVE",
"904 45 CURVE SMOOTH",
"815 45 OFFCURVE",
"760 112 OFFCURVE",
"770 249 CURVE SMOOTH",
"788 390 OFFCURVE",
"855 463 OFFCURVE",
"945 463 CURVE SMOOTH"
);
}
);
width = 1230;
},
{
layerId = "2146CDF3-509B-498B-BCC4-8BA41979C9D7";
paths = (
{
closed = 1;
nodes = (
"364 1377 OFFCURVE",
"226 1277 OFFCURVE",
"208 1058 CURVE SMOOTH",
"186 835 OFFCURVE",
"302 732 OFFCURVE",
"441 732 CURVE SMOOTH",
"585 732 OFFCURVE",
"716 835 OFFCURVE",
"739 1058 CURVE SMOOTH",
"761 1277 OFFCURVE",
"648 1377 OFFCURVE",
"500 1377 CURVE SMOOTH"
);
},
{
closed = 1;
nodes = (
"516 1174 OFFCURVE",
"534 1151 OFFCURVE",
"526 1058 CURVE SMOOTH",
"518 961 OFFCURVE",
"495 933 OFFCURVE",
"460 933 CURVE SMOOTH",
"432 933 OFFCURVE",
"412 961 OFFCURVE",
"424 1058 CURVE SMOOTH",
"432 1151 OFFCURVE",
"453 1174 OFFCURVE",
"481 1174 CURVE SMOOTH"
);
},
{
closed = 1;
nodes = (
"476 0 LINE",
"1430 1346 LINE",
"1137 1346 LINE",
"176 0 LINE"
);
},
{
closed = 1;
nodes = (
"1019 613 OFFCURVE",
"888 511 OFFCURVE",
"865 295 CURVE SMOOTH",
"843 67 OFFCURVE",
"958 -35 OFFCURVE",
"1105 -35 CURVE SMOOTH",
"1246 -35 OFFCURVE",
"1378 67 OFFCURVE",
"1400 295 CURVE SMOOTH",
"1418 511 OFFCURVE",
"1305 613 OFFCURVE",
"1165 613 CURVE SMOOTH"
);
},
{
closed = 1;
nodes = (
"1175 411 OFFCURVE",
"1197 384 OFFCURVE",
"1187 295 CURVE SMOOTH",
"1177 197 OFFCURVE",
"1150 170 OFFCURVE",
"1121 170 CURVE SMOOTH",
"1091 170 OFFCURVE",
"1075 197 OFFCURVE",
"1085 295 CURVE SMOOTH",
"1090 384 OFFCURVE",
"1112 411 OFFCURVE",
"1142 411 CURVE SMOOTH"
);
}
);
width = 1460;
}
);
unicode = 0025;
},
{
glyphname = backslash;
lastChange = "2019-05-24 19:57:20 +0000";
layers = (
{
layerId = "AD226DB4-BE97-401A-8A1F-FC26A063DFB1";
paths = (
{
closed = 1;
nodes = (
"851 -131 LINE",
"260 1429 LINE",
"199 1429 LINE",
"787 -131 LINE"
);
}
);
width = 700;
},
{
layerId = "2146CDF3-509B-498B-BCC4-8BA41979C9D7";
paths = (
{
closed = 1;
nodes = (
"1084 -177 LINE",
"447 1528 LINE",
"142 1528 LINE",
"777 -177 LINE"
);
}
);
width = 936;
}
);
unicode = 005C;
},
{
glyphname = bar;
lastChange = "2019-05-24 19:57:20 +0000";
layers = (
{
layerId = "AD226DB4-BE97-401A-8A1F-FC26A063DFB1";
paths = (
{
closed = 1;
nodes = (
"239 -244 LINE",
"397 1454 LINE",
"331 1454 LINE",
"173 -244 LINE"
);
}
);
width = 456;
},
{
layerId = "2146CDF3-509B-498B-BCC4-8BA41979C9D7";
paths = (
{
closed = 1;
nodes = (
"423 -244 LINE",
"600 1593 LINE",
"304 1593 LINE",
"127 -244 LINE"
);
}
);
width = 601;
}
);
unicode = 007C;
},
{
glyphname = bracketleft;
lastChange = "2019-05-24 19:57:20 +0000";
layers = (
{
layerId = "AD226DB4-BE97-401A-8A1F-FC26A063DFB1";
paths = (
{
closed = 1;
nodes = (
"396 -119 LINE",
"400 -60 LINE",
"205 -60 LINE",
"333 1272 LINE",
"527 1272 LINE",
"528 1334 LINE",
"270 1334 LINE",
"136 -119 LINE"
);
}
);
width = 501;
},
{
layerId = "2146CDF3-509B-498B-BCC4-8BA41979C9D7";
paths = (
{
closed = 1;
nodes = (
"678 -376 LINE",
"707 -73 LINE",
"454 -73 LINE",
"594 1423 LINE",
"848 1423 LINE",
"882 1722 LINE",
"328 1722 LINE",
"128 -376 LINE"
);
}
);
width = 711;
}
);
unicode = 005B;
},
{
glyphname = bracketright;
lastChange = "2019-05-24 19:57:20 +0000";
layers = (
{
layerId = "AD226DB4-BE97-401A-8A1F-FC26A063DFB1";
paths = (
{
closed = 1;
nodes = (
"228 -119 LINE",
"382 1334 LINE",
"120 1334 LINE",
"115 1272 LINE",
"309 1272 LINE",
"167 -60 LINE",
"-27 -60 LINE",
"-32 -119 LINE"
);
}
);
width = 412;
},
{
layerId = "2146CDF3-509B-498B-BCC4-8BA41979C9D7";
paths = (
{
closed = 1;
nodes = (
"571 -376 LINE",
"791 1722 LINE",
"239 1722 LINE",
"207 1423 LINE",
"461 1423 LINE",
"306 -73 LINE",
"53 -73 LINE",
"21 -376 LINE"
);
}
);
width = 714;
}
);
unicode = 005D;
},
{
glyphname = asciicircum;
lastChange = "2019-05-24 19:57:20 +0000";
layers = (
{
layerId = "AD226DB4-BE97-401A-8A1F-FC26A063DFB1";
paths = (
{
closed = 1;
nodes = (
"168 549 LINE",
"431 1047 LINE",
"605 549 LINE",
"681 549 LINE",
"461 1135 LINE",
"418 1135 LINE",
"89 549 LINE"
);
}
);
width = 652;
},
{
layerId = "2146CDF3-509B-498B-BCC4-8BA41979C9D7";
paths = (
{
closed = 1;
nodes = (
"392 371 LINE",
"641 856 LINE",
"796 371 LINE",
"1121 371 LINE",
"803 1247 LINE",
"557 1247 LINE",
"69 371 LINE"
);
}
);
width = 1118;
}
);
unicode = 005E;
},
{
glyphname = underscore;
lastChange = "2019-05-24 19:57:20 +0000";
layers = (
{
layerId = "AD226DB4-BE97-401A-8A1F-FC26A063DFB1";
paths = (
{
closed = 1;
nodes = (
"1106 -1 LINE",
"1109 59 LINE",
"86 59 LINE",
"83 -1 LINE"
);
}
);
width = 1223;
},
{
layerId = "2146CDF3-509B-498B-BCC4-8BA41979C9D7";
paths = (
{
closed = 1;
nodes = (
"1340 0 LINE",
"1370 290 LINE",
"90 290 LINE",
"61 0 LINE"
);
}
);
width = 1473;
}
);
unicode = 005F;
},
{
glyphname = braceleft;
lastChange = "2019-05-24 19:57:20 +0000";
layers = (
{
layerId = "AD226DB4-BE97-401A-8A1F-FC26A063DFB1";
paths = (
{
closed = 1;
nodes = (
"507 -181 LINE",
"326 -181 OFFCURVE",
"290 -42 OFFCURVE",
"310 194 CURVE SMOOTH",
"324 373 LINE",
"338 493 OFFCURVE",
"319 554 OFFCURVE",
"276 576 CURVE",
"280 581 LINE",
"323 607 OFFCURVE",
"355 664 OFFCURVE",
"367 784 CURVE SMOOTH",
"381 959 LINE",
"405 1196 OFFCURVE",
"475 1338 OFFCURVE",
"651 1338 CURVE",
"654 1394 LINE",
"426 1394 OFFCURVE",
"341 1207 OFFCURVE",
"317 959 CURVE SMOOTH",
"303 779 LINE",
"289 659 OFFCURVE",
"261 608 OFFCURVE",
"217 608 CURVE SMOOTH",
"202 608 LINE",
"197 549 LINE",
"209 549 LINE SMOOTH",
"251 549 OFFCURVE",
"274 497 OFFCURVE",
"262 378 CURVE",
"246 192 LINE SMOOTH",
"222 -56 OFFCURVE",
"271 -237 OFFCURVE",
"499 -237 CURVE"
);
}
);
width = 545;
},
{
layerId = "2146CDF3-509B-498B-BCC4-8BA41979C9D7";
paths = (
{
closed = 1;
nodes = (
"789 -50 LINE",
"616 -50 OFFCURVE",
"526 18 OFFCURVE",
"546 194 CURVE SMOOTH",
"567 393 LINE",
"581 526 OFFCURVE",
"522 620 OFFCURVE",
"446 667 CURVE",
"444 680 LINE",
"533 725 OFFCURVE",
"605 822 OFFCURVE",
"617 954 CURVE SMOOTH",
"638 1156 LINE",
"655 1335 OFFCURVE",
"751 1398 OFFCURVE",
"927 1398 CURVE",
"956 1703 LINE",
"571 1703 OFFCURVE",
"374 1483 OFFCURVE",
"344 1162 CURVE SMOOTH",
"323 976 LINE",
"316 869 OFFCURVE",
"307 844 OFFCURVE",
"256 844 CURVE SMOOTH",
"196 844 LINE",
"164 503 LINE",
"229 503 LINE SMOOTH",
"278 503 OFFCURVE",
"280 477 OFFCURVE",
"268 372 CURVE",
"252 192 LINE SMOOTH",
"222 -128 OFFCURVE",
"376 -355 OFFCURVE",
"762 -355 CURVE"
);
}
);
width = 795;
}
);
unicode = 007B;
},
{
glyphname = braceright;
lastChange = "2019-05-24 19:57:20 +0000";
layers = (
{
layerId = "AD226DB4-BE97-401A-8A1F-FC26A063DFB1";
paths = (
{
closed = 1;
nodes = (
"213 -237 OFFCURVE",
"298 -50 OFFCURVE",
"322 198 CURVE SMOOTH",
"336 378 LINE SMOOTH",
"346 499 OFFCURVE",
"379 549 OFFCURVE",
"422 549 CURVE SMOOTH",
"437 549 LINE",
"442 608 LINE",
"430 608 LINE SMOOTH",
"394 608 OFFCURVE",
"373 636 OFFCURVE",
"373 730 CURVE SMOOTH",
"373 744 OFFCURVE",
"375 757 OFFCURVE",
"377 779 CURVE SMOOTH",
"393 965 LINE SMOOTH",
"393 991 OFFCURVE",
"397 1023 OFFCURVE",
"397 1049 CURVE SMOOTH",
"402 1253 OFFCURVE",
"343 1394 OFFCURVE",
"140 1394 CURVE",
"133 1338 LINE",
"287 1338 OFFCURVE",
"338 1231 OFFCURVE",
"333 1048 CURVE SMOOTH",
"333 1029 OFFCURVE",
"333 1009 OFFCURVE",
"329 963 CURVE SMOOTH",
"316 784 LINE SMOOTH",
"314 770 OFFCURVE",
"314 750 OFFCURVE",
"314 738 CURVE SMOOTH",
"311 646 OFFCURVE",
"329 601 OFFCURVE",
"364 581 CURVE",
"364 580 LINE",
"321 554 OFFCURVE",
"284 493 OFFCURVE",
"272 373 CURVE SMOOTH",
"258 198 LINE SMOOTH",
"240 -39 OFFCURVE",
"165 -181 OFFCURVE",
"-11 -181 CURVE",
"-15 -237 LINE"
);
}
);
width = 435;
},
{
layerId = "2146CDF3-509B-498B-BCC4-8BA41979C9D7";
paths = (
{
closed = 1;
nodes = (
"325 -355 OFFCURVE",
"522 -135 OFFCURVE",
"552 185 CURVE SMOOTH",
"572 372 LINE SMOOTH",
"582 479 OFFCURVE",
"589 503 OFFCURVE",
"639 503 CURVE SMOOTH",
"700 503 LINE",
"732 844 LINE",
"666 844 LINE SMOOTH",
"630 844 OFFCURVE",
"623 866 OFFCURVE",
"623 888 CURVE SMOOTH",
"623 914 OFFCURVE",
"625 948 OFFCURVE",
"627 976 CURVE SMOOTH",
"643 1156 LINE SMOOTH",
"650 1194 OFFCURVE",
"647 1226 OFFCURVE",
"647 1259 CURVE SMOOTH",
"638 1522 OFFCURVE",
"474 1703 OFFCURVE",
"134 1703 CURVE",
"106 1398 LINE",
"260 1398 OFFCURVE",
"344 1349 OFFCURVE",
"353 1218 CURVE SMOOTH",
"353 1207 OFFCURVE",
"353 1193 OFFCURVE",
"349 1154 CURVE SMOOTH",
"329 954 LINE SMOOTH",
"327 934 OFFCURVE",
"327 920 OFFCURVE",
"327 902 CURVE SMOOTH",
"331 797 OFFCURVE",
"381 719 OFFCURVE",
"449 680 CURVE",
"449 665 LINE",
"360 620 OFFCURVE",
"290 526 OFFCURVE",
"278 393 CURVE SMOOTH",
"258 192 LINE SMOOTH",
"240 13 OFFCURVE",
"145 -50 OFFCURVE",
"-31 -50 CURVE",
"-61 -355 LINE"
);
}
);
width = 1020;
}
);
unicode = 007D;
},
